<?xml version="1.0" encoding="utf-8"?>
<svg version="1.1" id="Layer_1" xmlns="http://www.w3.org/2000/svg" xmlns:xlink="http://www.w3.org/1999/xlink" x="0px" y="0px"
	 viewBox="0 0 1500.106 1654.803" enable-background="new 0 0 1500.106 1654.803" xml:space="preserve">
<g id="Man_Head_Silhouette">
	<g>
		<path id="path19449_1_" d="M537.551,1627.401l781.666,0c-32.843-154.35-72.15-408.273-55.23-470.509
			c27.867-105.553,117.921-185.216,151.761-269.858c172.155-430.179-38.201-804.688-513.982-854.383
			C481.651-11.23,247.971,227.326,215.128,473.783c-3.481,26.388,0,52.776,12.442,80.161
			c-57.715,90.119-190.57,223.055-202.01,286.786c-6.968,38.337,38.311,51.78,60.206,65.224c20.899,6.971,43.785,1.99,57.715,18.92
			c9.951,12.448-3.481,33.359-6.47,48.794c-0.498,25.392-30.346,37.84-27.363,61.24c2.989,19.916,19.903,27.883,35.328,40.33
			c16.421,12.944-41.798,37.839-22.892,60.743c19.404,22.404,47.77,48.295,37.813,80.16
			c-14.429,49.291-42.296,100.573-19.405,138.911c22.892,37.84,54.732,60.244,103.991,70.2c60.671,0,121.653,0.931,182.7,1.328
			c33.999,0.221,64.926,19.568,80.147,49.97C531.645,1525.111,541.475,1575.424,537.551,1627.401z"/>
		<g>
			<g>
				<g>
					<g>
						
							<linearGradient id="SVGID_2_" gradientUnits="userSpaceOnUse" x1="634.9482" y1="1086.2499" x2="1019.6475" y2="1086.2499" gradientTransform="matrix(1 0 0 -1 0 1656.8026)">
							<stop  offset="0" style="stop-color:#8A949B"/>
							<stop  offset="0.1629" style="stop-color:#FFFFFF"/>
							<stop  offset="0.3764" style="stop-color:#437A7F"/>
							<stop  offset="0.6685" style="stop-color:#FFFFFF"/>
							<stop  offset="1" style="stop-color:#64747E"/>
						</linearGradient>
						<path fill="url(#SVGID_2_)" d="M827.298,1059.011c106.232,0,192.35-218.69,192.35-488.458S933.53,82.095,827.298,82.095
							s-192.35,218.69-192.35,488.458S721.066,1059.011,827.298,1059.011z M698.362,229.635
							c17.69-43.431,38.124-77.356,60.735-100.834c22.043-22.889,44.99-34.495,68.201-34.495c23.212,0,46.158,11.606,68.201,34.495
							c22.61,23.478,43.045,57.403,60.735,100.834c17.949,44.064,32.057,95.472,41.933,152.794
							c10.261,59.558,15.464,122.853,15.464,188.124c0,65.271-5.203,128.565-15.464,188.124
							c-9.876,57.322-23.984,108.73-41.933,152.794c-17.69,43.431-38.125,77.356-60.735,100.834
							c-22.043,22.889-44.99,34.495-68.201,34.495c-23.211,0-46.158-11.606-68.201-34.495
							c-22.611-23.478-43.045-57.403-60.735-100.834c-17.949-44.064-32.057-95.472-41.934-152.794
							c-10.261-59.559-15.464-122.852-15.464-188.124c0-65.271,5.202-128.565,15.464-188.124
							C666.304,325.107,680.412,273.699,698.362,229.635z"/>
						
							<linearGradient id="SVGID_3_" gradientUnits="userSpaceOnUse" x1="632.5062" y1="1086.2499" x2="1022.0898" y2="1086.2499" gradientTransform="matrix(1 0 0 -1 0 1656.8026)">
							<stop  offset="0" style="stop-color:#FFFFFF"/>
							<stop  offset="0.1" style="stop-color:#000000"/>
							<stop  offset="0.2" style="stop-color:#FFFFFF"/>
							<stop  offset="0.3" style="stop-color:#000000"/>
							<stop  offset="0.4" style="stop-color:#FFFFFF"/>
							<stop  offset="0.5" style="stop-color:#000000"/>
							<stop  offset="0.6" style="stop-color:#FFFFFF"/>
							<stop  offset="0.7" style="stop-color:#000000"/>
							<stop  offset="0.8" style="stop-color:#FFFFFF"/>
							<stop  offset="0.9" style="stop-color:#000000"/>
							<stop  offset="1" style="stop-color:#FFFFFF"/>
						</linearGradient>
						<path fill="url(#SVGID_3_)" d="M827.298,82.095c106.232,0,192.35,218.69,192.35,488.458s-86.118,488.458-192.35,488.458
							c-106.232,0-192.349-218.69-192.349-488.458S721.066,82.095,827.298,82.095 M827.298,1046.799
							c23.211,0,46.158-11.606,68.201-34.495c22.61-23.478,43.045-57.403,60.735-100.834
							c17.949-44.064,32.057-95.471,41.933-152.794c10.261-59.559,15.464-122.853,15.464-188.124
							c0-65.271-5.203-128.565-15.464-188.124c-9.876-57.322-23.984-108.73-41.933-152.794
							c-17.69-43.431-38.125-77.356-60.735-100.834c-22.043-22.889-44.99-34.495-68.201-34.495
							c-23.212,0-46.158,11.606-68.201,34.495c-22.611,23.478-43.045,57.403-60.735,100.834
							c-17.949,44.064-32.057,95.472-41.934,152.794c-10.261,59.558-15.464,122.853-15.464,188.124
							c0,65.271,5.202,128.565,15.464,188.124c9.876,57.322,23.984,108.73,41.934,152.794c17.69,43.43,38.124,77.356,60.735,100.834
							C781.14,1035.194,804.086,1046.799,827.298,1046.799 M827.298,79.652c-13.447,0-26.868,3.431-39.891,10.199
							c-12.598,6.547-24.969,16.292-36.768,28.965c-23.114,24.827-43.848,60.305-61.625,105.45
							c-17.728,45.018-31.643,97.422-41.359,155.756c-10.052,60.352-15.149,124.456-15.149,190.531s5.097,130.179,15.149,190.531
							c9.716,58.334,23.631,110.738,41.359,155.756c17.778,45.145,38.511,80.623,61.625,105.45
							c11.799,12.673,24.169,22.418,36.767,28.965c13.023,6.767,26.445,10.199,39.891,10.199c13.447,0,26.868-3.431,39.891-10.199
							c12.598-6.547,24.969-16.292,36.767-28.965c23.114-24.827,43.848-60.305,61.626-105.45
							c17.728-45.018,31.643-97.422,41.359-155.756c10.052-60.352,15.149-124.456,15.149-190.531s-5.097-130.179-15.149-190.531
							c-9.716-58.334-23.631-110.738-41.359-155.756c-17.778-45.145-38.511-80.623-61.625-105.45
							c-11.799-12.673-24.169-22.418-36.767-28.965C854.166,83.084,840.745,79.652,827.298,79.652L827.298,79.652z
							 M827.298,1044.357c-22.523,0-44.877-11.354-66.442-33.747c-22.395-23.254-42.66-56.919-60.233-100.061
							c-17.882-43.899-31.942-95.136-41.789-152.287c-10.237-59.42-15.428-122.575-15.428-187.709
							c0-65.134,5.191-128.289,15.428-187.709c9.847-57.151,23.907-108.388,41.789-152.287
							c17.573-43.142,37.838-76.808,60.233-100.061c21.565-22.393,43.92-33.747,66.442-33.747c22.523,0,44.877,11.354,66.442,33.747
							c22.395,23.254,42.66,56.919,60.233,100.061c17.882,43.901,31.942,95.138,41.788,152.287
							c10.238,59.421,15.429,122.575,15.429,187.709c0,65.133-5.191,128.288-15.429,187.709
							c-9.846,57.15-23.906,108.387-41.788,152.287c-17.573,43.141-37.838,76.807-60.233,100.062
							C872.175,1033.003,849.821,1044.357,827.298,1044.357L827.298,1044.357z"/>
					</g>
				</g>
				<g>
					<g>
						
							<linearGradient id="SVGID_4_" gradientUnits="userSpaceOnUse" x1="455.9913" y1="1086.2499" x2="1198.6045" y2="1086.2499" gradientTransform="matrix(1 0 0 -1 0 1656.8026)">
							<stop  offset="0" style="stop-color:#8A949B"/>
							<stop  offset="0.1629" style="stop-color:#FFFFFF"/>
							<stop  offset="0.3764" style="stop-color:#437A7F"/>
							<stop  offset="0.6685" style="stop-color:#FFFFFF"/>
							<stop  offset="1" style="stop-color:#64747E"/>
						</linearGradient>
						<path fill="url(#SVGID_4_)" d="M481.906,915.945c75.117,75.117,290.649-18.625,481.404-209.38s284.497-406.287,209.38-481.404
							c-75.117-75.117-290.649,18.626-481.404,209.38S406.789,840.827,481.906,915.945z M977.191,238.316
							c43.219-18.201,81.657-27.741,114.247-28.354c31.772-0.598,56.204,7.421,72.617,23.834s24.432,40.845,23.834,72.617
							c-0.613,32.589-10.153,71.028-28.354,114.247c-18.466,43.85-44.841,90.177-78.39,137.693
							c-34.858,49.37-75.935,97.805-122.089,143.958c-46.154,46.154-94.588,87.23-143.958,122.089
							c-47.516,33.55-93.843,59.924-137.693,78.39c-43.219,18.201-81.658,27.741-114.247,28.354
							c-31.772,0.598-56.204-7.421-72.617-23.834c-16.413-16.413-24.432-40.845-23.834-72.617
							c0.613-32.59,10.153-71.028,28.354-114.247c18.466-43.85,44.841-90.177,78.39-137.693
							c34.859-49.37,75.935-97.804,122.089-143.958c46.154-46.154,94.588-87.231,143.958-122.089
							C887.015,283.156,933.341,256.782,977.191,238.316z"/>
						
							<linearGradient id="SVGID_5_" gradientUnits="userSpaceOnUse" x1="453.55" y1="1086.25" x2="1201.0459" y2="1086.25" gradientTransform="matrix(1 0 0 -1 0 1656.8026)">
							<stop  offset="0" style="stop-color:#FFFFFF"/>
							<stop  offset="0.1" style="stop-color:#000000"/>
							<stop  offset="0.2" style="stop-color:#FFFFFF"/>
							<stop  offset="0.3" style="stop-color:#000000"/>
							<stop  offset="0.4" style="stop-color:#FFFFFF"/>
							<stop  offset="0.5" style="stop-color:#000000"/>
							<stop  offset="0.6" style="stop-color:#FFFFFF"/>
							<stop  offset="0.7" style="stop-color:#000000"/>
							<stop  offset="0.8" style="stop-color:#FFFFFF"/>
							<stop  offset="0.9" style="stop-color:#000000"/>
							<stop  offset="1" style="stop-color:#FFFFFF"/>
						</linearGradient>
						<path fill="url(#SVGID_5_)" d="M1098.976,199.246c30.85,0,56.131,8.332,73.714,25.915
							c75.117,75.117-18.626,290.649-209.38,481.404c-146.105,146.105-306.74,235.295-407.69,235.295
							c-30.85,0-56.131-8.332-73.714-25.915c-75.117-75.117,18.626-290.649,209.38-481.404
							C837.391,288.436,998.026,199.246,1098.976,199.246 M559.875,931.175c1.084,0,2.181-0.01,3.283-0.031
							c32.589-0.614,71.028-10.153,114.247-28.354c43.85-18.466,90.177-44.841,137.693-78.39
							c49.37-34.858,97.805-75.935,143.958-122.089c46.154-46.154,87.231-94.588,122.089-143.958
							c33.55-47.516,59.924-93.843,78.391-137.693c18.201-43.219,27.74-81.658,28.354-114.247
							c0.598-31.772-7.421-56.204-23.834-72.617c-15.844-15.844-39.156-23.866-69.334-23.865c-1.084,0-2.182,0.01-3.283,0.031
							c-32.59,0.613-71.028,10.153-114.247,28.354c-43.85,18.466-90.177,44.841-137.693,78.39
							c-49.37,34.858-97.804,75.935-143.958,122.089c-46.154,46.154-87.231,94.588-122.089,143.958
							c-33.549,47.517-59.924,93.843-78.39,137.693c-18.201,43.219-27.741,81.657-28.354,114.247
							c-0.598,31.772,7.421,56.204,23.834,72.617C506.385,923.154,529.696,931.175,559.875,931.175 M1098.976,196.804
							c-25.275,0-54.386,5.5-86.525,16.347c-31.764,10.721-65.947,26.477-101.598,46.832
							c-73.896,42.191-150.418,101.955-221.294,172.831c-46.722,46.722-88.447,95.655-124.014,145.438
							c-34.378,48.118-61.594,95.013-80.891,139.381c-19.352,44.493-29.778,84.241-30.988,118.14
							c-0.618,17.304,1.238,32.942,5.517,46.48c4.424,13.994,11.488,25.911,20.996,35.419c17.67,17.67,43.052,26.63,75.441,26.63
							c25.275,0,54.386-5.5,86.525-16.347c31.764-10.721,65.947-26.477,101.598-46.832
							c73.896-42.191,150.418-101.955,221.294-172.831c46.723-46.722,88.447-95.655,124.014-145.438
							c34.378-48.118,61.594-95.013,80.891-139.381c19.352-44.493,29.778-84.241,30.989-118.14
							c0.618-17.304-1.238-32.942-5.517-46.48c-4.424-13.994-11.488-25.911-20.996-35.419
							C1156.746,205.763,1131.365,196.804,1098.976,196.804L1098.976,196.804z M559.875,928.733c-29.5,0-52.246-7.789-67.607-23.15
							c-15.926-15.926-23.704-39.761-23.119-70.844c0.607-32.278,10.083-70.413,28.163-113.345
							c18.397-43.686,44.685-89.857,78.135-137.232c34.778-49.256,75.764-97.583,121.821-143.64
							c46.057-46.057,94.384-87.043,143.64-121.821c47.375-33.449,93.547-59.737,137.232-78.135
							c42.932-18.08,81.067-27.556,113.345-28.163c1.077-0.02,2.166-0.031,3.237-0.031c29.499-0.001,52.245,7.788,67.607,23.15
							c15.926,15.926,23.704,39.761,23.119,70.844c-0.608,32.278-10.083,70.413-28.163,113.345
							c-18.398,43.688-44.686,89.859-78.135,137.232c-34.778,49.256-75.764,97.583-121.821,143.64
							c-46.056,46.056-94.384,87.043-143.64,121.821c-47.373,33.448-93.544,59.737-137.232,78.135
							c-42.931,18.08-81.066,27.555-113.345,28.163C562.029,928.722,560.94,928.733,559.875,928.733L559.875,928.733z"/>
					</g>
				</g>
				<g>
					<g>
						
							<linearGradient id="SVGID_6_" gradientUnits="userSpaceOnUse" x1="338.8398" y1="1086.2499" x2="1315.756" y2="1086.2499" gradientTransform="matrix(1 0 0 -1 0 1656.8026)">
							<stop  offset="0" style="stop-color:#8A949B"/>
							<stop  offset="0.1629" style="stop-color:#FFFFFF"/>
							<stop  offset="0.3764" style="stop-color:#437A7F"/>
							<stop  offset="0.6685" style="stop-color:#FFFFFF"/>
							<stop  offset="1" style="stop-color:#64747E"/>
						</linearGradient>
						<path fill="url(#SVGID_6_)" d="M338.84,570.553c0,106.232,218.69,192.35,488.458,192.35s488.458-86.118,488.458-192.35
							s-218.69-192.35-488.458-192.35C557.53,378.203,338.84,464.321,338.84,570.553z M1168.216,441.616
							c43.431,17.69,77.356,38.124,100.834,60.735c22.889,22.043,34.495,44.99,34.495,68.201c0,23.212-11.606,46.158-34.495,68.201
							c-23.478,22.61-57.403,43.045-100.834,60.735c-44.064,17.949-95.472,32.057-152.794,41.933
							c-59.558,10.261-122.853,15.464-188.124,15.464s-128.565-5.203-188.124-15.464c-57.322-9.876-108.73-23.984-152.794-41.933
							c-43.431-17.691-77.356-38.125-100.834-60.735c-22.889-22.043-34.495-44.99-34.495-68.201
							c0-23.211,11.606-46.158,34.495-68.201c23.478-22.611,57.403-43.045,100.834-60.735
							c44.064-17.949,95.472-32.057,152.794-41.934c59.559-10.261,122.852-15.464,188.124-15.464
							c65.271,0,128.565,5.202,188.124,15.464C1072.744,409.559,1124.151,423.667,1168.216,441.616z"/>
						
							<linearGradient id="SVGID_7_" gradientUnits="userSpaceOnUse" x1="336.3976" y1="1086.2499" x2="1318.1984" y2="1086.2499" gradientTransform="matrix(1 0 0 -1 0 1656.8026)">
							<stop  offset="0" style="stop-color:#FFFFFF"/>
							<stop  offset="0.1" style="stop-color:#000000"/>
							<stop  offset="0.2" style="stop-color:#FFFFFF"/>
							<stop  offset="0.3" style="stop-color:#000000"/>
							<stop  offset="0.4" style="stop-color:#FFFFFF"/>
							<stop  offset="0.5" style="stop-color:#000000"/>
							<stop  offset="0.6" style="stop-color:#FFFFFF"/>
							<stop  offset="0.7" style="stop-color:#000000"/>
							<stop  offset="0.8" style="stop-color:#FFFFFF"/>
							<stop  offset="0.9" style="stop-color:#000000"/>
							<stop  offset="1" style="stop-color:#FFFFFF"/>
						</linearGradient>
						<path fill="url(#SVGID_7_)" d="M827.298,378.203c269.768,0,488.458,86.118,488.458,192.35s-218.69,192.35-488.458,192.35
							S338.84,676.784,338.84,570.553S557.53,378.203,827.298,378.203 M827.298,756.887c65.271,0,128.565-5.203,188.124-15.464
							c57.322-9.876,108.73-23.984,152.794-41.933c43.43-17.69,77.356-38.125,100.834-60.735
							c22.889-22.043,34.495-44.99,34.495-68.201c0-23.211-11.606-46.158-34.495-68.201
							c-23.478-22.611-57.403-43.045-100.834-60.735c-44.064-17.949-95.472-32.057-152.794-41.934
							c-59.558-10.261-122.853-15.464-188.124-15.464c-65.271,0-128.565,5.202-188.124,15.464
							c-57.322,9.876-108.73,23.984-152.794,41.934c-43.431,17.69-77.356,38.124-100.834,60.735
							c-22.889,22.043-34.495,44.99-34.495,68.201c0,23.212,11.606,46.158,34.495,68.201c23.478,22.61,57.403,43.045,100.834,60.735
							c44.064,17.949,95.472,32.057,152.794,41.933C698.733,751.684,762.027,756.887,827.298,756.887 M827.298,375.761
							c-66.076,0-130.179,5.097-190.531,15.149c-58.334,9.716-110.737,23.631-155.756,41.359
							c-45.145,17.778-80.623,38.511-105.45,61.626c-12.673,11.799-22.418,24.169-28.965,36.767
							c-6.767,13.023-10.199,26.445-10.199,39.891c0,13.447,3.431,26.868,10.199,39.891c6.547,12.598,16.292,24.969,28.965,36.767
							c24.827,23.114,60.305,43.848,105.45,61.625c45.018,17.728,97.422,31.643,155.756,41.359
							c60.352,10.052,124.456,15.149,190.531,15.149s130.179-5.097,190.531-15.149c58.334-9.716,110.738-23.631,155.756-41.359
							c45.145-17.778,80.623-38.511,105.45-61.625c12.673-11.799,22.418-24.169,28.965-36.767
							c6.767-13.023,10.199-26.445,10.199-39.891c0-13.447-3.432-26.868-10.199-39.891c-6.547-12.598-16.292-24.969-28.965-36.767
							c-24.827-23.114-60.305-43.848-105.45-61.626c-45.018-17.728-97.422-31.643-155.756-41.359
							C957.477,380.858,893.373,375.761,827.298,375.761L827.298,375.761z M827.298,754.444c-65.133,0-128.288-5.191-187.709-15.429
							c-57.15-9.846-108.386-23.906-152.287-41.788c-43.141-17.573-76.807-37.838-100.061-60.233
							c-22.393-21.565-33.747-43.919-33.747-66.442c0-22.523,11.354-44.877,33.747-66.442
							c23.254-22.395,56.919-42.66,100.061-60.233c43.899-17.882,95.136-31.942,152.287-41.789
							c59.42-10.237,122.575-15.428,187.709-15.428c65.134,0,128.289,5.191,187.709,15.428
							c57.152,9.847,108.388,23.907,152.287,41.789c43.142,17.573,76.808,37.838,100.061,60.233
							c22.393,21.565,33.747,43.919,33.747,66.442c0,22.523-11.354,44.877-33.747,66.442
							c-23.254,22.395-56.919,42.66-100.061,60.233c-43.901,17.882-95.138,31.942-152.287,41.788
							C955.586,749.253,892.432,754.444,827.298,754.444L827.298,754.444z"/>
					</g>
				</g>
				<g>
					<g>
						
							<linearGradient id="SVGID_8_" gradientUnits="userSpaceOnUse" x1="455.9913" y1="1086.2499" x2="1198.6045" y2="1086.2499" gradientTransform="matrix(1 0 0 -1 0 1656.8026)">
							<stop  offset="0" style="stop-color:#8A949B"/>
							<stop  offset="0.1629" style="stop-color:#FFFFFF"/>
							<stop  offset="0.3764" style="stop-color:#437A7F"/>
							<stop  offset="0.6685" style="stop-color:#FFFFFF"/>
							<stop  offset="1" style="stop-color:#64747E"/>
						</linearGradient>
						<path fill="url(#SVGID_8_)" d="M481.906,225.161c-75.117,75.117,18.626,290.649,209.38,481.404
							s406.287,284.497,481.404,209.38s-18.626-290.649-209.38-481.404S557.023,150.043,481.906,225.161z M1159.535,720.446
							c18.201,43.219,27.741,81.657,28.354,114.247c0.598,31.772-7.421,56.204-23.834,72.617
							c-16.413,16.413-40.845,24.432-72.617,23.834c-32.589-0.614-71.028-10.153-114.247-28.354
							c-43.85-18.466-90.177-44.841-137.693-78.39c-49.37-34.858-97.805-75.935-143.958-122.089s-87.23-94.588-122.089-143.958
							c-33.55-47.516-59.924-93.843-78.39-137.693c-18.201-43.219-27.741-81.657-28.354-114.247
							c-0.598-31.772,7.421-56.204,23.834-72.617c16.413-16.413,40.845-24.432,72.617-23.834
							c32.59,0.613,71.028,10.153,114.247,28.354c43.85,18.466,90.177,44.841,137.693,78.39
							c49.37,34.859,97.804,75.935,143.958,122.089c46.154,46.154,87.231,94.588,122.089,143.958
							C1114.694,630.27,1141.069,676.596,1159.535,720.446z"/>
						
							<linearGradient id="SVGID_9_" gradientUnits="userSpaceOnUse" x1="453.5499" y1="1086.25" x2="1201.0458" y2="1086.25" gradientTransform="matrix(1 0 0 -1 0 1656.8026)">
							<stop  offset="0" style="stop-color:#FFFFFF"/>
							<stop  offset="0.1" style="stop-color:#000000"/>
							<stop  offset="0.2" style="stop-color:#FFFFFF"/>
							<stop  offset="0.3" style="stop-color:#000000"/>
							<stop  offset="0.4" style="stop-color:#FFFFFF"/>
							<stop  offset="0.5" style="stop-color:#000000"/>
							<stop  offset="0.6" style="stop-color:#FFFFFF"/>
							<stop  offset="0.7" style="stop-color:#000000"/>
							<stop  offset="0.8" style="stop-color:#FFFFFF"/>
							<stop  offset="0.9" style="stop-color:#000000"/>
							<stop  offset="1" style="stop-color:#FFFFFF"/>
						</linearGradient>
						<path fill="url(#SVGID_9_)" d="M555.62,199.246c100.951,0,261.597,89.202,407.69,235.295
							c190.755,190.755,284.497,406.286,209.38,481.404c-17.587,17.587-42.852,25.915-73.714,25.915
							c-100.951,0-261.597-89.202-407.69-235.295C500.531,515.81,406.789,300.278,481.906,225.161
							C499.493,207.573,524.758,199.246,555.62,199.246 M1094.721,931.175c30.176,0,53.491-8.022,69.334-23.865
							c16.413-16.413,24.432-40.845,23.834-72.617c-0.613-32.59-10.153-71.028-28.354-114.247
							c-18.466-43.85-44.841-90.177-78.39-137.693c-34.858-49.37-75.936-97.804-122.089-143.958
							c-46.154-46.154-94.588-87.231-143.958-122.089c-47.517-33.549-93.843-59.924-137.693-78.39
							c-43.219-18.201-81.657-27.741-114.247-28.354c-1.103-0.021-2.197-0.031-3.283-0.031c-30.176,0-53.491,8.022-69.334,23.865
							c-16.413,16.413-24.432,40.845-23.834,72.617c0.614,32.589,10.153,71.028,28.354,114.247
							c18.466,43.85,44.841,90.176,78.39,137.693c34.858,49.37,75.935,97.805,122.089,143.958
							c46.154,46.154,94.588,87.231,143.958,122.089c47.516,33.55,93.843,59.924,137.693,78.39
							c43.219,18.201,81.657,27.74,114.247,28.354C1092.541,931.165,1093.635,931.175,1094.721,931.175 M555.62,196.804
							c-32.388,0-57.77,8.96-75.441,26.63c-9.508,9.508-16.572,21.425-20.996,35.419c-4.279,13.537-6.135,29.175-5.517,46.479
							c1.211,33.899,11.637,73.647,30.988,118.14c19.297,44.368,46.513,91.263,80.891,139.381
							c35.567,49.783,77.292,98.715,124.014,145.438c70.872,70.872,147.392,130.634,221.289,172.826
							c35.652,20.356,69.836,36.114,101.601,46.835c32.14,10.848,61.252,16.349,86.527,16.349c32.388,0,57.77-8.96,75.441-26.63
							c9.508-9.508,16.572-21.425,20.996-35.419c4.279-13.537,6.135-29.175,5.517-46.48c-1.211-33.899-11.637-73.647-30.989-118.14
							c-19.297-44.368-46.513-91.263-80.891-139.381c-35.567-49.783-77.292-98.715-124.014-145.438
							c-70.872-70.872-147.392-130.634-221.289-172.826c-35.652-20.356-69.836-36.114-101.601-46.835
							C610.006,202.304,580.894,196.804,555.62,196.804L555.62,196.804z M1094.721,928.733c-1.063,0-2.152-0.01-3.237-0.031
							c-32.278-0.608-70.413-10.083-113.345-28.163c-43.688-18.398-89.859-44.686-137.232-78.135
							c-49.256-34.778-97.583-75.764-143.64-121.821c-46.056-46.056-87.042-94.383-121.821-143.64
							c-33.448-47.373-59.737-93.545-78.134-137.232c-18.08-42.931-27.555-81.066-28.163-113.345
							c-0.585-31.083,7.193-54.918,23.119-70.844c15.361-15.361,38.107-23.15,67.607-23.15c1.063,0,2.152,0.01,3.237,0.031
							c32.278,0.607,70.413,10.083,113.345,28.163c43.686,18.397,89.858,44.685,137.233,78.135
							c49.256,34.778,97.583,75.764,143.64,121.821c46.057,46.057,87.044,94.385,121.821,143.64
							c33.45,47.375,59.738,93.547,78.134,137.232c18.081,42.932,27.556,81.067,28.163,113.345
							c0.585,31.083-7.193,54.918-23.119,70.844C1146.967,920.944,1124.221,928.733,1094.721,928.733L1094.721,928.733z"/>
					</g>
				</g>
				<g>
					<g>
						
							<linearGradient id="SVGID_10_" gradientUnits="userSpaceOnUse" x1="634.9483" y1="1086.2499" x2="1019.6476" y2="1086.2499" gradientTransform="matrix(1 0 0 -1 0 1656.8026)">
							<stop  offset="0" style="stop-color:#8A949B"/>
							<stop  offset="0.1629" style="stop-color:#FFFFFF"/>
							<stop  offset="0.3764" style="stop-color:#437A7F"/>
							<stop  offset="0.6685" style="stop-color:#FFFFFF"/>
							<stop  offset="1" style="stop-color:#64747E"/>
						</linearGradient>
						<path fill="url(#SVGID_10_)" d="M827.298,82.095c-106.232,0-192.35,218.69-192.35,488.458s86.118,488.458,192.35,488.458
							s192.35-218.69,192.35-488.458S933.53,82.095,827.298,82.095z M956.234,911.47c-17.69,43.431-38.124,77.356-60.735,100.834
							c-22.043,22.889-44.99,34.495-68.201,34.495c-23.211,0-46.158-11.606-68.201-34.495
							c-22.61-23.478-43.045-57.403-60.735-100.834c-17.949-44.064-32.057-95.472-41.933-152.794
							c-10.261-59.558-15.464-122.853-15.464-188.124s5.203-128.565,15.464-188.124c9.876-57.322,23.984-108.73,41.933-152.794
							c17.69-43.431,38.125-77.356,60.735-100.834c22.043-22.889,44.99-34.495,68.201-34.495c23.212,0,46.158,11.606,68.201,34.495
							c22.611,23.478,43.045,57.403,60.735,100.834c17.949,44.064,32.057,95.472,41.934,152.794
							c10.261,59.559,15.464,122.852,15.464,188.124c0,65.271-5.202,128.565-15.464,188.124
							C988.291,815.999,974.184,867.406,956.234,911.47z"/>
						
							<linearGradient id="SVGID_11_" gradientUnits="userSpaceOnUse" x1="632.5062" y1="1086.2499" x2="1022.0898" y2="1086.2499" gradientTransform="matrix(1 0 0 -1 0 1656.8026)">
							<stop  offset="0" style="stop-color:#FFFFFF"/>
							<stop  offset="0.1" style="stop-color:#000000"/>
							<stop  offset="0.2" style="stop-color:#FFFFFF"/>
							<stop  offset="0.3" style="stop-color:#000000"/>
							<stop  offset="0.4" style="stop-color:#FFFFFF"/>
							<stop  offset="0.5" style="stop-color:#000000"/>
							<stop  offset="0.6" style="stop-color:#FFFFFF"/>
							<stop  offset="0.7" style="stop-color:#000000"/>
							<stop  offset="0.8" style="stop-color:#FFFFFF"/>
							<stop  offset="0.9" style="stop-color:#000000"/>
							<stop  offset="1" style="stop-color:#FFFFFF"/>
						</linearGradient>
						<path fill="url(#SVGID_11_)" d="M827.298,82.095c106.232,0,192.35,218.69,192.35,488.458s-86.118,488.458-192.35,488.458
							s-192.35-218.69-192.35-488.458S721.066,82.095,827.298,82.095 M827.298,1046.799c23.212,0,46.158-11.606,68.201-34.495
							c22.611-23.478,43.045-57.403,60.735-100.834c17.949-44.064,32.057-95.472,41.934-152.794
							c10.261-59.558,15.464-122.853,15.464-188.124c0-65.271-5.202-128.565-15.464-188.124
							c-9.876-57.322-23.984-108.73-41.934-152.794c-17.69-43.431-38.124-77.356-60.735-100.834
							c-22.043-22.889-44.99-34.495-68.201-34.495s-46.158,11.606-68.201,34.495c-22.61,23.478-43.045,57.403-60.735,100.834
							c-17.949,44.064-32.057,95.471-41.933,152.794c-10.261,59.559-15.464,122.853-15.464,188.124s5.203,128.565,15.464,188.124
							c9.876,57.322,23.984,108.73,41.933,152.794c17.69,43.43,38.125,77.356,60.735,100.834
							C781.14,1035.194,804.086,1046.799,827.298,1046.799 M827.298,79.652c-13.447,0-26.868,3.431-39.891,10.199
							c-12.598,6.547-24.969,16.292-36.768,28.965c-23.114,24.827-43.848,60.305-61.625,105.45
							c-17.728,45.018-31.643,97.422-41.359,155.756c-10.052,60.352-15.149,124.456-15.149,190.531
							c0,66.075,5.097,130.179,15.149,190.531c9.716,58.334,23.631,110.738,41.359,155.756
							c17.778,45.145,38.511,80.623,61.625,105.45c11.799,12.673,24.169,22.418,36.768,28.965
							c13.023,6.767,26.445,10.199,39.891,10.199c13.447,0,26.868-3.431,39.891-10.199c12.598-6.547,24.969-16.292,36.767-28.965
							c23.114-24.827,43.848-60.305,61.625-105.45c17.728-45.018,31.643-97.422,41.359-155.756
							c10.052-60.352,15.149-124.456,15.149-190.531c0-66.076-5.097-130.179-15.149-190.531
							c-9.716-58.334-23.631-110.738-41.359-155.756c-17.778-45.145-38.511-80.623-61.625-105.45
							c-11.799-12.673-24.169-22.418-36.767-28.965C854.166,83.084,840.745,79.652,827.298,79.652L827.298,79.652z
							 M827.298,1044.357c-22.523,0-44.877-11.354-66.442-33.747c-22.395-23.254-42.66-56.919-60.233-100.061
							c-17.882-43.901-31.942-95.138-41.788-152.287c-10.238-59.421-15.429-122.575-15.429-187.709
							c0-65.133,5.191-128.288,15.429-187.709c9.846-57.15,23.906-108.386,41.788-152.287
							c17.573-43.141,37.838-76.807,60.233-100.062c21.565-22.393,43.919-33.747,66.442-33.747
							c22.523,0,44.877,11.354,66.442,33.747c22.395,23.254,42.66,56.919,60.233,100.061
							c17.882,43.899,31.942,95.136,41.789,152.287c10.237,59.42,15.428,122.575,15.428,187.709
							c0,65.134-5.191,128.289-15.428,187.709c-9.847,57.151-23.907,108.388-41.789,152.287
							c-17.573,43.142-37.838,76.808-60.233,100.061C872.175,1033.003,849.82,1044.357,827.298,1044.357L827.298,1044.357z"/>
					</g>
				</g>
			</g>
			<g>
				
					<linearGradient id="SVGID_12_" gradientUnits="userSpaceOnUse" x1="827.2979" y1="992.6735" x2="827.2979" y2="1179.8263" gradientTransform="matrix(1 0 0 -1 0 1656.8026)">
					<stop  offset="0" style="stop-color:#FFFFFF"/>
					<stop  offset="0.0074" style="stop-color:#F6F6F6"/>
					<stop  offset="0.0477" style="stop-color:#C8C8C8"/>
					<stop  offset="0.0931" style="stop-color:#9D9D9D"/>
					<stop  offset="0.1419" style="stop-color:#777777"/>
					<stop  offset="0.195" style="stop-color:#575757"/>
					<stop  offset="0.2537" style="stop-color:#3B3B3B"/>
					<stop  offset="0.32" style="stop-color:#252525"/>
					<stop  offset="0.3974" style="stop-color:#141414"/>
					<stop  offset="0.4931" style="stop-color:#090909"/>
					<stop  offset="0.6274" style="stop-color:#020202"/>
					<stop  offset="1" style="stop-color:#000000"/>
				</linearGradient>
				
					<linearGradient id="SVGID_13_" gradientUnits="userSpaceOnUse" x1="827.2979" y1="991.4523" x2="827.2979" y2="1181.0475" gradientTransform="matrix(1 0 0 -1 0 1656.8026)">
					<stop  offset="0" style="stop-color:#E5E5E5"/>
					<stop  offset="0.03" style="stop-color:#999999"/>
					<stop  offset="0.08" style="stop-color:#333333"/>
					<stop  offset="0.14" style="stop-color:#666666"/>
					<stop  offset="0.29" style="stop-color:#D9D1D1"/>
					<stop  offset="0.33" style="stop-color:#FFFFFF"/>
					<stop  offset="0.51" style="stop-color:#393838"/>
					<stop  offset="0.6" style="stop-color:#4C4C4C"/>
					<stop  offset="0.65" style="stop-color:#909092"/>
					<stop  offset="0.77" style="stop-color:#909092"/>
					<stop  offset="0.82" style="stop-color:#FFFFFF"/>
					<stop  offset="0.89" style="stop-color:#909092"/>
					<stop  offset="0.98" style="stop-color:#E5E5E5"/>
				</linearGradient>
				
					<circle fill="url(#SVGID_12_)" stroke="url(#SVGID_13_)" stroke-width="2.4423" stroke-miterlimit="10" cx="827.298" cy="570.553" r="93.576"/>
				<defs>
					<filter id="Adobe_OpacityMaskFilter" filterUnits="userSpaceOnUse" x="739.827" y="481.294" width="174.941" height="123.702">
						<feColorMatrix  type="matrix" values="1 0 0 0 0  0 1 0 0 0  0 0 1 0 0  0 0 0 1 0"/>
					</filter>
				</defs>
				<mask maskUnits="userSpaceOnUse" x="739.827" y="481.294" width="174.941" height="123.702" id="SVGID_1_">
					<g filter="url(#Adobe_OpacityMaskFilter)">
						
							<linearGradient id="SVGID_14_" gradientUnits="userSpaceOnUse" x1="827.2978" y1="1175.509" x2="827.2978" y2="1051.8068" gradientTransform="matrix(1 0 0 -1 0 1656.8026)">
							<stop  offset="0" style="stop-color:#FFFFFF"/>
							<stop  offset="1" style="stop-color:#000000"/>
						</linearGradient>
						<path fill="url(#SVGID_14_)" d="M914.769,568.764c0-48.309-39.162-87.471-87.471-87.471
							c-48.309,0-87.471,39.162-87.471,87.471C739.827,617.073,914.769,617.073,914.769,568.764z"/>
					</g>
				</mask>
				<path mask="url(#SVGID_1_)" fill="#FFFFFF" d="M914.769,568.764c0-48.309-39.162-87.471-87.471-87.471
					c-48.309,0-87.471,39.162-87.471,87.471C739.827,617.073,914.769,617.073,914.769,568.764z"/>
			</g>
		</g>
	</g>
</g>
</svg>
