<svg width="244" height="348" viewBox="0 0 244 348" fill="none" xmlns="http://www.w3.org/2000/svg">
<g clip-path="url(#clip0_54_2)">
<path d="M160.025 271.68V336.657C160.025 339.545 158.977 342.071 156.879 344.237C154.782 346.403 152.335 347.486 149.539 347.486H86.6235C83.8273 347.486 81.3805 346.403 79.2834 344.237C77.1862 342.071 76.1376 339.545 76.1376 336.657V271.68C76.1376 268.792 77.1862 266.265 79.2834 264.099C81.3805 261.933 83.8273 260.85 86.6235 260.85H149.539C152.335 260.85 154.782 261.933 156.879 264.099C158.977 266.265 160.025 268.792 160.025 271.68ZM242.864 109.237C242.864 118.984 241.51 128.098 238.801 136.581C236.092 145.065 233.033 151.968 229.626 157.293C226.218 162.617 221.412 167.987 215.207 173.402C209.003 178.817 203.979 182.742 200.134 185.179C196.289 187.616 190.959 190.819 184.143 194.79C176.977 198.941 170.992 204.807 166.186 212.388C161.38 219.969 158.977 226.015 158.977 230.527C158.977 233.596 157.928 236.529 155.831 239.326C153.734 242.124 151.287 243.523 148.491 243.523H85.5749C82.9534 243.523 80.7252 241.853 78.8901 238.514C77.0551 235.175 76.1376 231.791 76.1376 228.362V216.178C76.1376 201.198 81.8175 187.074 93.1772 173.808C104.537 160.542 117.033 150.75 130.664 144.433C140.976 139.56 148.316 134.506 152.685 129.272C157.054 124.037 159.239 117.179 159.239 108.696C159.239 101.115 155.175 94.4366 147.049 88.6609C138.922 82.8852 129.528 79.9973 118.868 79.9973C107.508 79.9973 98.0707 82.6144 90.5557 87.8487C84.4389 92.361 75.089 102.739 62.5059 118.984C60.2339 121.871 57.525 123.315 54.3792 123.315C52.2821 123.315 50.0975 122.593 47.8255 121.149L4.83317 87.3072C2.56122 85.5023 1.20679 83.2462 0.769871 80.5388C0.332957 77.8314 0.813563 75.3045 2.21169 72.9581C30.1742 24.9473 70.7198 0.941895 123.849 0.941895C137.83 0.941895 151.898 3.73952 166.055 9.33476C180.211 14.93 192.968 22.4204 204.328 31.806C215.688 41.1916 224.951 52.6979 232.116 66.3251C239.281 79.9522 242.864 94.2562 242.864 109.237Z" fill="black"/>
</g>
<defs>
<clipPath id="clip0_54_2">
<rect width="243.274" height="346.544" fill="white" transform="translate(0.638794 0.941895)"/>
</clipPath>
</defs>
</svg>
