<svg width="46" height="52" viewBox="0 0 46 52" fill="none" xmlns="http://www.w3.org/2000/svg">
<path d="M21.2886 25.75C27.3867 25.75 32.3302 20.4334 32.3302 13.875C32.3302 7.31662 27.3867 2 21.2886 2C15.1904 2 10.2469 7.31662 10.2469 13.875C10.2469 20.4334 15.1904 25.75 21.2886 25.75Z" stroke="black" stroke-width="4"/>
<path d="M32.3302 49.5H6.41763C5.79131 49.5001 5.17212 49.357 4.60115 49.0801C4.03019 48.8033 3.52052 48.3989 3.10596 47.894C2.6914 47.3891 2.38143 46.7951 2.19663 46.1515C2.01183 45.5079 1.95642 44.8294 2.03409 44.161L2.89534 36.7415C3.09563 35.0178 3.87455 33.4321 5.08563 32.2827C6.29672 31.1333 7.85653 30.4993 9.47175 30.5H10.2469M36.7469 28.125V42.375M30.1219 35.25H43.3719" stroke="black" stroke-width="4" stroke-linecap="round" stroke-linejoin="round"/>
</svg>
