<svg width="414" height="306" viewBox="0 0 414 306" fill="none" xmlns="http://www.w3.org/2000/svg">
<g clip-path="url(#clip0_17_14)">
<path d="M48.486 284.282C58.8045 283.478 69.1229 282.673 81.3682 281.685C78.9957 278.638 77.4965 276.495 75.3761 274.5C32.8951 231.566 29.6665 175.608 66.4918 123.678C90.3833 90.4205 124.445 68.0741 164.305 50.7341C208.946 31.414 255.006 27.6053 301.655 33.1104C325.664 35.9771 345.963 45.2947 364.345 57.5747C369.081 60.8891 373.506 64.278 377.378 69.4681C373.894 68.6347 369.851 68.2131 367.42 66.2929C305.72 21.2905 188.503 35.2013 115.072 92.0118C86.2328 114.219 67.1089 141.328 59.3164 173.23C50.2364 210.724 67.907 252.93 101.798 273.729C104.553 260.555 95.9271 246.493 109.5 233.228C112.913 250.208 116.258 265.536 119.23 280.675C120.117 285.747 117.956 290.436 112.049 290.461C91.7814 290.869 71.6982 290.677 51.8626 290.147C50.557 290.182 49.3684 287.964 48.1214 286.872C47.6847 286.421 48.0538 285.22 48.486 284.282Z" fill="black"/>
</g>
<defs>
<clipPath id="clip0_17_14">
<rect width="370.944" height="224.764" fill="white" transform="translate(0 86.4564) rotate(-13.4779)"/>
</clipPath>
</defs>
</svg>
