<svg width="236" height="62" viewBox="0 0 236 62" fill="none" xmlns="http://www.w3.org/2000/svg">
<path d="M0.392064 42.4665C0.995755 40.4455 0.864051 38.3838 1.95133 36.5105C3.57558 33.8209 5.6901 31.1585 8.7718 28.7914C27.5338 14.1201 54.1583 3.99318 89.479 1.11534C125.535 -1.72178 159.15 4.00695 186.646 18.0979C200.517 25.1502 210.882 33.3377 218.75 42.2328C220.134 43.8805 221.524 45.4077 224.081 48.0871C227.461 44.7697 230.059 42.2549 232.664 39.6196C233.393 39.7808 234.128 39.8216 235.102 39.9963C235.3 40.8533 235.989 41.7373 235.697 42.5671C234.728 46.7431 233.514 50.9056 232.3 55.068C231.411 57.7983 230.761 60.6627 224.566 61.5281C218.119 62.5004 212.826 60.3945 208.772 58.1156C203.294 54.9119 198.327 51.3739 193.604 47.8494C192.664 47.0723 193.718 45.8013 193.778 44.717C195.984 44.8392 198.7 44.6271 200.145 45.1904C204.47 47.001 208.04 49.1323 212.101 51.2907C212.366 50.9429 212.87 50.7291 212.631 50.595C194.979 23.0308 156.632 5.076 100.588 4.75178C97.8852 4.72293 95.1754 4.81455 92.4522 5.14714C54.6201 8.97354 26.2864 18.885 8.39815 35.5382C6.0652 37.7051 4.93788 40.3013 3.32697 42.7499C2.34644 42.6956 1.37259 42.5208 0.392064 42.4665Z" fill="black"/>
</svg>
