<svg width="235" height="58" viewBox="0 0 235 58" fill="none" xmlns="http://www.w3.org/2000/svg">
<path d="M209.063 33.0149C136.161 64.1053 67.9518 58.9929 0.783064 21.3302C6.48155 14.8726 10.5187 17.9191 13.6721 19.5497C38.046 30.8478 63.9253 34.2926 89.5212 38.0438C126.402 43.5275 162.514 35.6126 198.524 20.6921C200.099 20.1747 201.485 18.973 204.761 16.6174C187.798 10.3505 169.65 16.6313 155.394 5.95608C155.771 4.65911 155.927 3.00805 156.304 1.71108C167.745 1.79269 179.438 1.89813 190.91 1.64955C202.382 1.40096 213.633 0.79841 225.074 0.880025C233.458 1.00592 236.489 6.62267 232.527 16.2427C227.528 28.7631 221.109 40.1499 215.164 51.9145C214.535 53.1877 213.622 54.7672 212.551 55.3323C209.653 56.391 206.848 56.4592 203.728 57.1638C203.536 53.8142 202.618 50.0629 203.151 47.1149C204.03 43.2002 206.107 40.0649 209.063 33.0149Z" fill="black"/>
</svg>
