<svg width="257" height="72" viewBox="0 0 257 72" fill="none" xmlns="http://www.w3.org/2000/svg">
<path d="M3.71262 1.1573L3.76809 0.158844L2.76963 0.103373L2.71416 1.10183L3.71262 1.1573ZM26.6994 5.63929L25.9457 6.29666L25.9542 6.30609L26.6994 5.63929ZM27.3251 24.6633L26.4686 24.1471L26.4626 24.1571L26.4568 24.1672L27.3251 24.6633ZM22.8742 28.3421L22.5413 27.3991L21.9127 27.621L21.8757 28.2866L22.8742 28.3421ZM22.8653 28.5018L21.8668 28.4463L21.8272 29.1605L22.4902 29.4288L22.8653 28.5018ZM24.5161 55.0342L25.1829 55.7795L24.5161 55.0342ZM0.606266 57.0711L-0.392195 57.0156L-0.447665 58.0141L0.550795 58.0695L0.606266 57.0711ZM18.6584 23.4607L17.9917 22.7155L17.9804 22.7256L17.9694 22.736L18.6584 23.4607ZM19.5682 11.4126L18.7413 11.9751L18.7515 11.99L18.7622 12.0045L19.5682 11.4126ZM12.0553 9.63313L12.1108 8.63467L11.1123 8.5792L11.0568 9.57766L12.0553 9.63313ZM11.2343 24.4103L10.2359 24.3549L10.1804 25.3533L11.1789 25.4088L11.2343 24.4103ZM18.37 48.8438L19.0621 49.5656L19.0737 49.5545L19.0849 49.543L18.37 48.8438ZM18.9336 34.3728L18.1341 34.9735L18.1512 34.9962L18.1696 35.018L18.9336 34.3728ZM10.7906 32.398L10.846 31.3996L9.84758 31.3441L9.79211 32.3426L10.7906 32.398ZM9.83648 49.5715L8.83802 49.5161L8.78255 50.5145L9.78101 50.57L9.83648 49.5715ZM3.65715 2.15576L16.9167 2.89241L17.0276 0.895493L3.76809 0.158844L3.65715 2.15576ZM16.9167 2.89241C21.3123 3.13662 24.2386 4.33932 25.9458 6.2966L27.453 4.98199C25.2432 2.44842 21.6847 1.15422 17.0276 0.895493L16.9167 2.89241ZM25.9542 6.30609C27.6686 8.22219 28.5142 11.1924 28.2792 15.422L30.2761 15.5329C30.5263 11.0293 29.6531 7.44075 27.4446 4.9725L25.9542 6.30609ZM28.2792 15.422L28.1549 17.6585L30.1518 17.7695L30.2761 15.5329L28.2792 15.422ZM28.1549 17.6585C28.0008 20.4332 27.4164 22.5744 26.4686 24.1471L28.1816 25.1795C29.3519 23.2376 29.9865 20.7459 30.1518 17.7695L28.1549 17.6585ZM26.4568 24.1672C25.5734 25.7132 24.2829 26.7844 22.5413 27.3991L23.207 29.2851C25.3883 28.5152 27.0651 27.1339 28.1933 25.1594L26.4568 24.1672ZM21.8757 28.2866L21.8668 28.4463L23.8638 28.5573L23.8726 28.3975L21.8757 28.2866ZM22.4902 29.4288C24.4127 30.2068 25.7847 31.474 26.6559 33.2491C27.5393 35.0492 27.9376 37.4354 27.7688 40.4722L29.7658 40.5832C29.9461 37.3364 29.5352 34.5765 28.4513 32.3679C27.3552 30.1344 25.6017 28.5304 23.2404 27.5748L22.4902 29.4288ZM27.7688 40.4722L27.5026 45.2649L29.4995 45.3758L29.7658 40.5832L27.7688 40.4722ZM27.5026 45.2649C27.2726 49.4043 26.0098 52.3559 23.8493 54.289L25.1829 55.7795C27.8563 53.3874 29.2502 49.8631 29.4995 45.3758L27.5026 45.2649ZM23.8493 54.289C21.7515 56.1659 18.685 57.0739 14.4804 56.8403L14.3695 58.8373C18.8981 59.0888 22.559 58.1271 25.1829 55.7795L23.8493 54.289ZM14.4804 56.8403L0.661736 56.0726L0.550795 58.0695L14.3695 58.8373L14.4804 56.8403ZM1.60473 57.1266L4.71108 1.21277L2.71416 1.10183L-0.392195 57.0156L1.60473 57.1266ZM14.6136 25.5996C16.5299 25.7061 18.1743 25.3009 19.3475 24.1854L17.9694 22.736C17.338 23.3364 16.3227 23.6915 14.7245 23.6027L14.6136 25.5996ZM19.3252 24.2059C20.5752 23.0876 21.144 21.2672 21.2678 19.0386L19.2708 18.9277C19.158 20.9593 18.6529 22.1238 17.9917 22.7155L19.3252 24.2059ZM21.2678 19.0386L21.4408 15.9234L19.4439 15.8125L19.2708 18.9277L21.2678 19.0386ZM21.4408 15.9234C21.5577 13.8206 21.2758 12.0485 20.3742 10.8207L18.7622 12.0045C19.251 12.6701 19.5519 13.8682 19.4439 15.8125L21.4408 15.9234ZM20.395 10.8502C19.5204 9.56441 18.0809 8.96634 16.3442 8.86986L16.2333 10.8668C17.5852 10.9419 18.332 11.3734 18.7413 11.9751L20.395 10.8502ZM16.3442 8.86986L12.1108 8.63467L11.9998 10.6316L16.2333 10.8668L16.3442 8.86986ZM11.0568 9.57766L10.2359 24.3549L12.2328 24.4658L13.0538 9.6886L11.0568 9.57766ZM11.1789 25.4088L14.6136 25.5996L14.7245 23.6027L11.2898 23.4119L11.1789 25.4088ZM14.8133 50.8496C16.5173 50.9442 18.0009 50.5831 19.0621 49.5656L17.6779 48.122C17.1593 48.6192 16.3087 48.9296 14.9242 48.8527L14.8133 50.8496ZM19.0849 49.543C20.1374 48.4669 20.61 46.7422 20.7264 44.648L18.7294 44.5371C18.6209 46.49 18.1883 47.5994 17.6551 48.1445L19.0849 49.543ZM20.7264 44.648L20.9971 39.7755L19.0001 39.6646L18.7294 44.5371L20.7264 44.648ZM20.9971 39.7755C21.1416 37.1738 20.8124 35.0475 19.6976 33.7275L18.1696 35.018C18.7588 35.7156 19.1396 37.1543 19.0001 39.6646L20.9971 39.7755ZM19.733 33.772C18.6833 32.375 16.9208 31.7371 14.76 31.617L14.6491 33.6139C16.5354 33.7187 17.5922 34.2523 18.1341 34.9735L19.733 33.772ZM14.76 31.617L10.846 31.3996L10.7351 33.3965L14.6491 33.6139L14.76 31.617ZM9.79211 32.3426L8.83802 49.5161L10.8349 49.627L11.789 32.4535L9.79211 32.3426ZM9.78101 50.57L14.8133 50.8496L14.9242 48.8527L9.89195 48.5731L9.78101 50.57ZM36.0066 2.95143L36.062 1.95297L35.0636 1.8975L35.0081 2.89596L36.0066 2.95143ZM44.793 3.43957L45.7915 3.49504L45.8469 2.49658L44.8485 2.44111L44.793 3.43957ZM41.6867 59.3534L41.6312 60.3518L42.6297 60.4073L42.6851 59.4088L41.6867 59.3534ZM32.9002 58.8652L31.9018 58.8097L31.8463 59.8082L32.8447 59.8637L32.9002 58.8652ZM35.9511 3.94989L44.7375 4.43803L44.8485 2.44111L36.062 1.95297L35.9511 3.94989ZM43.7946 3.3841L40.6882 59.2979L42.6851 59.4088L45.7915 3.49504L43.7946 3.3841ZM41.7421 58.3549L32.9557 57.8667L32.8447 59.8637L41.6312 60.3518L41.7421 58.3549ZM33.8987 58.9207L37.005 3.0069L35.0081 2.89596L31.9018 58.8097L33.8987 58.9207ZM51.1383 57.0741L50.3635 57.7064L50.3705 57.7148L51.1383 57.0741ZM53.9296 6.8316L54.6217 7.55347L54.6295 7.5458L53.9296 6.8316ZM73.4195 7.91439L72.6447 8.54669L72.6517 8.5551L73.4195 7.91439ZM75.9312 23.2774L75.8757 24.2758L76.8742 24.3313L76.9296 23.3328L75.9312 23.2774ZM67.624 22.8159L66.6255 22.7604L66.57 23.7588L67.5685 23.8143L67.624 22.8159ZM66.8296 37.1138L67.8281 37.1693L67.8836 36.1708L66.8851 36.1153L66.8296 37.1138ZM62.4364 36.8697L61.438 36.8143L61.3825 37.8127L62.3809 37.8682L62.4364 36.8697ZM62.8802 28.882L62.9357 27.8836L61.9372 27.8281L61.8817 28.8266L62.8802 28.882ZM75.5806 29.5876L76.5791 29.6431L76.6345 28.6446L75.6361 28.5892L75.5806 29.5876ZM70.6282 58.1569L71.3203 58.8788L71.3282 58.8711L70.6282 58.1569ZM60.739 60.2115C56.6683 59.9854 53.7826 58.6822 51.9061 56.4334L50.3705 57.7148C52.7007 60.5072 56.1786 61.9612 60.6281 62.2084L60.739 60.2115ZM51.913 56.4419C50.0201 54.1224 49.1205 50.8484 49.3632 46.4794L47.3663 46.3684C47.1061 51.0521 48.0555 54.8782 50.3635 57.7064L51.913 56.4419ZM49.3632 46.4794L50.9963 17.0847L48.9994 16.9737L47.3663 46.3684L49.3632 46.4794ZM50.9963 17.0847C51.2391 12.714 52.4947 9.59274 54.6216 7.55342L53.2375 6.10978C50.6251 8.61457 49.2595 12.2917 48.9994 16.9737L50.9963 17.0847ZM54.6295 7.5458C56.7479 5.46961 59.7589 4.47133 63.8232 4.69712L63.9341 2.7002C59.4782 2.45265 55.8564 3.54299 53.2296 6.11741L54.6295 7.5458ZM63.8232 4.69712C67.8874 4.92292 70.7693 6.24859 72.6447 8.54665L74.1942 7.28212C71.8688 4.43257 68.3901 2.94776 63.9341 2.7002L63.8232 4.69712ZM72.6517 8.5551C74.5397 10.8175 75.4418 14.0586 75.199 18.4293L77.1959 18.5402C77.456 13.8582 76.5062 10.0524 74.1873 7.27367L72.6517 8.5551ZM75.199 18.4293L74.9327 23.2219L76.9296 23.3328L77.1959 18.5402L75.199 18.4293ZM75.9866 22.2789L67.6794 21.8174L67.5685 23.8143L75.8757 24.2758L75.9866 22.2789ZM68.6224 22.8713L68.9198 17.5196L66.9228 17.4086L66.6255 22.7604L68.6224 22.8713ZM68.9198 17.5196C69.0281 15.57 68.7209 13.8999 67.8178 12.6741C66.8866 11.4101 65.4571 10.7972 63.73 10.7012L63.6191 12.6981C64.9272 12.7708 65.7232 13.2029 66.2076 13.8604C66.7201 14.556 67.0187 15.6839 66.9228 17.4086L68.9198 17.5196ZM63.73 10.7012C62.0028 10.6052 60.5143 11.0561 59.4488 12.2092C58.4155 13.3274 57.9252 14.9531 57.8169 16.9027L59.8138 17.0137C59.9096 15.289 60.3313 14.2011 60.9177 13.5665C61.4719 12.9667 62.3109 12.6254 63.6191 12.6981L63.73 10.7012ZM57.8169 16.9027L56.1173 47.4956L58.1142 47.6065L59.8138 17.0137L57.8169 16.9027ZM56.1173 47.4956C56.0103 49.4213 56.3196 51.0738 57.2268 52.2869C58.1605 53.5353 59.5891 54.1384 61.3115 54.2341L61.4224 52.2371C60.1095 52.1642 59.3119 51.7355 58.8285 51.0891C58.3186 50.4074 58.02 49.3019 58.1142 47.6065L56.1173 47.4956ZM61.3115 54.2341C63.0338 54.3298 64.5205 53.8887 65.5867 52.7513C66.6227 51.6462 67.1132 50.0381 67.2201 48.1124L65.2232 48.0015C65.129 49.6968 64.7098 50.7624 64.1276 51.3835C63.5755 51.9724 62.7354 52.3101 61.4224 52.2371L61.3115 54.2341ZM67.2201 48.1124L67.8281 37.1693L65.8312 37.0583L65.2232 48.0015L67.2201 48.1124ZM66.8851 36.1153L62.4919 35.8713L62.3809 37.8682L66.7742 38.1123L66.8851 36.1153ZM63.4349 36.9252L63.8786 28.9375L61.8817 28.8266L61.438 36.8143L63.4349 36.9252ZM62.8247 29.8805L75.5251 30.5861L75.6361 28.5892L62.9357 27.8836L62.8247 29.8805ZM74.5821 29.5322L73.5659 47.824L75.5628 47.9349L76.5791 29.6431L74.5821 29.5322ZM73.5659 47.824C73.3232 52.193 72.0664 55.3472 69.9283 57.4427L71.3282 58.8711C73.9353 56.316 75.3026 52.6186 75.5628 47.9349L73.5659 47.824ZM69.9361 57.4351C67.822 59.4621 64.8098 60.4377 60.739 60.2115L60.6281 62.2084C65.0775 62.4556 68.6951 61.3958 71.3203 58.8787L69.9361 57.4351ZM95.3681 6.24933L95.4236 5.25087L94.4252 5.1954L94.3697 6.19386L95.3681 6.24933ZM117.938 11.0286L117.169 11.6687L117.169 11.6687L117.938 11.0286ZM116.487 37.1484L115.794 36.4271L115.794 36.4271L116.487 37.1484ZM102.313 39.8864L102.368 38.8879L101.37 38.8324L101.315 39.8309L102.313 39.8864ZM101.048 62.6512L100.993 63.6497L101.991 63.7052L102.047 62.7067L101.048 62.6512ZM92.2618 62.1631L91.2633 62.1076L91.2079 63.1061L92.2063 63.1616L92.2618 62.1631ZM110.172 31.1088L109.48 30.387L109.467 30.3997L109.454 30.4129L110.172 31.1088ZM110.993 16.3316L110.202 16.9436L110.213 16.9581L110.225 16.9723L110.993 16.3316ZM103.711 14.7252L103.766 13.7267L102.768 13.6712L102.712 14.6697L103.711 14.7252ZM102.757 31.8987L101.758 31.8432L101.703 32.8417L102.701 32.8971L102.757 31.8987ZM95.3127 7.24779L108.253 7.96669L108.364 5.96977L95.4236 5.25087L95.3127 7.24779ZM108.253 7.96669C112.447 8.19968 115.351 9.4864 117.169 11.6687L118.706 10.3885C116.418 7.64218 112.903 6.22195 108.364 5.96977L108.253 7.96669ZM117.169 11.6687C119.004 13.871 119.885 17.081 119.642 21.4592L121.639 21.5702C121.898 16.8957 120.978 13.115 118.706 10.3885L117.169 11.6687ZM119.642 21.4592L119.336 26.9707L121.333 27.0817L121.639 21.5702L119.642 21.4592ZM119.336 26.9707C119.092 31.3489 117.861 34.4417 115.794 36.4271L117.179 37.8696C119.739 35.4115 121.073 31.7562 121.333 27.0817L119.336 26.9707ZM115.794 36.4271C113.745 38.3946 110.716 39.3516 106.522 39.1186L106.411 41.1156C110.95 41.3678 114.601 40.3456 117.179 37.8696L115.794 36.4271ZM106.522 39.1186L102.368 38.8879L102.258 40.8848L106.411 41.1156L106.522 39.1186ZM101.315 39.8309L100.05 62.5958L102.047 62.7067L103.311 39.9418L101.315 39.8309ZM101.104 61.6528L92.3173 61.1646L92.2063 63.1616L100.993 63.6497L101.104 61.6528ZM93.2603 62.2186L96.3666 6.3048L94.3697 6.19386L91.2633 62.1076L93.2603 62.2186ZM106.855 33.1279C108.473 33.2178 109.886 32.8408 110.89 31.8046L109.454 30.4129C108.984 30.8973 108.224 31.2008 106.966 31.131L106.855 33.1279ZM110.864 31.8306C111.933 30.806 112.404 29.148 112.515 27.1527L110.518 27.0417C110.416 28.8804 109.991 29.8968 109.48 30.387L110.864 31.8306ZM112.515 27.1527L112.883 20.5229L110.886 20.4119L110.518 27.0417L112.515 27.1527ZM112.883 20.5229C112.994 18.5275 112.709 16.8275 111.761 15.6909L110.225 16.9723C110.679 17.516 110.989 18.5732 110.886 20.4119L112.883 20.5229ZM111.784 15.7196C110.901 14.5785 109.538 14.0473 107.92 13.9574L107.809 15.9544C109.067 16.0242 109.789 16.4102 110.202 16.9436L111.784 15.7196ZM107.92 13.9574L103.766 13.7267L103.655 15.7236L107.809 15.9544L107.92 13.9574ZM102.712 14.6697L101.758 31.8432L103.755 31.9541L104.709 14.7806L102.712 14.6697ZM102.701 32.8971L106.855 33.1279L106.966 31.131L102.812 30.9002L102.701 32.8971ZM126.18 7.96111L126.235 6.96265L125.237 6.90718L125.182 7.90564L126.18 7.96111ZM148.927 12.4298L148.173 13.0872L148.182 13.0966L148.927 12.4298ZM144.951 36.4062L144.629 35.4593L143.99 35.6764L143.953 36.3507L144.951 36.4062ZM144.942 36.5659L143.944 36.5104L143.902 37.2533L144.602 37.5063L144.942 36.5659ZM149.198 40.7284L148.259 41.0738L148.263 41.0843L148.267 41.0948L149.198 40.7284ZM149.513 62.4593L148.514 62.5087L148.514 62.5144L149.513 62.4593ZM150.152 65.3793L150.096 66.3777L151.633 66.4631L151.087 65.0244L150.152 65.3793ZM141.206 64.8822L140.246 65.1622L140.444 65.8415L141.15 65.8807L141.206 64.8822ZM140.376 42.3215L139.558 42.8966L139.567 42.9096L139.576 42.9222L140.376 42.3215ZM133.191 40.4L133.247 39.4015L132.248 39.3461L132.193 40.3445L133.191 40.4ZM131.86 64.363L131.805 65.3615L132.803 65.417L132.859 64.4185L131.86 64.363ZM123.074 63.8749L122.075 63.8194L122.02 64.8179L123.018 64.8734L123.074 63.8749ZM140.82 31.4493L140.153 30.7041L140.142 30.7142L140.131 30.7246L140.82 31.4493ZM141.796 18.2031L140.969 18.7656L140.979 18.7805L140.99 18.795L141.796 18.2031ZM134.523 16.4369L134.578 15.4385L133.58 15.383L133.524 16.3815L134.523 16.4369ZM133.635 32.4123L132.637 32.3568L132.581 33.3553L133.58 33.4108L133.635 32.4123ZM126.125 8.95957L139.144 9.68291L139.255 7.68599L126.235 6.96265L126.125 8.95957ZM139.144 9.68291C143.54 9.92711 146.466 11.1298 148.174 13.0871L149.681 11.7725C147.471 9.23891 143.912 7.94472 139.255 7.68599L139.144 9.68291ZM148.182 13.0966C149.896 15.0127 150.742 17.9829 150.507 22.2125L152.504 22.3234C152.754 17.8198 151.881 14.2312 149.672 11.763L148.182 13.0966ZM150.507 22.2125L150.316 25.6472L152.313 25.7581L152.504 22.3234L150.507 22.2125ZM150.316 25.6472C150.16 28.4493 149.574 30.6195 148.622 32.2208C147.683 33.8006 146.363 34.8704 144.629 35.4593L145.273 37.353C147.459 36.6106 149.159 35.2309 150.341 33.2429C151.511 31.2763 152.146 28.7604 152.313 25.7581L150.316 25.6472ZM143.953 36.3507L143.944 36.5104L145.941 36.6214L145.95 36.4616L143.953 36.3507ZM144.602 37.5063C146.431 38.1675 147.623 39.3443 148.259 41.0738L150.136 40.383C149.288 38.0772 147.643 36.479 145.282 35.6255L144.602 37.5063ZM148.267 41.0948C148.99 42.9298 149.297 45.4304 149.118 48.6562L151.115 48.7671C151.303 45.3897 150.997 42.5681 150.128 40.3619L148.267 41.0948ZM149.118 48.6562L148.572 58.481L150.569 58.5919L151.115 48.7671L149.118 48.6562ZM148.572 58.481C148.482 60.0962 148.461 61.4422 148.514 62.5087L150.512 62.41C150.464 61.441 150.481 60.1718 150.569 58.5919L148.572 58.481ZM148.514 62.5144C148.574 63.59 148.811 64.6642 149.217 65.7341L151.087 65.0244C150.747 64.1299 150.558 63.2575 150.511 62.4042L148.514 62.5144ZM150.207 64.3808L141.261 63.8838L141.15 65.8807L150.096 66.3777L150.207 64.3808ZM142.166 64.6022C141.912 63.7333 141.762 62.938 141.706 62.2137L139.712 62.3677C139.78 63.2527 139.961 64.1852 140.246 65.1622L142.166 64.6022ZM141.706 62.2137C141.649 61.4835 141.671 60.1042 141.787 58.0239L139.79 57.913C139.675 59.9863 139.644 61.4885 139.712 62.3677L141.706 62.2137ZM141.787 58.0239L142.355 47.7997L140.358 47.6887L139.79 57.913L141.787 58.0239ZM142.355 47.7997C142.5 45.1975 142.195 43.0784 141.175 41.7208L139.576 42.9222C140.148 43.6828 140.498 45.1788 140.358 47.6887L142.355 47.7997ZM141.194 41.7463C140.194 40.3246 138.436 39.6898 136.282 39.5702L136.171 41.5671C138.065 41.6723 139.072 42.206 139.558 42.8966L141.194 41.7463ZM136.282 39.5702L133.247 39.4015L133.136 41.3984L136.171 41.5671L136.282 39.5702ZM132.193 40.3445L130.862 64.3076L132.859 64.4185L134.19 40.4555L132.193 40.3445ZM131.916 63.3646L123.129 62.8764L123.018 64.8734L131.805 65.3615L131.916 63.3646ZM124.072 63.9304L127.178 8.01658L125.182 7.90564L122.075 63.8194L124.072 63.9304ZM136.775 33.5883C138.691 33.6947 140.336 33.2896 141.509 32.1741L140.131 30.7246C139.499 31.325 138.484 31.6801 136.886 31.5914L136.775 33.5883ZM141.486 32.1946C142.736 31.0762 143.305 29.2558 143.429 27.0273L141.432 26.9163C141.319 28.9479 140.814 30.1125 140.153 30.7041L141.486 32.1946ZM143.429 27.0273L143.669 22.7139L141.672 22.603L141.432 26.9163L143.429 27.0273ZM143.669 22.7139C143.785 20.6111 143.504 18.839 142.602 17.6112L140.99 18.795C141.479 19.4606 141.78 20.6587 141.672 22.603L143.669 22.7139ZM142.623 17.6407C141.748 16.3549 140.309 15.7568 138.572 15.6604L138.461 17.6573C139.813 17.7324 140.56 18.1639 140.969 18.7656L142.623 17.6407ZM138.572 15.6604L134.578 15.4385L134.467 17.4354L138.461 17.6573L138.572 15.6604ZM133.524 16.3815L132.637 32.3568L134.634 32.4678L135.521 16.4924L133.524 16.3815ZM133.58 33.4108L136.775 33.5883L136.886 31.5914L133.691 31.4138L133.58 33.4108ZM158.396 9.75091L158.451 8.75245L157.453 8.69698L157.397 9.69544L158.396 9.75091ZM167.182 10.239L168.181 10.2945L168.236 9.29606L167.238 9.24059L167.182 10.239ZM164.076 66.1528L164.021 67.1513L165.019 67.2068L165.075 66.2083L164.076 66.1528ZM155.29 65.6647L154.291 65.6092L154.236 66.6077L155.234 66.6631L155.29 65.6647ZM158.34 10.7494L167.127 11.2375L167.238 9.24059L158.451 8.75245L158.34 10.7494ZM166.184 10.1836L163.078 66.0974L165.075 66.2083L168.181 10.2945L166.184 10.1836ZM164.132 65.1544L155.345 64.6662L155.234 66.6631L164.021 67.1513L164.132 65.1544ZM156.288 65.7202L159.394 9.80638L157.397 9.69544L154.291 65.6092L156.288 65.7202ZM169.334 58.5929L168.43 58.1656L168.347 58.3423L168.336 58.5374L169.334 58.5929ZM187.857 19.4L188.761 19.8273L189.396 18.4839L187.912 18.4015L187.857 19.4ZM172.361 18.5391L171.362 18.4836L171.307 19.4821L172.305 19.5375L172.361 18.5391ZM172.804 10.5514L172.86 9.55292L171.861 9.49745L171.806 10.4959L172.804 10.5514ZM197.726 11.9359L198.724 11.9914L198.78 10.9929L197.781 10.9375L197.726 11.9359ZM197.291 19.7639L198.195 20.1911L198.279 20.0145L198.29 19.8193L197.291 19.7639ZM178.768 58.9567L177.864 58.5295L177.23 59.8728L178.713 59.9552L178.768 58.9567ZM195.063 59.862L196.062 59.9175L196.117 58.919L195.119 58.8636L195.063 59.862ZM194.62 67.8497L194.564 68.8482L195.563 68.9036L195.618 67.9052L194.62 67.8497ZM168.899 66.4208L167.901 66.3653L167.845 67.3638L168.844 67.4192L168.899 66.4208ZM170.238 59.0201L188.761 19.8273L186.953 18.9727L168.43 58.1656L170.238 59.0201ZM187.912 18.4015L172.416 17.5406L172.305 19.5375L187.801 20.3984L187.912 18.4015ZM173.359 18.5945L173.803 10.6069L171.806 10.4959L171.362 18.4836L173.359 18.5945ZM172.749 11.5498L197.67 12.9344L197.781 10.9375L172.86 9.55292L172.749 11.5498ZM196.727 11.8805L196.293 19.7084L198.29 19.8193L198.724 11.9914L196.727 11.8805ZM196.387 19.3366L177.864 58.5295L179.673 59.384L198.195 20.1911L196.387 19.3366ZM178.713 59.9552L195.008 60.8605L195.119 58.8636L178.824 57.9583L178.713 59.9552ZM194.065 59.8066L193.621 67.7942L195.618 67.9052L196.062 59.9175L194.065 59.8066ZM194.675 66.8512L168.955 65.4223L168.844 67.4192L194.564 68.8482L194.675 66.8512ZM169.898 66.4763L170.333 58.6483L168.336 58.5374L167.901 66.3653L169.898 66.4763ZM202.703 12.2124L202.758 11.214L201.76 11.1585L201.704 12.1569L202.703 12.2124ZM226.666 13.5437L227.664 13.5992L227.72 12.6007L226.721 12.5452L226.666 13.5437ZM226.222 21.5314L226.166 22.5298L227.165 22.5853L227.22 21.5869L226.222 21.5314ZM211.045 20.6882L211.101 19.6898L210.102 19.6343L210.047 20.6328L211.045 20.6882ZM210.224 35.4655L209.226 35.41L209.17 36.4084L210.169 36.4639L210.224 35.4655ZM222.286 36.1355L223.284 36.191L223.34 35.1925L222.341 35.1371L222.286 36.1355ZM221.842 44.1232L221.787 45.1217L222.785 45.1771L222.84 44.1787L221.842 44.1232ZM209.781 43.4531L209.836 42.4547L208.838 42.3992L208.782 43.3977L209.781 43.4531ZM208.826 60.6267L207.828 60.5712L207.773 61.5696L208.771 61.6251L208.826 60.6267ZM224.003 61.4698L225.002 61.5253L225.057 60.5268L224.059 60.4713L224.003 61.4698ZM223.559 69.4575L223.504 70.4559L224.502 70.5114L224.558 69.513L223.559 69.4575ZM199.596 68.1262L198.598 68.0707L198.542 69.0692L199.541 69.1247L199.596 68.1262ZM202.647 13.2109L226.61 14.5422L226.721 12.5452L202.758 11.214L202.647 13.2109ZM225.667 13.4882L225.223 21.4759L227.22 21.5869L227.664 13.5992L225.667 13.4882ZM226.277 20.5329L211.101 19.6898L210.99 21.6867L226.166 22.5298L226.277 20.5329ZM210.047 20.6328L209.226 35.41L211.223 35.5209L212.044 20.7437L210.047 20.6328ZM210.169 36.4639L222.23 37.134L222.341 35.1371L210.28 34.467L210.169 36.4639ZM221.287 36.0801L220.844 44.0677L222.84 44.1787L223.284 36.191L221.287 36.0801ZM221.897 43.1248L209.836 42.4547L209.725 44.4516L221.787 45.1217L221.897 43.1248ZM208.782 43.3977L207.828 60.5712L209.825 60.6821L210.779 43.5086L208.782 43.3977ZM208.771 61.6251L223.948 62.4683L224.059 60.4713L208.882 59.6282L208.771 61.6251ZM223.005 61.4143L222.561 69.402L224.558 69.513L225.002 61.5253L223.005 61.4143ZM223.615 68.459L199.652 67.1277L199.541 69.1247L223.504 70.4559L223.615 68.459ZM200.595 68.1817L203.701 12.2679L201.704 12.1569L198.598 68.0707L200.595 68.1817ZM230.683 67.0489L229.9 67.6719L229.907 67.6804L230.683 67.0489ZM228.167 53.208L228.222 52.2096L227.224 52.1541L227.168 53.1526L228.167 53.208ZM236.474 53.6695L237.472 53.725L237.528 52.7266L236.529 52.6711L236.474 53.6695ZM243.938 62.0966L243.226 61.3944L243.223 61.3973L243.938 62.0966ZM244.12 51.6105L243.231 52.069L243.237 52.0806L244.12 51.6105ZM238.568 44.8121L237.866 45.5241L237.871 45.5288L238.568 44.8121ZM231.459 35.7638L230.558 36.1971L230.562 36.205L231.459 35.7638ZM233.714 16.8197L234.406 17.5416L234.413 17.5339L233.714 16.8197ZM252.964 17.8892L252.174 18.5025L252.181 18.5116L252.188 18.5206L252.964 17.8892ZM255.533 30.7715L255.478 31.77L256.476 31.8255L256.532 30.827L255.533 30.7715ZM247.226 30.31L246.228 30.2545L246.172 31.253L247.171 31.3085L247.226 30.31ZM246.498 23.2187L245.692 23.8106L245.701 23.8227L245.71 23.8345L246.498 23.2187ZM239.891 32.5466L239.008 33.0166L239.013 33.0263L239.019 33.0358L239.891 32.5466ZM245.526 39.2695L244.829 39.9863L244.829 39.9866L245.526 39.2695ZM252.631 48.3977L251.723 48.8167L252.631 48.3977ZM250.177 68.0518L249.485 67.3294L249.477 67.3376L250.177 68.0518ZM240.204 70.1819C236.131 69.9556 233.279 68.6538 231.458 66.4175L229.907 67.6804C232.186 70.4792 235.645 71.9317 240.093 72.1788L240.204 70.1819ZM231.465 66.426C229.62 64.1094 228.744 60.8332 228.987 56.4586L226.991 56.3476C226.731 61.0257 227.651 64.8468 229.9 67.6718L231.465 66.426ZM228.987 56.4586L229.165 53.2635L227.168 53.1526L226.991 56.3476L228.987 56.4586ZM228.111 54.2065L236.418 54.668L236.529 52.6711L228.222 52.2096L228.111 54.2065ZM235.475 53.6141L235.262 57.4482L237.259 57.5591L237.472 53.725L235.475 53.6141ZM235.262 57.4482C235.155 59.3739 235.465 61.0264 236.372 62.2395C237.305 63.4879 238.734 64.091 240.456 64.1867L240.567 62.1897C239.254 62.1168 238.457 61.6881 237.973 61.0417C237.464 60.36 237.165 59.2545 237.259 57.5591L235.262 57.4482ZM240.456 64.1867C242.139 64.2801 243.599 63.873 244.653 62.7958L243.223 61.3973C242.691 61.9413 241.867 62.262 240.567 62.1897L240.456 64.1867ZM244.65 62.7987C245.75 61.6836 246.259 59.9747 246.374 57.9052L244.377 57.7943C244.273 59.6654 243.824 60.7877 243.226 61.3944L244.65 62.7987ZM246.374 57.9052C246.513 55.4059 246.067 53.1398 245.002 51.1404L243.237 52.0806C244.107 53.7141 244.499 55.6076 244.377 57.7943L246.374 57.9052ZM245.008 51.1521C243.97 49.1381 242.027 46.7824 239.266 44.0954L237.871 45.5288C240.582 48.1669 242.341 50.3434 243.231 52.0689L245.008 51.1521ZM239.27 44.1001C235.862 40.7385 233.581 37.814 232.357 35.3227L230.562 36.205C231.929 38.9855 234.387 42.0932 237.866 45.5241L239.27 44.1001ZM232.361 35.3305C231.147 32.807 230.617 30.0085 230.789 26.913L228.792 26.8021C228.603 30.2033 229.186 33.3423 230.558 36.1971L232.361 35.3305ZM230.789 26.913C231.026 22.6564 232.275 19.5847 234.406 17.5415L233.021 16.0979C230.413 18.5988 229.047 22.2191 228.792 26.8021L230.789 26.913ZM234.413 17.5339C236.532 15.4577 239.543 14.4594 243.607 14.6852L243.718 12.6883C239.262 12.4407 235.64 13.5311 233.014 16.1055L234.413 17.5339ZM243.607 14.6852C247.616 14.908 250.407 16.2267 252.174 18.5025L253.754 17.2759C251.533 14.4159 248.123 12.933 243.718 12.6883L243.607 14.6852ZM252.188 18.5206C254.028 20.78 254.907 24.0233 254.663 28.3996L256.66 28.5106C256.92 23.8342 256 20.0335 253.739 17.2577L252.188 18.5206ZM254.663 28.3996L254.535 30.7161L256.532 30.827L256.66 28.5106L254.663 28.3996ZM255.589 29.7731L247.282 29.3116L247.171 31.3085L255.478 31.77L255.589 29.7731ZM248.225 30.3655L248.384 27.4899L246.387 27.379L246.228 30.2545L248.225 30.3655ZM248.384 27.4899C248.496 25.4855 248.207 23.7815 247.286 22.603L245.71 23.8345C246.186 24.4429 246.489 25.5493 246.387 27.379L248.384 27.4899ZM247.304 22.6268C246.393 21.3853 245.016 20.7728 243.354 20.6804L243.243 22.6773C244.457 22.7448 245.214 23.1588 245.692 23.8106L247.304 22.6268ZM243.354 20.6804C241.678 20.5873 240.23 21.0284 239.193 22.1574C238.189 23.2503 237.715 24.8359 237.61 26.7311L239.607 26.842C239.7 25.1694 240.106 24.1197 240.666 23.5102C241.193 22.9366 241.99 22.6077 243.243 22.6773L243.354 20.6804ZM237.61 26.7311C237.487 28.9401 237.956 31.0415 239.008 33.0166L240.773 32.0765C239.89 30.4187 239.505 28.6802 239.607 26.842L237.61 26.7311ZM239.019 33.0358C240.11 34.9817 242.071 37.3024 244.829 39.9863L246.224 38.5528C243.509 35.9115 241.713 33.7503 240.763 32.0573L239.019 33.0358ZM244.829 39.9866C248.288 43.3484 250.558 46.291 251.723 48.8167L253.539 47.9787C252.225 45.1319 249.759 41.9891 246.223 38.5525L244.829 39.9866ZM251.723 48.8167C252.882 51.3288 253.387 54.2611 253.199 57.6434L255.196 57.7544C255.399 54.1075 254.859 50.839 253.539 47.9787L251.723 48.8167ZM253.199 57.6434C252.953 62.0637 251.67 65.2382 249.486 67.3295L250.869 68.7742C253.536 66.2208 254.933 62.4933 255.196 57.7544L253.199 57.6434ZM249.477 67.3376C247.361 69.4114 244.325 70.4109 240.204 70.1819L240.093 72.1788C244.597 72.4291 248.248 71.3428 250.877 68.766L249.477 67.3376Z" fill="black" fill-opacity="0.25"/>
</svg>
