<svg width="277" height="259" viewBox="0 0 277 259" fill="none" xmlns="http://www.w3.org/2000/svg">
<path opacity="0.952895" d="M183.285 4.16637C208.718 11.9988 231.723 26.7579 247.694 47.3831C265.169 69.9493 276.788 97.0242 276.997 125.184C277.215 154.687 266.986 183.77 248.882 207.557C230.581 231.603 206.077 257.016 175.204 258.929C144.472 260.834 125.798 223.747 95.7979 217.045C66.0258 210.394 25.7377 243.696 6.07214 221.145C-14.3282 197.751 23.3041 163.22 22.2248 132.676C21.4179 109.839 -2.1546 91.4874 0.689232 68.8021C3.78516 44.1058 15.857 17.7008 38.1986 5.25271C60.3438 -7.08601 87.7971 6.20853 113.374 6.01701C137.168 5.83886 160.619 -2.8139 183.285 4.16637Z" fill="#F0CDBC"/>
</svg>
