<svg width="138" height="139" viewBox="0 0 138 139" fill="none" xmlns="http://www.w3.org/2000/svg">
<path d="M31.6305 108.04C30.8356 112.967 32.0515 117.999 35.0117 122.033C37.972 126.066 42.4351 128.773 47.4235 129.561L100.588 137.939C103.056 138.329 105.579 138.234 108.013 137.66C110.446 137.085 112.742 136.043 114.769 134.593C116.796 133.143 118.514 131.313 119.825 129.208C121.136 127.103 122.014 124.765 122.408 122.328L137.251 30.8144C138.049 25.8871 136.836 20.8539 133.877 16.8181C130.918 12.7822 126.456 10.0728 121.467 9.28355L68.3019 0.905009C65.8332 0.514068 63.3091 0.608125 60.8745 1.18178C58.4399 1.75544 56.1427 2.79742 54.1146 4.24794C52.0866 5.69846 50.3676 7.52899 49.0562 9.63453C47.7449 11.7401 46.867 14.0792 46.473 16.5177L31.6295 108.031L31.6305 108.04ZM48.923 120.278C46.4299 119.882 44.2004 118.526 42.7222 116.508C41.244 114.491 40.6375 111.975 41.0355 109.513L55.879 17.9993C56.0761 16.7812 56.5149 15.6127 57.1701 14.5609C57.8253 13.5092 58.684 12.5947 59.6971 11.87C60.7103 11.1454 61.8578 10.6247 63.074 10.3379C64.2902 10.0511 65.5511 10.0038 66.7845 10.1987L119.959 18.5762C125.148 19.3894 128.684 24.21 127.856 29.3412L113.011 120.845C112.815 122.065 112.377 123.235 111.722 124.289C111.067 125.342 110.207 126.258 109.193 126.984C108.179 127.71 107.03 128.231 105.812 128.518C104.595 128.805 103.332 128.852 102.097 128.656L48.9325 120.277L48.923 120.278ZM19.0603 85.3637L1.63612 40.2501C-0.163005 35.5966 -0.0131228 30.4233 2.0528 25.8682C4.11873 21.3131 7.9315 17.7491 12.6525 15.9603L13.3533 15.6987C12.6506 18.7104 12.4546 21.8142 12.773 24.8858L12.9541 26.6338C11.5615 27.9117 10.5866 29.5701 10.1546 31.396C9.72265 33.222 9.8533 35.1321 10.5298 36.8812L15.3072 49.245L19.0509 85.3646L19.0603 85.3637ZM27.473 74.2121L22.2587 23.9026C21.7448 18.9443 23.2488 13.9821 26.4397 10.1076C29.6306 6.23313 34.2471 3.76379 39.2736 3.24282L40.2781 3.13871C39.0992 5.34894 38.2507 7.78947 37.8309 10.3934L37.3523 13.3531C35.5172 14.1604 33.9859 15.5183 32.9768 17.2331C31.9677 18.9478 31.5324 20.9318 31.7331 22.9018L33.3171 38.1853L27.473 74.2121ZM100.005 34.7221C100.262 37.2012 99.5098 39.6824 97.9143 41.6196C96.3189 43.5568 94.0106 44.7915 91.4973 45.052C88.9841 45.3125 86.4717 44.5774 84.5128 43.0086C82.554 41.4397 81.3092 39.1656 81.0522 36.6864C80.7953 34.2072 81.5472 31.7261 83.1427 29.7889C84.7381 27.8517 87.0464 26.617 89.5596 26.3565C92.0729 26.096 94.5853 26.831 96.5442 28.3999C98.503 29.9687 99.7478 32.2429 100.005 34.7221ZM79.3267 112.45C81.8399 112.19 84.1482 110.955 85.7436 109.018C87.3391 107.081 88.0911 104.6 87.8341 102.121C87.5771 99.6414 86.3323 97.3672 84.3735 95.7984C82.4146 94.2295 79.9022 93.4945 77.389 93.755C74.8757 94.0155 72.5675 95.2501 70.972 97.1874C69.3765 99.1246 68.6246 101.606 68.8815 104.085C69.1385 106.564 70.3833 108.838 72.3421 110.407C74.301 111.976 76.8134 112.711 79.3267 112.45V112.45Z" fill="black"/>
</svg>
