<svg width="290" height="66" viewBox="0 0 290 66" fill="none" xmlns="http://www.w3.org/2000/svg">
<path d="M4.91401 62.0935L4.19369 62.7872L4.20213 62.7958L4.91401 62.0935ZM3.51834 11.7128L2.76861 11.051L2.76077 11.0601L3.51834 11.7128ZM22.7909 11.1789L22.0706 11.8727L22.0791 11.8812L22.7909 11.1789ZM26.5949 27.1597L26.6226 28.1593L27.6222 28.1316L27.5946 27.132L26.5949 27.1597ZM18.2781 27.3901L17.2785 27.4178L17.3062 28.4174L18.3058 28.3897L18.2781 27.3901ZM18.7278 43.6239L18.7002 42.6243L17.7005 42.6519L17.7282 43.6516L18.7278 43.6239ZM27.0447 43.3935L28.0443 43.3658L28.0166 42.3662L27.017 42.3939L27.0447 43.3935ZM24.1866 61.5596L23.4369 60.8977L23.4291 60.9068L24.1866 61.5596ZM14.6623 64.4244C10.6445 64.5357 7.68525 63.4786 5.62589 61.3912L4.20213 62.7958C6.75397 65.3824 10.312 66.5457 14.7177 66.4237L14.6623 64.4244ZM5.63427 61.3998C3.60732 59.2952 2.47017 56.2109 2.35353 52.0005L0.354301 52.0559C0.479876 56.5889 1.71612 60.2147 4.19375 62.7872L5.63427 61.3998ZM2.35353 52.0005L1.52056 21.9321L-0.478672 21.9874L0.354301 52.0559L2.35353 52.0005ZM1.52056 21.9321C1.40392 17.7217 2.36857 14.5791 4.2759 12.3656L2.76077 11.0601C0.429367 13.7658 -0.604247 17.4545 -0.478672 21.9874L1.52056 21.9321ZM4.26801 12.3746C6.20864 10.1764 9.10486 8.95706 13.1226 8.84576L13.0672 6.84652C8.66157 6.96857 5.17339 8.32704 2.76867 11.051L4.26801 12.3746ZM13.1226 8.84576C17.1417 8.73442 20.0676 9.79285 22.0707 11.8726L23.5112 10.4852C21.0097 7.88793 17.4716 6.72451 13.0672 6.84652L13.1226 8.84576ZM22.0791 11.8812C24.1544 13.9848 25.3149 17.0652 25.4314 21.2697L27.4306 21.2143C27.3049 16.6754 26.0387 13.0471 23.5028 10.4766L22.0791 11.8812ZM25.4314 21.2697L25.5953 27.1874L27.5946 27.132L27.4306 21.2143L25.4314 21.2697ZM26.5672 26.1601L18.2504 26.3905L18.3058 28.3897L26.6226 28.1593L26.5672 26.1601ZM19.2777 27.3624L19.0983 20.8849L17.0991 20.9403L17.2785 27.4178L19.2777 27.3624ZM19.0983 20.8849C19.0471 19.0351 18.6157 17.4722 17.6363 16.3777C16.629 15.252 15.1967 14.7906 13.5287 14.8368L13.5841 16.836C14.8483 16.801 15.6391 17.145 16.1459 17.7114C16.6806 18.309 17.0543 19.3247 17.0991 20.9403L19.0983 20.8849ZM13.5287 14.8368C11.8607 14.883 10.4561 15.423 9.51266 16.6028C8.59539 17.7498 8.2512 19.3342 8.30245 21.184L10.3017 21.1286C10.2569 19.513 10.5738 18.4781 11.0746 17.8519C11.5493 17.2583 12.3199 16.8711 13.5841 16.836L13.5287 14.8368ZM8.30245 21.184L9.16865 52.452L11.1679 52.3966L10.3017 21.1286L8.30245 21.184ZM9.16865 52.452C9.21924 54.2781 9.65144 55.8235 10.6341 56.9049C11.6425 58.0145 13.073 58.4662 14.7361 58.4201L14.6807 56.4209C13.4115 56.456 12.6193 56.1156 12.1143 55.5598C11.5836 54.9758 11.2118 53.9825 11.1679 52.3966L9.16865 52.452ZM14.7361 58.4201C16.3991 58.374 17.8024 57.8439 18.7478 56.6801C19.6691 55.546 20.0151 53.979 19.9645 52.1529L17.9653 52.2083C18.0092 53.7942 17.693 54.8066 17.1955 55.4191C16.722 56.0019 15.9498 56.3857 14.6807 56.4209L14.7361 58.4201ZM19.9645 52.1529L19.7275 43.5962L17.7282 43.6516L17.9653 52.2083L19.9645 52.1529ZM18.7555 44.6235L27.0723 44.3931L27.017 42.3939L18.7002 42.6243L18.7555 44.6235ZM26.045 43.4212L26.2644 51.3381L28.2636 51.2827L28.0443 43.3658L26.045 43.4212ZM26.2644 51.3381C26.3808 55.5426 25.3926 58.6825 23.4369 60.8978L24.9363 62.2214C27.326 59.5145 28.3893 55.8216 28.2636 51.2827L26.2644 51.3381ZM23.4291 60.9068C21.5442 63.0943 18.6814 64.3131 14.6623 64.4244L14.7177 66.4237C19.122 66.3017 22.5903 64.9441 24.9442 62.2123L23.4291 60.9068ZM35.7612 61.1589L36.4725 60.4561L35.7612 61.1589ZM34.37 10.9382L35.1191 11.6006L34.37 10.9382ZM54.2024 10.3888L53.491 11.0916L54.2024 10.3888ZM55.5936 60.6095L54.8444 59.9471L55.5936 60.6095ZM45.7516 63.5632C41.6263 63.6775 38.5863 62.5953 36.4725 60.4561L35.0499 61.8618C37.6569 64.5002 41.2957 65.6874 45.807 65.5624L45.7516 63.5632ZM36.4725 60.4561C34.3431 58.3009 33.1536 55.1418 33.0341 50.8305L31.0349 50.8859C31.1636 55.531 32.4585 59.2391 35.0499 61.8618L36.4725 60.4561ZM33.0341 50.8305L32.2189 21.4018L30.2197 21.4571L31.0349 50.8859L33.0341 50.8305ZM32.2189 21.4018C32.0995 17.0904 33.1123 13.8703 35.1191 11.6006L33.6208 10.2758C31.1786 13.0379 30.091 16.812 30.2197 21.4571L32.2189 21.4018ZM35.1191 11.6006C37.1112 9.34754 40.0866 8.09879 44.2119 7.9845L44.1566 5.98527C39.6452 6.11025 36.0777 7.49702 33.6208 10.2758L35.1191 11.6006ZM44.2119 7.9845C48.3373 7.87022 51.3772 8.95234 53.491 11.0916L54.9137 9.68592C52.3067 7.04744 48.6679 5.86029 44.1566 5.98527L44.2119 7.9845ZM53.491 11.0916C55.6205 13.2468 56.81 16.4058 56.9294 20.7172L58.9286 20.6618C58.8 16.0166 57.505 12.3085 54.9137 9.68592L53.491 11.0916ZM56.9294 20.7172L57.7447 50.1459L59.7439 50.0905L58.9286 20.6618L56.9294 20.7172ZM57.7447 50.1459C57.8641 54.4573 56.8513 57.6774 54.8444 59.9471L56.3428 61.2719C58.7849 58.5098 59.8726 54.7357 59.7439 50.0905L57.7447 50.1459ZM54.8444 59.9471C52.8523 62.2001 49.877 63.4489 45.7516 63.5632L45.807 65.5624C50.3183 65.4374 53.8858 64.0507 56.3428 61.2719L54.8444 59.9471ZM45.5855 57.5655C47.3146 57.5176 48.7605 56.9446 49.7265 55.707C50.6634 54.5067 51.0169 52.8459 50.9628 50.894L48.9635 50.9494C49.0114 52.6761 48.6816 53.7953 48.1499 54.4764C47.6475 55.1201 46.8398 55.53 45.5301 55.5662L45.5855 57.5655ZM50.9628 50.894L50.1165 20.3457L48.1173 20.4011L48.9635 50.9494L50.9628 50.894ZM50.1165 20.3457C50.0624 18.3939 49.6176 16.7551 48.6157 15.6086C47.5827 14.4263 46.1073 13.9343 44.3781 13.9822L44.4335 15.9814C45.7432 15.9452 46.5723 16.3096 47.1097 16.9246C47.6782 17.5752 48.0695 18.6744 48.1173 20.4011L50.1165 20.3457ZM44.3781 13.9822C42.6489 14.0301 41.203 14.6031 40.237 15.8407C39.3002 17.041 38.9467 18.7018 39.0008 20.6537L41 20.5983C40.9522 18.8716 41.282 17.7524 41.8136 17.0713C42.3161 16.4276 43.1238 16.0177 44.4335 15.9814L44.3781 13.9822ZM39.0008 20.6537L39.847 51.2019L41.8463 51.1466L41 20.5983L39.0008 20.6537ZM39.847 51.2019C39.9011 53.1538 40.346 54.7926 41.3478 55.9391C42.3809 57.1214 43.8563 57.6134 45.5855 57.5655L45.5301 55.5662C44.2204 55.6025 43.3912 55.238 42.8539 54.6231C42.2854 53.9724 41.8941 52.8733 41.8463 51.1466L39.847 51.2019ZM63.5102 7.24981L63.4826 6.2502L62.4829 6.27789L62.5106 7.27751L63.5102 7.24981ZM76.0654 6.902L77.0516 6.73625L76.9074 5.8783L76.0377 5.90239L76.0654 6.902ZM82.7732 46.8116L81.787 46.9773L81.9312 47.8353L82.8009 47.8112L82.7732 46.8116ZM82.9331 46.8071L82.9608 47.8067L83.8305 47.7827L83.9269 46.918L82.9331 46.8071ZM87.4211 6.58742L87.3934 5.58781L86.5237 5.6119L86.4272 6.47653L87.4211 6.58742ZM99.9763 6.23961L100.976 6.21192L100.948 5.2123L99.9486 5.24L99.9763 6.23961ZM101.527 62.2181L101.555 63.2178L102.554 63.1901L102.527 62.1904L101.527 62.2181ZM93.2102 62.4485L92.2106 62.4762L92.2383 63.4758L93.2379 63.4482L93.2102 62.4485ZM92.0361 20.0648L93.0357 20.0371L93.008 19.0375L92.0084 19.0652L92.0361 20.0648ZM91.8761 20.0692L91.8484 19.0696L90.9884 19.0934L90.8836 19.9474L91.8761 20.0692ZM86.6527 62.6302L86.6804 63.6298L87.5405 63.606L87.6453 62.752L86.6527 62.6302ZM79.2955 62.834L78.3113 63.0106L78.4632 63.8574L79.3232 63.8336L79.2955 62.834ZM71.7239 20.6275L72.7081 20.4509L72.5562 19.6041L71.6962 19.6279L71.7239 20.6275ZM71.5639 20.6319L71.5362 19.6323L70.5366 19.66L70.5643 20.6596L71.5639 20.6319ZM72.7381 63.0157L72.7657 64.0153L73.7654 63.9876L73.7377 62.988L72.7381 63.0157ZM65.061 63.2283L64.0614 63.256L64.0891 64.2556L65.0887 64.228L65.061 63.2283ZM63.5379 8.24943L76.0931 7.90162L76.0377 5.90239L63.4826 6.2502L63.5379 8.24943ZM75.0793 7.06775L81.787 46.9773L83.7593 46.6458L77.0516 6.73625L75.0793 7.06775ZM82.8009 47.8112L82.9608 47.8067L82.9054 45.8075L82.7455 45.8119L82.8009 47.8112ZM83.9269 46.918L88.4149 6.69832L86.4272 6.47653L81.9393 46.6962L83.9269 46.918ZM87.4488 7.58704L100.004 7.23923L99.9486 5.24L87.3934 5.58781L87.4488 7.58704ZM98.9766 6.26731L100.527 62.2458L102.527 62.1904L100.976 6.21192L98.9766 6.26731ZM101.499 61.2185L93.1825 61.4489L93.2379 63.4482L101.555 63.2178L101.499 61.2185ZM94.2098 62.4208L93.0357 20.0371L91.0364 20.0925L92.2106 62.4762L94.2098 62.4208ZM92.0084 19.0652L91.8484 19.0696L91.9038 21.0688L92.0638 21.0644L92.0084 19.0652ZM90.8836 19.9474L85.6602 62.5084L87.6453 62.752L92.8687 20.191L90.8836 19.9474ZM86.625 61.6306L79.2678 61.8344L79.3232 63.8336L86.6804 63.6298L86.625 61.6306ZM80.2798 62.6574L72.7081 20.4509L70.7396 20.8041L78.3113 63.0106L80.2798 62.6574ZM71.6962 19.6279L71.5362 19.6323L71.5916 21.6315L71.7515 21.6271L71.6962 19.6279ZM70.5643 20.6596L71.7384 63.0434L73.7377 62.988L72.5635 20.6042L70.5643 20.6596ZM72.7104 62.016L65.0333 62.2287L65.0887 64.228L72.7657 64.0153L72.7104 62.016ZM66.0606 63.2006L64.5099 7.22212L62.5106 7.27751L64.0614 63.256L66.0606 63.2006ZM106.541 6.05776L106.513 5.05815L105.513 5.08584L105.541 6.08546L106.541 6.05776ZM119.096 5.70995L120.082 5.5442L119.938 4.68625L119.068 4.71034L119.096 5.70995ZM125.804 45.6195L124.817 45.7853L124.962 46.6432L125.831 46.6191L125.804 45.6195ZM125.963 45.6151L125.991 46.6147L126.861 46.5906L126.957 45.726L125.963 45.6151ZM130.451 5.39537L130.424 4.39576L129.554 4.41985L129.458 5.28448L130.451 5.39537ZM143.007 5.04756L144.006 5.01987L143.979 4.02026L142.979 4.04795L143.007 5.04756ZM144.557 61.0261L144.585 62.0257L145.585 61.998L145.557 60.9984L144.557 61.0261ZM136.241 61.2565L135.241 61.2842L135.269 62.2838L136.268 62.2561L136.241 61.2565ZM135.066 18.8727L136.066 18.8451L136.038 17.8454L135.039 17.8731L135.066 18.8727ZM134.906 18.8772L134.879 17.8776L134.019 17.9014L133.914 18.7554L134.906 18.8772ZM129.683 61.4381L129.711 62.4378L130.571 62.4139L130.676 61.56L129.683 61.4381ZM122.326 61.642L121.342 61.8185L121.494 62.6654L122.354 62.6416L122.326 61.642ZM114.754 19.4354L115.739 19.2589L115.587 18.412L114.727 18.4358L114.754 19.4354ZM114.594 19.4399L114.567 18.4403L113.567 18.468L113.595 19.4676L114.594 19.4399ZM115.768 61.8236L115.796 62.8232L116.796 62.7955L116.768 61.7959L115.768 61.8236ZM108.091 62.0363L107.092 62.064L107.119 63.0636L108.119 63.0359L108.091 62.0363ZM106.568 7.05738L119.123 6.70957L119.068 4.71034L106.513 5.05815L106.568 7.05738ZM118.11 5.8757L124.817 45.7853L126.79 45.4538L120.082 5.5442L118.11 5.8757ZM125.831 46.6191L125.991 46.6147L125.936 44.6155L125.776 44.6199L125.831 46.6191ZM126.957 45.726L131.445 5.50627L129.458 5.28448L124.97 45.5042L126.957 45.726ZM130.479 6.39499L143.034 6.04718L142.979 4.04795L130.424 4.39576L130.479 6.39499ZM142.007 5.07526L143.558 61.0538L145.557 60.9984L144.006 5.01987L142.007 5.07526ZM144.53 60.0265L136.213 60.2569L136.268 62.2561L144.585 62.0257L144.53 60.0265ZM137.24 61.2288L136.066 18.8451L134.067 18.9004L135.241 61.2842L137.24 61.2288ZM135.039 17.8731L134.879 17.8776L134.934 19.8768L135.094 19.8724L135.039 17.8731ZM133.914 18.7554L128.691 61.3163L130.676 61.56L135.899 18.999L133.914 18.7554ZM129.655 60.4385L122.298 60.6423L122.354 62.6416L129.711 62.4378L129.655 60.4385ZM123.31 61.4654L115.739 19.2589L113.77 19.612L121.342 61.8185L123.31 61.4654ZM114.727 18.4358L114.567 18.4403L114.622 20.4395L114.782 20.4351L114.727 18.4358ZM113.595 19.4676L114.769 61.8513L116.768 61.7959L115.594 19.4122L113.595 19.4676ZM115.741 60.824L108.064 61.0367L108.119 63.0359L115.796 62.8232L115.741 60.824ZM109.091 62.0086L107.54 6.03007L105.541 6.08546L107.092 62.064L109.091 62.0086ZM154.083 57.9611L153.363 58.6556L153.371 58.6634L154.083 57.9611ZM149.251 4.87458L149.223 3.87496L148.224 3.90265L148.251 4.90227L149.251 4.87458ZM158.048 4.63089L159.047 4.6032L159.02 3.60358L158.02 3.63127L158.048 4.63089ZM160.483 52.1016L159.749 52.7807L159.761 52.7933L159.773 52.8055L160.483 52.1016ZM167.121 51.9178L166.372 51.2543L166.361 51.2671L166.35 51.2804L167.121 51.9178ZM167.004 4.38277L166.977 3.38315L165.977 3.41084L166.005 4.41046L167.004 4.38277ZM175.481 4.14794L176.481 4.12025L176.453 3.12063L175.453 3.14832L175.481 4.14794ZM173.596 57.4206L174.345 58.0824L174.352 58.0741L173.596 57.4206ZM163.911 60.2899C159.836 60.4028 156.852 59.3439 154.795 57.2588L153.371 58.6634C155.925 61.2525 159.512 62.4125 163.967 62.2891L163.911 60.2899ZM154.803 57.2667C152.723 55.1125 151.555 51.9246 151.434 47.5505L149.434 47.6059C149.564 52.295 150.828 56.029 153.363 58.6556L154.803 57.2667ZM151.434 47.5505L150.251 4.84688L148.251 4.90227L149.434 47.6059L151.434 47.5505ZM149.279 5.87419L158.075 5.6305L158.02 3.63127L149.223 3.87496L149.279 5.87419ZM157.048 4.65858L158.249 48.002L160.248 47.9466L159.047 4.6032L157.048 4.65858ZM158.249 48.002C158.304 50.0087 158.733 51.6829 159.749 52.7807L161.217 51.4226C160.693 50.8558 160.299 49.7784 160.248 47.9466L158.249 48.002ZM159.773 52.8055C160.834 53.8766 162.258 54.3334 163.905 54.2877L163.85 52.2885C162.618 52.3226 161.779 51.9884 161.194 51.3978L159.773 52.8055ZM163.905 54.2877C165.549 54.2422 166.937 53.7082 167.891 52.5552L166.35 51.2804C165.859 51.8747 165.084 52.2543 163.85 52.2885L163.905 54.2877ZM167.869 52.5813C168.893 51.4259 169.261 49.7181 169.205 47.6984L167.205 47.7538C167.256 49.5727 166.9 50.6593 166.372 51.2543L167.869 52.5813ZM169.205 47.6984L168.004 4.35508L166.005 4.41046L167.205 47.7538L169.205 47.6984ZM167.032 5.38238L175.509 5.14756L175.453 3.14832L166.977 3.38315L167.032 5.38238ZM174.481 4.17563L175.664 46.8793L177.664 46.8239L176.481 4.12025L174.481 4.17563ZM175.664 46.8793C175.786 51.2533 174.795 54.5011 172.839 56.767L174.352 58.0741C176.738 55.3112 177.794 51.513 177.664 46.8239L175.664 46.8793ZM172.846 56.7588C170.907 58.9545 167.987 60.177 163.911 60.2899L163.967 62.2891C168.421 62.1657 171.938 60.8089 174.345 58.0824L172.846 56.7588ZM181.746 3.97438L181.718 2.97476L180.719 3.00246L180.747 4.00207L181.746 3.97438ZM192.782 3.66866L193.744 3.3945L193.531 2.64754L192.754 2.66905L192.782 3.66866ZM202.267 36.9388L201.305 37.2129L201.518 37.9599L202.295 37.9384L202.267 36.9388ZM202.427 36.9343L202.454 37.9339L203.454 37.9063L203.426 36.9066L202.427 36.9343ZM201.499 3.42719L201.471 2.42757L200.471 2.45526L200.499 3.45488L201.499 3.42719ZM209.336 3.21008L210.335 3.18239L210.307 2.18278L209.308 2.21047L209.336 3.21008ZM210.886 59.1886L210.914 60.1882L211.914 60.1605L211.886 59.1609L210.886 59.1886ZM201.85 59.4389L200.889 59.7158L201.103 60.46L201.877 60.4386L201.85 59.4389ZM190.162 18.867L191.123 18.5902L190.908 17.846L190.134 17.8674L190.162 18.867ZM190.002 18.8715L189.974 17.8719L188.975 17.8996L189.002 18.8992L190.002 18.8715ZM191.134 59.7358L191.162 60.7354L192.161 60.7077L192.133 59.7081L191.134 59.7358ZM183.297 59.9529L182.297 59.9806L182.325 60.9802L183.325 60.9525L183.297 59.9529ZM181.774 4.974L192.81 4.66828L192.754 2.66905L181.718 2.97476L181.774 4.974ZM191.82 3.94283L201.305 37.2129L203.229 36.6646L193.744 3.3945L191.82 3.94283ZM202.295 37.9384L202.454 37.9339L202.399 35.9347L202.239 35.9391L202.295 37.9384ZM203.426 36.9066L202.498 3.3995L200.499 3.45488L201.427 36.962L203.426 36.9066ZM201.526 4.42681L209.363 4.2097L209.308 2.21047L201.471 2.42757L201.526 4.42681ZM208.336 3.23778L209.887 59.2163L211.886 59.1609L210.335 3.18239L208.336 3.23778ZM210.859 58.189L201.822 58.4393L201.877 60.4386L210.914 60.1882L210.859 58.189ZM202.811 59.1621L191.123 18.5902L189.201 19.1439L200.889 59.7158L202.811 59.1621ZM190.134 17.8674L189.974 17.8719L190.03 19.8711L190.189 19.8667L190.134 17.8674ZM189.002 18.8992L190.134 59.7635L192.133 59.7081L191.001 18.8438L189.002 18.8992ZM191.106 58.7362L183.269 58.9533L183.325 60.9525L191.162 60.7354L191.106 58.7362ZM184.296 59.9252L182.746 3.94669L180.747 4.00207L182.297 59.9806L184.296 59.9252ZM215.874 3.02896L215.846 2.02935L214.846 2.05704L214.874 3.05665L215.874 3.02896ZM224.67 2.78527L225.67 2.75758L225.642 1.75797L224.643 1.78566L224.67 2.78527ZM226.221 58.7638L226.249 59.7634L227.248 59.7357L227.221 58.7361L226.221 58.7638ZM217.424 59.0075L216.425 59.0352L216.452 60.0348L217.452 60.0071L217.424 59.0075ZM215.901 4.02858L224.698 3.78489L224.643 1.78566L215.846 2.02935L215.901 4.02858ZM223.671 2.81297L225.221 58.7915L227.221 58.7361L225.67 2.75758L223.671 2.81297ZM226.193 57.7642L217.397 58.0079L217.452 60.0071L226.249 59.7634L226.193 57.7642ZM218.424 58.9798L216.873 3.00127L214.874 3.05665L216.425 59.0352L218.424 58.9798ZM238.357 10.4092L239.357 10.3815L239.329 9.38187L238.33 9.40956L238.357 10.4092ZM229.161 10.6639L228.161 10.6916L228.189 11.6913L229.189 11.6636L229.161 10.6639ZM228.939 2.66701L228.912 1.6674L227.912 1.69509L227.94 2.6947L228.939 2.66701ZM256.129 1.91379L257.128 1.8861L257.101 0.886483L256.101 0.914175L256.129 1.91379ZM256.35 9.91073L256.378 10.9103L257.378 10.8826L257.35 9.88303L256.35 9.91073ZM247.154 10.1655L247.126 9.16587L246.127 9.19357L246.154 10.1932L247.154 10.1655ZM248.483 58.1471L248.511 59.1467L249.51 59.119L249.483 58.1194L248.483 58.1471ZM239.686 58.3908L238.687 58.4185L238.715 59.4181L239.714 59.3904L239.686 58.3908ZM238.33 9.40956L229.133 9.66433L229.189 11.6636L238.385 11.4088L238.33 9.40956ZM230.16 10.6363L229.939 2.63932L227.94 2.6947L228.161 10.6916L230.16 10.6363ZM228.967 3.66663L256.157 2.91341L256.101 0.914175L228.912 1.6674L228.967 3.66663ZM255.129 1.94148L255.351 9.93842L257.35 9.88303L257.128 1.8861L255.129 1.94148ZM256.323 8.91111L247.126 9.16587L247.182 11.1651L256.378 10.9103L256.323 8.91111ZM246.154 10.1932L247.484 58.1748L249.483 58.1194L248.154 10.1378L246.154 10.1932ZM248.455 57.1475L239.659 57.3912L239.714 59.3904L248.511 59.1467L248.455 57.1475ZM240.686 58.3631L239.357 10.3815L237.358 10.4369L238.687 58.4185L240.686 58.3631ZM269.668 33.7111L270.667 33.6834L270.663 33.5223L270.608 33.3708L269.668 33.7111ZM258.141 1.85804L258.114 0.858428L256.73 0.896758L257.201 2.19832L258.141 1.85804ZM267.498 1.59885L268.449 1.29223L268.22 0.578466L267.47 0.599232L267.498 1.59885ZM274.065 21.9848L273.113 22.2914L273.343 23.0052L274.092 22.9844L274.065 21.9848ZM274.225 21.9804L274.252 22.98L275.002 22.9592L275.192 22.2338L274.225 21.9804ZM279.653 1.26212L279.625 0.262499L278.876 0.283264L278.686 1.00866L279.653 1.26212ZM288.21 1.02507L289.167 1.31276L289.566 -0.0128738L288.182 0.0254561L288.21 1.02507ZM278.464 33.4674L277.507 33.1797L277.46 33.334L277.465 33.4951L278.464 33.4674ZM279.124 57.2982L279.152 58.2979L280.152 58.2702L280.124 57.2705L279.124 57.2982ZM270.328 57.5419L269.328 57.5696L269.356 58.5692L270.356 58.5415L270.328 57.5419ZM270.608 33.3708L259.082 1.51777L257.201 2.19832L268.727 34.0513L270.608 33.3708ZM258.169 2.85766L267.525 2.59847L267.47 0.599232L258.114 0.858428L258.169 2.85766ZM266.546 1.90547L273.113 22.2914L275.016 21.6782L268.449 1.29223L266.546 1.90547ZM274.092 22.9844L274.252 22.98L274.197 20.9808L274.037 20.9852L274.092 22.9844ZM275.192 22.2338L280.62 1.51557L278.686 1.00866L273.257 21.7269L275.192 22.2338ZM279.681 2.26173L288.237 2.02469L288.182 0.0254561L279.625 0.262499L279.681 2.26173ZM287.252 0.737382L277.507 33.1797L279.422 33.7551L289.167 1.31276L287.252 0.737382ZM277.465 33.4951L278.125 57.3259L280.124 57.2705L279.464 33.4397L277.465 33.4951ZM279.097 56.2986L270.3 56.5423L270.356 58.5415L279.152 58.2979L279.097 56.2986ZM271.327 57.5142L270.667 33.6834L268.668 33.7388L269.328 57.5696L271.327 57.5142Z" fill="black" fill-opacity="0.25"/>
</svg>
