<svg width="294" height="93" viewBox="0 0 294 93" fill="none" xmlns="http://www.w3.org/2000/svg">
<path d="M10.425 88.4831L9.77377 89.2421L9.78298 89.2498L10.425 88.4831ZM4.25602 38.4621L3.44689 37.8743L3.43995 37.8841L4.25602 38.4621ZM23.391 36.1022L22.7398 36.8611L22.749 36.8689L23.391 36.1022ZM28.694 51.65L28.8164 52.6425L29.8089 52.5201L29.6865 51.5276L28.694 51.65ZM20.4365 52.6684L19.4441 52.7908L19.5665 53.7833L20.5589 53.6609L20.4365 52.6684ZM22.4243 68.7863L22.3019 67.7938L21.3095 67.9162L21.4319 68.9087L22.4243 68.7863ZM30.6818 67.7679L31.6743 67.6455L31.5519 66.653L30.5594 66.7754L30.6818 67.7679ZM29.56 86.1232L28.7509 85.5355L28.744 85.5453L29.56 86.1232ZM20.3505 89.8787C16.3614 90.3707 13.3152 89.5991 11.0671 87.7164L9.78298 89.2498C12.5687 91.5827 16.2211 92.4031 20.5953 91.8637L20.3505 89.8787ZM11.0762 87.7242C8.85875 85.8214 7.43412 82.8588 6.91857 78.6786L4.93361 78.9234C5.48866 83.424 7.06331 86.9162 9.77382 89.242L11.0762 87.7242ZM6.91857 78.6786L3.23675 48.8247L1.25179 49.0695L4.93361 78.9234L6.91857 78.6786ZM3.23675 48.8247C2.72121 44.6445 3.38337 41.4245 5.07209 39.04L3.43995 37.8841C1.37575 40.7988 0.69674 44.5689 1.25179 49.0695L3.23675 48.8247ZM5.06509 39.0498C6.78843 36.6773 9.55591 35.1887 13.545 34.6968L13.3002 32.7118C8.92597 33.2513 5.5824 34.9346 3.44694 37.8744L5.06509 39.0498ZM13.545 34.6968C17.5354 34.2047 20.5485 34.9807 22.7398 36.8611L24.0423 35.3433C21.3056 32.995 17.6731 32.1725 13.3002 32.7118L13.545 34.6968ZM22.749 36.8689C25.0145 38.7661 26.4621 41.7225 26.9769 45.8969L28.9619 45.6521C28.4061 41.1457 26.8014 37.6538 24.0331 35.3355L22.749 36.8689ZM26.9769 45.8969L27.7015 51.7724L29.6865 51.5276L28.9619 45.6521L26.9769 45.8969ZM28.5716 50.6575L20.3141 51.6759L20.5589 53.6609L28.8164 52.6425L28.5716 50.6575ZM21.429 52.546L20.6359 46.1147L18.6509 46.3595L19.4441 52.7908L21.429 52.546ZM20.6359 46.1147C20.4094 44.2781 19.8317 42.7632 18.7529 41.7666C17.6433 40.7415 16.1737 40.418 14.5176 40.6223L14.7624 42.6073C16.0176 42.4525 16.8375 42.7199 17.3957 43.2356C17.9847 43.7798 18.4531 44.7555 18.6509 46.3595L20.6359 46.1147ZM14.5176 40.6223C12.8615 40.8265 11.5145 41.4973 10.6872 42.7613C9.8829 43.9901 9.69058 45.6001 9.91708 47.4366L11.902 47.1918C11.7042 45.5878 11.9215 44.5275 12.3606 43.8566C12.7768 43.2207 13.5072 42.7621 14.7624 42.6073L14.5176 40.6223ZM9.91708 47.4366L13.7458 78.4814L15.7307 78.2366L11.902 47.1918L9.91708 47.4366ZM13.7458 78.4814C13.9694 80.2945 14.5463 81.7919 15.6271 82.7752C16.7362 83.7842 18.2031 84.0981 19.8543 83.8945L19.6095 81.9095C18.3494 82.0649 17.5284 81.8011 16.9729 81.2958C16.3892 80.7648 15.9249 79.8112 15.7307 78.2366L13.7458 78.4814ZM19.8543 83.8945C21.5055 83.6908 22.8522 83.0299 23.6829 81.7817C24.4924 80.5653 24.6882 78.9726 24.4646 77.1595L22.4796 77.4043C22.6738 78.9789 22.4551 80.0167 22.0179 80.6736C21.6019 81.2988 20.8695 81.7541 19.6095 81.9095L19.8543 83.8945ZM24.4646 77.1595L23.4168 68.6639L21.4319 68.9087L22.4796 77.4043L24.4646 77.1595ZM22.5467 69.7788L30.8042 68.7604L30.5594 66.7754L22.3019 67.7938L22.5467 69.7788ZM29.6893 67.8903L30.6587 75.7507L32.6437 75.5059L31.6743 67.6455L29.6893 67.8903ZM30.6587 75.7507C31.1735 79.9252 30.4877 83.1447 28.751 85.5355L30.3691 86.7109C32.4912 83.7895 33.1994 80.0124 32.6437 75.5059L30.6587 75.7507ZM28.744 85.5453C27.0751 87.9017 24.3409 89.3866 20.3505 89.8787L20.5953 91.8637C24.9682 91.3244 28.292 89.6439 30.3761 86.7012L28.744 85.5453ZM41.0444 84.6263L41.6859 83.8591L41.0444 84.6263ZM34.895 34.764L35.7036 35.3524L34.895 34.764ZM54.5858 32.3356L53.9444 33.1028L54.5858 32.3356ZM60.7352 82.1978L59.9266 81.6095L60.7352 82.1978ZM51.2179 86.0719C47.122 86.577 43.9931 85.7882 41.6859 83.8591L40.403 85.3934C43.2485 87.7727 46.9835 88.6093 51.4627 88.0569L51.2179 86.0719ZM41.6859 83.8591C39.3616 81.9157 37.8777 78.8837 37.3498 74.6031L35.3648 74.8479C35.9336 79.4599 37.5745 83.0285 40.403 85.3934L41.6859 83.8591ZM37.3498 74.6031L33.7463 45.3845L31.7614 45.6293L35.3648 74.8479L37.3498 74.6031ZM33.7463 45.3845C33.2184 41.1039 33.9212 37.8022 35.7036 35.3524L34.0864 34.1757C31.9173 37.157 31.1926 41.0173 31.7614 45.6293L33.7463 45.3845ZM35.7036 35.3524C37.473 32.9205 40.3165 31.3951 44.4124 30.89L44.1676 28.905C39.6885 29.4574 36.2686 31.1764 34.0864 34.1757L35.7036 35.3524ZM44.4124 30.89C48.5083 30.3848 51.6372 31.1737 53.9444 33.1028L55.2273 31.5684C52.3817 29.1892 48.6467 28.3526 44.1676 28.905L44.4124 30.89ZM53.9444 33.1028C56.2687 35.0462 57.7525 38.0781 58.2804 42.3587L60.2654 42.1139C59.6966 37.5019 58.0557 33.9334 55.2273 31.5684L53.9444 33.1028ZM58.2804 42.3587L61.8839 71.5774L63.8689 71.3326L60.2654 42.1139L58.2804 42.3587ZM61.8839 71.5774C62.4118 75.858 61.7091 79.1596 59.9266 81.6095L61.5439 82.7862C63.713 79.8049 64.4377 75.9446 63.8689 71.3326L61.8839 71.5774ZM59.9266 81.6095C58.1573 84.0414 55.3138 85.5668 51.2179 86.0719L51.4627 88.0569C55.9418 87.5045 59.3616 85.7855 61.5439 82.7862L59.9266 81.6095ZM50.4835 80.117C52.2003 79.9053 53.5853 79.1977 54.4295 77.874C55.2483 76.5903 55.4426 74.9034 55.2036 72.9655L53.2186 73.2103C53.4301 74.9247 53.2079 76.0701 52.7433 76.7986C52.3042 77.4871 51.539 77.9717 50.2387 78.132L50.4835 80.117ZM55.2036 72.9655L51.463 42.6353L49.4781 42.8801L53.2186 73.2103L55.2036 72.9655ZM51.463 42.6353C51.224 40.6973 50.6257 39.1082 49.5196 38.0619C48.379 36.983 46.8636 36.6331 45.1468 36.8449L45.3916 38.8298C46.6919 38.6694 47.5519 38.9536 48.1452 39.5148C48.7729 40.1086 49.2666 41.1657 49.4781 42.8801L51.463 42.6353ZM45.1468 36.8449C43.43 37.0566 42.0449 37.7641 41.2007 39.0878C40.382 40.3715 40.1876 42.0584 40.4266 43.9964L42.4116 43.7516C42.2002 42.0372 42.4223 40.8918 42.8869 40.1633C43.326 39.4748 44.0913 38.9902 45.3916 38.8298L45.1468 36.8449ZM40.4266 43.9964L44.1672 74.3266L46.1522 74.0818L42.4116 43.7516L40.4266 43.9964ZM44.1672 74.3266C44.4062 76.2645 45.0046 77.8537 46.1107 78.9C47.2512 79.9789 48.7666 80.3287 50.4835 80.117L50.2387 78.132C48.9383 78.2924 48.0783 78.0082 47.4851 77.4471C46.8574 76.8533 46.3636 75.7962 46.1522 74.0818L44.1672 74.3266ZM63.5539 28.3278L63.4315 27.3353L62.4391 27.4577L62.5615 28.4502L63.5539 28.3278ZM76.0195 26.7904L76.9855 26.5318L76.7605 25.6914L75.8971 25.7979L76.0195 26.7904ZM86.4832 65.8836L85.5172 66.1421L85.7422 66.9826L86.6056 66.8761L86.4832 65.8836ZM86.642 65.864L86.7644 66.8565L87.6279 66.75L87.6419 65.8801L86.642 65.864ZM87.2941 25.3999L87.1717 24.4074L86.3082 24.5139L86.2942 25.3838L87.2941 25.3999ZM99.7596 23.8626L100.752 23.7402L100.63 22.7477L99.6372 22.8701L99.7596 23.8626ZM106.614 79.4415L106.736 80.434L107.729 80.3116L107.607 79.3191L106.614 79.4415ZM98.3566 80.4599L97.3642 80.5823L97.4866 81.5748L98.479 81.4524L98.3566 80.4599ZM93.1669 38.3787L94.1593 38.2563L94.0369 37.2638L93.0445 37.3862L93.1669 38.3787ZM93.0081 38.3983L92.8857 37.4058L92.0317 37.5111L92.0084 38.3712L93.0081 38.3983ZM91.846 81.2628L91.9684 82.2553L92.8223 82.15L92.8456 81.2899L91.846 81.2628ZM84.5413 82.1637L83.5782 82.4329L83.8098 83.2615L84.6637 83.1562L84.5413 82.1637ZM72.9996 40.8659L73.9627 40.5967L73.7312 39.7681L72.8772 39.8734L72.9996 40.8659ZM72.8408 40.8855L72.7184 39.893L71.726 40.0154L71.8484 41.0079L72.8408 40.8855ZM78.0306 82.9666L78.153 83.9591L79.1455 83.8367L79.0231 82.8442L78.0306 82.9666ZM70.4084 83.9067L69.4159 84.0291L69.5383 85.0216L70.5308 84.8992L70.4084 83.9067ZM63.6763 29.3202L76.1419 27.7829L75.8971 25.7979L63.4315 27.3353L63.6763 29.3202ZM75.0535 27.049L85.5172 66.1421L87.4492 65.625L76.9855 26.5318L75.0535 27.049ZM86.6056 66.8761L86.7644 66.8565L86.5196 64.8715L86.3608 64.8911L86.6056 66.8761ZM87.6419 65.8801L88.2939 25.416L86.2942 25.3838L85.6421 65.8479L87.6419 65.8801ZM87.4165 26.3924L99.882 24.8551L99.6372 22.8701L87.1717 24.4074L87.4165 26.3924ZM98.7672 23.985L105.622 79.5639L107.607 79.3191L100.752 23.7402L98.7672 23.985ZM106.492 78.449L98.2342 79.4674L98.479 81.4524L106.736 80.434L106.492 78.449ZM99.3491 80.3375L94.1593 38.2563L92.1744 38.5011L97.3642 80.5823L99.3491 80.3375ZM93.0445 37.3862L92.8857 37.4058L93.1305 39.3908L93.2893 39.3712L93.0445 37.3862ZM92.0084 38.3712L90.8463 81.2357L92.8456 81.2899L94.0077 38.4254L92.0084 38.3712ZM91.7236 80.2703L84.4189 81.1712L84.6637 83.1562L91.9684 82.2553L91.7236 80.2703ZM85.5044 81.8945L73.9627 40.5967L72.0365 41.135L83.5782 82.4329L85.5044 81.8945ZM72.8772 39.8734L72.7184 39.893L72.9632 41.8779L73.122 41.8584L72.8772 39.8734ZM71.8484 41.0079L77.0382 83.089L79.0231 82.8442L73.8333 40.7631L71.8484 41.0079ZM77.9082 81.9742L70.286 82.9142L70.5308 84.8992L78.153 83.9591L77.9082 81.9742ZM71.4009 83.7843L64.5464 28.2054L62.5615 28.4502L69.4159 84.0291L71.4009 83.7843ZM106.277 23.0588L106.155 22.0663L105.162 22.1887L105.285 23.1812L106.277 23.0588ZM118.743 21.5214L119.709 21.2629L119.484 20.4225L118.62 20.5289L118.743 21.5214ZM129.206 60.6146L128.24 60.8732L128.465 61.7136L129.329 61.6071L129.206 60.6146ZM129.365 60.595L129.488 61.5875L130.351 61.481L130.365 60.6111L129.365 60.595ZM130.017 20.131L129.895 19.1385L129.031 19.245L129.017 20.1148L130.017 20.131ZM142.483 18.5936L143.475 18.4712L143.353 17.4787L142.36 17.6011L142.483 18.5936ZM149.337 74.1725L149.46 75.165L150.452 75.0426L150.33 74.0501L149.337 74.1725ZM141.08 75.1909L140.087 75.3133L140.21 76.3058L141.202 76.1834L141.08 75.1909ZM135.89 33.1097L136.883 32.9873L136.76 31.9948L135.768 32.1172L135.89 33.1097ZM135.731 33.1293L135.609 32.1368L134.755 32.2421L134.732 33.1022L135.731 33.1293ZM134.569 75.9938L134.692 76.9863L135.545 76.881L135.569 76.021L134.569 75.9938ZM127.265 76.8947L126.301 77.1639L126.533 77.9925L127.387 77.8872L127.265 76.8947ZM115.723 35.5969L116.686 35.3277L116.454 34.4991L115.6 34.6044L115.723 35.5969ZM115.564 35.6165L115.442 34.624L114.449 34.7464L114.572 35.7389L115.564 35.6165ZM120.754 77.6977L120.876 78.6901L121.869 78.5677L121.746 77.5753L120.754 77.6977ZM113.132 78.6377L112.139 78.7601L112.261 79.7526L113.254 79.6302L113.132 78.6377ZM106.4 24.0513L118.865 22.5139L118.62 20.5289L106.155 22.0663L106.4 24.0513ZM117.777 21.78L128.24 60.8732L130.172 60.3561L119.709 21.2629L117.777 21.78ZM129.329 61.6071L129.488 61.5875L129.243 59.6025L129.084 59.6221L129.329 61.6071ZM130.365 60.6111L131.017 20.1471L129.017 20.1148L128.365 60.5789L130.365 60.6111ZM130.14 21.1234L142.605 19.5861L142.36 17.6011L129.895 19.1385L130.14 21.1234ZM141.49 18.716L148.345 74.2949L150.33 74.0501L143.475 18.4712L141.49 18.716ZM149.215 73.18L140.957 74.1984L141.202 76.1834L149.46 75.165L149.215 73.18ZM142.072 75.0685L136.883 32.9873L134.898 33.2321L140.087 75.3133L142.072 75.0685ZM135.768 32.1172L135.609 32.1368L135.854 34.1218L136.012 34.1022L135.768 32.1172ZM134.732 33.1022L133.57 75.9667L135.569 76.021L136.731 33.1564L134.732 33.1022ZM134.447 75.0014L127.142 75.9022L127.387 77.8872L134.692 76.9863L134.447 75.0014ZM128.228 76.6256L116.686 35.3277L114.76 35.8661L126.301 77.1639L128.228 76.6256ZM115.6 34.6044L115.442 34.624L115.686 36.609L115.845 36.5894L115.6 34.6044ZM114.572 35.7389L119.761 77.8201L121.746 77.5753L116.557 35.4941L114.572 35.7389ZM120.631 76.7052L113.009 77.6452L113.254 79.6302L120.876 78.6901L120.631 76.7052ZM114.124 78.5153L107.27 22.9364L105.285 23.1812L112.139 78.7601L114.124 78.5153ZM158.529 70.2177L157.879 70.9773L157.887 70.9844L158.529 70.2177ZM148.683 17.829L148.56 16.8365L147.568 16.9589L147.69 17.9514L148.683 17.829ZM157.417 16.7519L158.409 16.6295L158.287 15.637L157.294 15.7594L157.417 16.7519ZM164.345 63.7775L163.678 64.5231L163.691 64.5346L163.704 64.5455L164.345 63.7775ZM170.935 62.9647L170.127 62.3752L170.117 62.3891L170.107 62.4033L170.935 62.9647ZM166.309 15.6551L166.187 14.6627L165.194 14.7851L165.317 15.7775L166.309 15.6551ZM174.725 14.6172L175.718 14.4948L175.596 13.5023L174.603 13.6247L174.725 14.6172ZM177.902 67.8284L178.712 68.4162L178.718 68.4072L177.902 67.8284ZM168.534 71.6035C164.488 72.1025 161.417 71.3315 159.171 69.451L157.887 70.9844C160.675 73.3194 164.356 74.1339 168.779 73.5885L168.534 71.6035ZM159.18 69.4581C156.906 67.5109 155.44 64.4482 154.904 60.1054L152.919 60.3502C153.493 65.0058 155.106 68.603 157.879 70.9773L159.18 69.4581ZM154.904 60.1054L149.675 17.7066L147.69 17.9514L152.919 60.3502L154.904 60.1054ZM148.805 18.8215L157.539 17.7443L157.294 15.7594L148.56 16.8365L148.805 18.8215ZM156.424 16.8743L161.731 59.9082L163.716 59.6634L158.409 16.6295L156.424 16.8743ZM161.731 59.9082C161.977 61.9006 162.563 63.5266 163.678 64.5231L165.011 63.0318C164.435 62.5173 163.941 61.4821 163.716 59.6634L161.731 59.9082ZM163.704 64.5455C164.862 65.5111 166.323 65.8307 167.958 65.629L167.714 63.6441C166.491 63.7949 165.624 63.5418 164.985 63.0094L163.704 64.5455ZM167.958 65.629C169.591 65.4277 170.922 64.7645 171.762 63.5261L170.107 62.4033C169.674 63.0415 168.94 63.4929 167.714 63.6441L167.958 65.629ZM171.742 63.5542C172.653 62.3069 172.856 60.5719 172.609 58.5667L170.624 58.8115C170.847 60.6174 170.596 61.7329 170.127 62.3752L171.742 63.5542ZM172.609 58.5667L167.302 15.5327L165.317 15.7775L170.624 58.8115L172.609 58.5667ZM166.432 16.6476L174.848 15.6097L174.603 13.6247L166.187 14.6627L166.432 16.6476ZM173.733 14.7396L178.962 57.1384L180.947 56.8936L175.718 14.4948L173.733 14.7396ZM178.962 57.1384C179.498 61.4812 178.82 64.8083 177.087 67.2496L178.718 68.4072C180.831 65.4305 181.521 61.5492 180.947 56.8936L178.962 57.1384ZM177.093 67.2407C175.372 69.6104 172.58 71.1045 168.534 71.6035L168.779 73.5885C173.202 73.043 176.574 71.3587 178.711 68.4161L177.093 67.2407ZM180.946 13.85L180.823 12.8576L179.831 12.98L179.953 13.9724L180.946 13.85ZM191.903 12.4987L192.834 12.1346L192.551 11.4112L191.78 11.5063L191.903 12.4987ZM204.501 44.7189L203.57 45.0831L203.853 45.8065L204.624 45.7114L204.501 44.7189ZM204.66 44.6993L204.783 45.6918L205.775 45.5694L205.653 44.5769L204.66 44.6993ZM200.557 11.4314L200.435 10.4389L199.442 10.5613L199.565 11.5538L200.557 11.4314ZM208.338 10.4718L209.331 10.3494L209.208 9.35689L208.216 9.47929L208.338 10.4718ZM215.193 66.0507L215.315 67.0432L216.308 66.9208L216.185 65.9283L215.193 66.0507ZM206.221 67.1572L205.29 67.5239L205.574 68.2445L206.343 68.1497L206.221 67.1572ZM190.736 27.8771L191.667 27.5104L191.383 26.7899L190.614 26.8847L190.736 27.8771ZM190.578 27.8967L190.455 26.9042L189.463 27.0266L189.585 28.0191L190.578 27.8967ZM195.581 68.4693L195.704 69.4618L196.696 69.3394L196.574 68.3469L195.581 68.4693ZM187.8 69.429L186.808 69.5514L186.93 70.5438L187.923 70.4214L187.8 69.429ZM181.068 14.8425L192.025 13.4912L191.78 11.5063L180.823 12.8576L181.068 14.8425ZM190.971 12.8629L203.57 45.0831L205.433 44.3548L192.834 12.1346L190.971 12.8629ZM204.624 45.7114L204.783 45.6918L204.538 43.7069L204.379 43.7265L204.624 45.7114ZM205.653 44.5769L201.55 11.309L199.565 11.5538L203.668 44.8217L205.653 44.5769ZM200.68 12.4239L208.461 11.4643L208.216 9.47929L200.435 10.4389L200.68 12.4239ZM207.346 10.5942L214.2 66.1731L216.185 65.9283L209.331 10.3494L207.346 10.5942ZM215.07 65.0582L206.098 66.1647L206.343 68.1497L215.315 67.0432L215.07 65.0582ZM207.151 66.7905L191.667 27.5104L189.806 28.2439L205.29 67.5239L207.151 66.7905ZM190.614 26.8847L190.455 26.9042L190.7 28.8892L190.859 28.8696L190.614 26.8847ZM189.585 28.0191L194.589 68.5917L196.574 68.3469L191.57 27.7743L189.585 28.0191ZM195.459 67.4769L187.678 68.4365L187.923 70.4214L195.704 69.4618L195.459 67.4769ZM188.793 69.3066L181.938 13.7276L179.953 13.9724L186.808 69.5514L188.793 69.3066ZM214.83 9.6712L214.707 8.67872L213.715 8.80112L213.837 9.7936L214.83 9.6712ZM223.564 8.59407L224.556 8.47167L224.434 7.47919L223.441 7.60159L223.564 8.59407ZM230.418 64.173L230.54 65.1655L231.533 65.0431L231.41 64.0506L230.418 64.173ZM221.684 65.2501L220.692 65.3725L220.814 66.365L221.807 66.2426L221.684 65.2501ZM214.952 10.6637L223.686 9.58655L223.441 7.60159L214.707 8.67872L214.952 10.6637ZM222.571 8.71647L229.426 64.2954L231.41 64.0506L224.556 8.47167L222.571 8.71647ZM230.296 63.1805L221.562 64.2576L221.807 66.2426L230.54 65.1655L230.296 63.1805ZM222.677 65.1277L215.822 9.5488L213.837 9.7936L220.692 65.3725L222.677 65.1277ZM237.912 14.8851L238.905 14.7627L238.782 13.7702L237.79 13.8926L237.912 14.8851ZM228.781 16.0112L227.789 16.1336L227.911 17.1261L228.904 17.0037L228.781 16.0112ZM227.802 8.07134L227.68 7.07886L226.687 7.20126L226.81 8.19374L227.802 8.07134ZM254.798 4.74204L255.79 4.61964L255.668 3.62716L254.675 3.74956L254.798 4.74204ZM255.777 12.6819L255.899 13.6744L256.892 13.552L256.769 12.5595L255.777 12.6819ZM246.646 13.808L246.524 12.8155L245.531 12.9379L245.653 13.9304L246.646 13.808ZM252.521 61.447L252.644 62.4395L253.636 62.3171L253.514 61.3246L252.521 61.447ZM243.787 62.5242L242.795 62.6466L242.917 63.6391L243.91 63.5167L243.787 62.5242ZM237.79 13.8926L228.659 15.0187L228.904 17.0037L238.034 15.8776L237.79 13.8926ZM229.774 15.8888L228.795 7.94894L226.81 8.19374L227.789 16.1336L229.774 15.8888ZM227.924 9.06382L254.92 5.73452L254.675 3.74956L227.68 7.07886L227.924 9.06382ZM253.805 4.86444L254.784 12.8043L256.769 12.5595L255.79 4.61964L253.805 4.86444ZM255.654 11.6894L246.524 12.8155L246.768 14.8005L255.899 13.6744L255.654 11.6894ZM245.653 13.9304L251.529 61.5695L253.514 61.3246L247.638 13.6856L245.653 13.9304ZM252.399 60.4546L243.665 61.5317L243.91 63.5167L252.644 62.4395L252.399 60.4546ZM244.78 62.4018L238.905 14.7627L236.92 15.0075L242.795 62.6466L244.78 62.4018ZM271.292 35.1115L272.284 34.9891L272.265 34.8292L272.196 34.6835L271.292 35.1115ZM256.796 4.49563L256.673 3.50315L255.299 3.67257L255.892 4.92358L256.796 4.49563ZM266.085 3.34996L267.004 2.95443L266.707 2.26569L265.963 2.35748L266.085 3.34996ZM274.557 23.021L273.638 23.4165L273.935 24.1052L274.679 24.0134L274.557 23.021ZM274.715 23.0014L274.838 23.9939L275.582 23.9021L275.702 23.1619L274.715 23.0014ZM278.154 1.86157L278.031 0.869088L277.287 0.960874L277.167 1.70103L278.154 1.86157ZM286.649 0.813818L287.63 1.00935L287.901 -0.348084L286.527 -0.178662L286.649 0.813818ZM280.026 34.0343L279.045 33.8388L279.014 33.9968L279.033 34.1567L280.026 34.0343ZM282.944 57.6951L283.066 58.6876L284.059 58.5652L283.936 57.5727L282.944 57.6951ZM274.21 58.7722L273.217 58.8946L273.34 59.8871L274.332 59.7647L274.21 58.7722ZM272.196 34.6835L257.699 4.06769L255.892 4.92358L270.388 35.5394L272.196 34.6835ZM256.918 5.48811L266.208 4.34244L265.963 2.35748L256.673 3.50315L256.918 5.48811ZM265.167 3.7455L273.638 23.4165L275.475 22.6254L267.004 2.95443L265.167 3.7455ZM274.679 24.0134L274.838 23.9939L274.593 22.0089L274.434 22.0285L274.679 24.0134ZM275.702 23.1619L279.141 2.02211L277.167 1.70103L273.728 22.8408L275.702 23.1619ZM278.276 2.85405L286.772 1.8063L286.527 -0.178662L278.031 0.869088L278.276 2.85405ZM285.669 0.618283L279.045 33.8388L281.006 34.2299L287.63 1.00935L285.669 0.618283ZM279.033 34.1567L281.951 57.8175L283.936 57.5727L281.018 33.9119L279.033 34.1567ZM282.821 56.7026L274.088 57.7797L274.332 59.7647L283.066 58.6876L282.821 56.7026ZM275.202 58.6498L272.284 34.9891L270.299 35.2339L273.217 58.8946L275.202 58.6498Z" fill="black" fill-opacity="0.25"/>
</svg>
