<svg width="39" height="62" viewBox="0 0 39 62" fill="none" xmlns="http://www.w3.org/2000/svg">
<path d="M23.2292 25.7646C23.3966 25.3977 23.633 25.0686 23.9246 24.7962C24.2162 24.5238 24.5573 24.3136 24.9283 24.1777C25.2992 24.0418 25.6926 23.9828 26.0858 24.0043C26.479 24.0258 26.8642 24.1272 27.2191 24.3027C27.9518 24.7751 28.5276 25.4658 28.87 26.2831C29.2124 27.1004 29.3051 28.0056 29.1359 28.8785C29.0663 29.7368 28.6998 30.5409 28.1031 31.1445C27.5064 31.7482 26.7191 32.1113 25.8844 32.1678M25.8844 32.1678V34.6384M21 36.1003C25.2596 34.4484 29.5193 33.4689 34.0345 35.3255L35 45.2226C33.7211 48.2117 31.8097 50.8689 29.4057 53C25.8134 51.3117 22.9521 48.3188 21.3692 44.594L21 36.1003Z" stroke="black" stroke-width="3" stroke-linecap="round" stroke-linejoin="round"/>
<path d="M22.6148 25.4098L20.441 25.6182L21.9 15.5566C21.4769 13.9938 19.8429 12.5798 19.1571 13.1156C16.3997 23.1921 13.6715 33.2835 13.1755 43.9404L2 57.7677C4.77199 58.0803 7.60233 58.5268 9.80534 57.7677L19.5073 49.7899C19.7065 49.5927 19.9449 49.4414 20.2063 49.3462C20.4678 49.2511 20.7462 49.2142 21.0227 49.2382C21.2993 49.2622 21.5676 49.3464 21.8096 49.4853C22.0515 49.6241 22.2614 49.8142 22.4252 50.0429L32.7545 59.8366C35.2493 60.3575 36.5477 59.5389 37 58.7054L31.1642 50.802" stroke="black" stroke-width="3" stroke-linecap="round" stroke-linejoin="round"/>
<path d="M22.2542 15.6828C23.7224 15.8444 27.2836 17.152 22.8477 12.9354C21.2233 11.3487 17.9745 9.36529 19.3178 13.2734" stroke="black" stroke-width="3" stroke-linecap="round" stroke-linejoin="round"/>
<path d="M23.5508 13L32.931 6.08366L34 2L28.9862 3.00654L22 11.634" stroke="black" stroke-width="3" stroke-linecap="round" stroke-linejoin="round"/>
</svg>
