<svg width="209" height="94" viewBox="0 0 209 94" fill="none" xmlns="http://www.w3.org/2000/svg">
<path d="M89.3914 80.0278C93.3693 79.2202 98.277 78.8245 102.542 77.2593C111.461 73.922 120.166 70.1949 128.871 66.4678C145.34 59.3129 161.922 51.9973 179.834 44.1753C166.569 40.152 152.252 43.5413 140.97 32.5172C143.466 31.3901 144.92 30.0117 145.962 30.2629C162.314 34.0533 178.835 34.1262 195.265 32.9373C208.771 32.0959 211.832 37.1175 205.652 48.368C199.134 60.1007 193.76 72.6352 187.733 84.7115C186.82 86.7089 184.815 88.1797 183.074 90.3156C178.3 82.1753 178.3 82.1753 189.205 54.1002C186.433 55.2736 184.162 56.0793 182.055 56.9995C160.808 66.7986 139.725 76.7122 118.264 86.1215C111.277 89.1353 103.863 91.3695 96.4081 92.6171C83.1558 94.8349 74.7199 88.4427 73.1123 75.09C72.2832 68.2761 73.1105 61.1849 74.2648 54.3228C75.5428 46.5886 78.1394 39.0594 79.857 31.3936C80.9888 25.9542 81.5178 20.3318 82.4354 14.5026C76.0174 12.8807 71.4649 15.2034 66.811 16.9756C47.1415 24.5241 29.2473 34.7554 12.362 47.3718C10.3563 48.8427 8.5647 50.7033 6.18139 51.6698C4.85169 52.1761 2.49072 51.7198 1.18337 50.8035C0.529697 50.3453 0.461737 47.6607 0.974347 46.5817C2.72635 43.7344 5.03054 40.7948 7.48696 38.6809C25.0199 23.402 44.7564 11.5855 66.6346 3.66722C71.0125 1.9413 75.8187 0.995055 80.4503 0.645599C88.8852 0.0852979 94.1654 4.02595 94.8595 12.4233C95.4126 19.2835 94.4218 26.2601 93.1042 33.0077C91.2404 42.9683 88.1708 52.5631 86.307 62.5237C85.4512 67.9169 84.8096 73.7 89.3914 80.0278Z" fill="black"/>
</svg>
