<svg width="36" height="58" viewBox="0 0 36 58" fill="none" xmlns="http://www.w3.org/2000/svg">
<path fill-rule="evenodd" clip-rule="evenodd" d="M16.6936 0.668467C6.47705 1.35959 1.1383 7.6503 0.672119 19.0261H10.9782C11.1073 15.0856 13.1301 12.1397 16.8964 11.7054C20.5934 11.2787 24.1008 12.2361 25.1631 14.9844C26.3106 17.9531 23.7347 21.403 22.51 22.8511C20.2431 25.5364 16.5611 27.4952 14.6524 30.3923C12.7815 33.2313 12.4488 36.9666 12.3048 41.5381H21.388C21.5153 38.6151 21.6944 35.8153 22.9173 33.9988C24.9068 31.0472 27.8777 29.664 30.3675 27.3329C32.7459 25.1049 35.248 22.4196 35.6729 18.2634C36.9486 5.82418 27.6099 -0.0722911 16.6936 0.668467Z" fill="black"/>
<path d="M16.9272 57.8815C20.0944 57.8815 22.6619 55.1322 22.6619 51.7407C22.6619 48.3492 20.0944 45.5999 16.9272 45.5999C13.76 45.5999 11.1925 48.3492 11.1925 51.7407C11.1925 55.1322 13.76 57.8815 16.9272 57.8815Z" fill="black"/>
</svg>
