<svg width="55" height="102" viewBox="0 0 55 102" fill="none" xmlns="http://www.w3.org/2000/svg">
<path fill-rule="evenodd" clip-rule="evenodd" d="M4.32087 54.3535C4.79178 54.4337 5.25997 54.6991 5.69693 54.9469L5.70518 54.9516C5.80657 55.009 5.90633 55.0655 6.00405 55.1184C6.88749 55.5755 7.75921 56.0619 8.59992 56.6006C8.78696 56.7227 8.97371 56.846 9.1606 56.9694L9.44449 57.1566L9.61618 57.2694C9.99796 57.5196 10.3817 57.7668 10.7707 58.0023C10.2771 57.0469 9.75066 56.1058 9.22418 55.1646C8.99931 54.7626 8.77449 54.3607 8.55222 53.9576C8.34159 53.5824 8.13121 53.2102 7.92027 52.839C7.67036 52.3993 7.41961 51.961 7.16663 51.5208C7.12656 51.4511 7.08478 51.3811 7.04206 51.3108C7.00523 51.2502 6.96774 51.1894 6.93004 51.1282L6.92763 51.1243C6.49914 50.4294 6.04481 49.6925 6.30086 48.8552C6.94617 46.7571 9.69005 47.7684 11.2089 48.3282L11.2183 48.3316L11.23 48.336L11.3236 48.3704C11.3725 48.3884 11.42 48.4058 11.4659 48.4224C12.3048 48.7325 13.1262 49.0869 13.9494 49.4421L13.9525 49.4436L14.3272 49.6051C14.7885 49.7716 15.2486 49.924 15.7151 50.0688C15.9303 50.1151 16.1448 50.1592 16.359 50.2025C16.5141 50.2337 16.6689 50.2645 16.8237 50.2952L16.8632 50.3031L16.8661 50.3036L17.1416 50.3584L17.3051 50.3912C17.5274 50.4359 17.7495 50.4813 17.9718 50.5289C18.0887 50.554 18.2057 50.5796 18.3227 50.606C19.2357 50.8263 20.1358 51.0619 21.0358 51.2975C21.1503 51.3215 21.2653 51.345 21.3805 51.3677C21.4921 51.3898 21.604 51.4113 21.716 51.432C21.8128 51.4499 21.9098 51.4673 22.0067 51.4841C22.1205 51.5038 22.2343 51.5227 22.3481 51.5406C22.4149 51.5498 22.4815 51.5577 22.5482 51.5648C22.7035 51.5813 22.8586 51.5929 23.0135 51.6046C23.0599 51.5651 23.1061 51.5257 23.1513 51.4721L23.2995 51.2963C23.3628 51.2057 23.4196 51.1229 23.4752 51.0259C23.6325 50.725 23.7594 50.4207 23.889 50.1103L23.9226 50.0297C24.0412 49.6718 24.1597 49.314 24.2565 48.951C24.3776 48.3729 24.45 47.8061 24.5135 47.2187C24.5338 46.7912 24.5606 46.356 24.5593 45.9232C24.5434 45.5698 24.5134 45.2175 24.4692 44.8664C24.4183 44.601 24.3608 44.3434 24.2957 44.0793C24.2053 43.7676 24.0944 43.4648 23.9758 43.1556C23.8741 42.9326 23.7654 42.7126 23.6537 42.4938C23.5738 42.3373 23.4925 42.1815 23.4111 42.0256C22.7044 40.8935 21.9385 39.8162 21.1174 38.7578C21.1339 38.7807 21.1504 38.8034 21.1668 38.8258C20.4112 37.8749 19.6555 36.9243 18.8938 35.9808L18.7176 35.7642C17.8977 34.7548 17.0818 33.7506 16.1562 32.836C15.8556 32.5564 15.5498 32.2986 15.2235 32.0497C14.4315 31.4997 13.6302 31.0073 12.8096 30.5379C11.8215 30.0188 10.8334 29.4998 9.84655 28.9948C8.91965 28.5273 7.96292 28.1261 6.99449 27.7545C6.56263 27.5996 6.13307 27.473 5.69716 27.354C5.07685 27.2366 4.45133 27.1408 3.82047 27.0668C3.44976 27.0457 3.07632 27.049 2.706 27.0522L2.55892 27.0534L2.47104 27.054C1.64252 27.0749 0.762688 26.6602 0.519187 25.8009C0.429993 25.5033 0.384235 25.2163 0.44233 24.8991C0.489964 24.6254 0.611718 24.3879 0.747499 24.1492C0.795272 24.0612 0.853924 23.9758 0.918636 23.8925C1.01281 23.771 1.11982 23.6538 1.22465 23.539L1.22572 23.5378L1.22928 23.5338L1.23319 23.5295C1.26529 23.4943 1.2971 23.4595 1.32828 23.4248C1.36491 23.384 1.40065 23.3434 1.43476 23.3029C1.63217 23.0688 1.82988 22.8381 2.02676 22.6085C2.22199 22.3808 2.41647 22.154 2.60904 21.9255C2.77961 21.7232 2.95038 21.521 3.12114 21.3188L3.12315 21.3164C4.48741 19.7012 5.85164 18.0859 7.1193 16.3892C7.6272 15.6874 8.15471 15.0021 8.68221 14.3168C8.81414 14.1454 8.94608 13.9741 9.07769 13.8024C9.3694 13.3944 9.6546 12.9939 9.93866 12.5794C9.97366 12.5276 10.0085 12.4756 10.0431 12.4235C10.0865 12.3584 10.1297 12.2932 10.1729 12.2279L10.1741 12.2261C10.4072 11.8742 10.6404 11.5222 10.8992 11.1918C11.0591 10.9866 11.2331 10.7802 11.4007 10.5814C11.9457 9.98145 12.5165 9.35086 13.0785 8.69979C13.5948 8.0984 14.1306 7.51345 14.6665 6.9285C14.8811 6.69421 15.0956 6.45997 15.3089 6.22466C15.3543 6.17475 15.3996 6.12472 15.4449 6.07469L15.5227 5.98854C15.8069 5.67373 16.0911 5.35892 16.3949 5.0606C16.4753 4.97934 16.5581 4.90012 16.6424 4.82195C16.6831 4.78418 16.7242 4.74667 16.7655 4.70933C16.8381 4.64372 16.9113 4.57858 16.9846 4.51333L16.991 4.50772L16.9927 4.50602C17.168 4.35018 17.3441 4.19359 17.5134 4.02852C18.4089 3.07794 19.2539 2.07422 20.0947 1.07549L20.3771 0.740138C21.0035 0.0125875 22.1296 -0.0975356 22.8713 0.527692C22.9936 0.630801 23.0954 0.742758 23.1767 0.863616C23.9562 1.18233 24.5229 1.90493 25.0483 2.575C25.1523 2.70761 25.2547 2.83814 25.3567 2.96307C25.9838 3.73589 26.6345 4.48529 27.285 5.23445C27.8191 5.84943 28.353 6.46428 28.8735 7.09184C30.1159 8.59693 31.3543 10.1378 32.3292 11.8361C33.0116 13.0446 33.6438 14.2723 34.278 15.5039L34.2787 15.5052C34.4246 15.7887 34.5708 16.0725 34.7177 16.3563C34.8154 16.5451 34.9135 16.7341 35.0121 16.923C35.8772 18.5809 36.6114 20.2854 37.2441 22.0483C37.8893 23.8739 38.514 25.7084 38.9719 27.5855C39.2982 28.9449 39.5332 30.3409 39.7667 31.7282L39.7678 31.7349C39.8409 32.1694 39.9139 32.603 39.9895 33.0343C40.3106 34.8875 40.5754 36.7456 40.7068 38.6221C40.8495 40.5474 40.7719 42.4701 40.6304 44.3911C40.493 46.2763 40.2633 48.1623 39.9825 50.0314C39.7292 51.8058 39.3313 53.55 38.7595 55.2523C38.4651 56.129 38.0315 56.9536 37.575 57.759L37.5327 57.833C37.5042 57.8829 37.4753 57.9325 37.4463 57.982C37.4294 58.0109 37.4123 58.0398 37.3951 58.0686C37.3793 58.0953 37.3633 58.1218 37.3473 58.1483C37.2574 58.2973 37.1653 58.4444 37.0709 58.5896C37.9226 59.0067 38.8064 59.3856 39.6879 59.7364L40.8142 60.1805L40.8394 60.1904C41.1694 60.3204 41.499 60.4502 41.8284 60.5803C42.154 60.7089 42.4794 60.8378 42.8051 60.9676C43.0731 61.0744 43.3413 61.1818 43.6098 61.29C44.2003 61.5284 44.7862 61.78 45.3732 62.0321L45.3865 62.0378L45.3934 62.0408L45.3946 62.0413C45.6706 62.1598 45.9467 62.2785 46.2236 62.3959C46.5094 62.5171 46.796 62.6369 47.0842 62.7541C47.64 62.948 48.1947 63.1278 48.7611 63.2783C49.4196 63.428 50.077 63.5636 50.7525 63.6622C51.2488 63.7406 51.7621 63.7678 52.2467 63.8756C52.6803 63.9664 53.0635 64.1325 53.4385 64.3702C54.2857 64.9012 54.6079 66.1015 54.0346 66.9523C53.7699 67.3438 53.3945 67.6029 53.0051 67.8632C52.7059 68.0697 52.4116 68.2802 52.1215 68.4877L52.1183 68.4901L51.9008 68.6456C51.258 69.0977 50.6394 69.5833 50.0208 70.069C49.0216 70.8353 47.9905 71.5619 46.8759 72.1394C46.1349 72.5219 45.4028 72.9248 44.6783 73.3343C44.4032 73.5097 44.1291 73.6867 43.8561 73.8655L44.1558 74.0317C44.3237 74.1249 44.4917 74.218 44.6598 74.311C44.8663 74.4253 45.073 74.5392 45.2803 74.6527C46.0603 75.0617 46.8391 75.4567 47.6554 75.7917C48.1216 75.7662 48.5905 75.9391 48.9627 76.2267C49.6001 76.7118 49.7739 77.6692 49.4434 78.3716C49.2528 78.7994 48.9298 79.0895 48.5396 79.2576C48.4018 79.39 48.264 79.5223 48.111 79.6418L48.1059 79.6459C47.9624 79.7582 47.8189 79.8705 47.6753 79.9817C47.4744 80.1374 47.2734 80.2911 47.0719 80.44C46.5037 80.8503 45.933 81.2325 45.3482 81.6159C44.853 81.9339 44.3505 82.2367 43.8483 82.5393C43.136 82.9685 42.4246 83.3973 41.7363 83.868L41.5546 83.9945C41.0443 84.3499 40.5288 84.7089 40.0061 85.0515C39.3598 85.4614 38.6981 85.8584 38.0429 86.2477C37.705 86.4497 37.3709 86.6645 37.0362 86.8798L37.024 86.8877C36.9191 86.9551 36.8141 87.0226 36.709 87.0897L36.5954 87.162C36.528 87.2047 36.4606 87.2473 36.393 87.2895C35.6785 87.7336 34.9476 88.1507 34.2243 88.5742C34.26 88.5563 34.2936 88.5367 34.3282 88.5159L34.3704 88.4907L34.4031 88.4715L34.4273 88.4576C34.2985 88.5401 34.1709 88.6238 34.0443 88.7085C33.8799 88.8184 33.717 88.93 33.555 89.0425C33.3198 89.2058 33.0866 89.371 32.8535 89.5361C32.5238 89.7697 32.1945 90.0031 31.8603 90.2304C31.5281 90.4677 31.1733 90.6768 30.8196 90.8853L30.8035 90.8948L30.6203 91.0031C30.2567 91.2328 29.9094 91.4894 29.5623 91.7461C28.9936 92.2345 28.4249 92.723 27.8091 93.1587C27.2267 93.5702 26.6444 93.9818 26.0785 94.4203C25.8977 94.5661 25.7177 94.7129 25.538 94.8602C25.4156 94.9606 25.2933 95.0613 25.171 95.1619L25.1684 95.1641C24.3776 95.8147 23.5872 96.465 22.755 97.0594C22.0929 97.5345 21.4143 97.9827 20.7104 98.3833C20.3315 98.6039 19.9329 98.794 19.5344 98.9842C19.2572 99.1164 18.9801 99.2487 18.7098 99.3911C18.2921 99.6537 17.891 99.9434 17.4911 100.247C17.4571 100.273 17.4231 100.299 17.3892 100.325L17.3127 100.385L17.2463 100.437L17.2426 100.439C16.9267 100.686 16.608 100.935 16.2519 101.112C15.7474 101.354 15.0851 101.41 14.5667 101.156L14.536 101.141C14.2511 101.002 13.9816 100.87 13.7618 100.622C13.4958 100.332 13.2814 99.9812 13.1504 99.6091C12.8534 98.7722 12.7407 97.8818 12.6285 96.996C12.6031 96.7955 12.5777 96.5952 12.5502 96.3958C12.3764 95.4384 12.1833 94.5038 11.9326 93.56L11.8306 93.2206L11.8302 93.2191C11.4962 92.1078 11.1616 90.9949 10.9357 89.8553C10.7018 88.6747 10.5633 87.4803 10.4247 86.2854L10.3759 85.865C10.2703 85.2921 10.1519 84.7344 10.0257 84.1703C9.99335 84.0597 9.96048 83.9494 9.92731 83.8392C9.85813 83.6097 9.78759 83.3811 9.71715 83.1527L9.71665 83.1513L9.71591 83.1488C9.48608 82.4038 9.25704 81.6614 9.08015 80.9013C8.99731 80.5537 8.9179 80.2051 8.83842 79.8563L8.83588 79.8448C8.66185 79.0806 8.48754 78.3152 8.27718 77.5561C7.79858 75.9363 7.33408 74.3153 6.87599 72.6865C6.87999 72.6974 6.8837 72.7084 6.88719 72.7193C6.89815 72.7534 6.90702 72.7873 6.91626 72.8195C6.92452 72.8484 6.93314 72.8758 6.94388 72.9008C6.56573 71.6272 6.1735 70.3548 5.86458 69.0611C5.74819 68.5749 5.64447 68.0865 5.54083 67.5984L5.54046 67.5971C5.38925 66.8847 5.238 66.1723 5.04761 65.4688C4.99619 65.2816 4.93066 65.0955 4.86514 64.9095C4.5716 64.2958 4.30743 63.6939 4.12301 63.0283L3.74335 61.5703C3.70447 61.421 3.66367 61.2725 3.62289 61.1243C3.53101 60.7901 3.43946 60.4572 3.3713 60.1188C3.24401 59.5406 3.15898 58.9588 3.07395 58.3771L3.08155 58.3835C3.04949 58.1733 3.01088 57.9708 2.96471 57.7618C2.88587 57.6692 2.79934 57.5701 2.71285 57.471C2.33267 57.0067 2.10792 56.451 2.21894 55.8383C2.27708 55.5211 2.4093 55.2402 2.60265 55.0108C2.99106 54.488 3.65825 54.2396 4.32087 54.3535ZM10.6869 61.9129C10.6646 61.9024 10.6422 61.8919 10.6198 61.8814C9.89762 61.5427 9.17579 61.2042 8.50071 60.7677L6.90099 59.733C7.0629 60.4267 7.25457 61.1076 7.438 61.792C7.46982 61.9108 7.50139 62.0297 7.53254 62.1488C7.55482 62.2156 7.57622 62.2817 7.59765 62.3477L7.61776 62.4099L7.6424 62.4855L7.66632 62.5574C7.68742 62.6205 7.7093 62.6842 7.73273 62.7492C7.9921 63.2948 8.24385 63.834 8.41463 64.4227C8.57655 64.9908 8.71796 65.5679 8.84646 66.1601C8.87187 66.2729 8.89706 66.3856 8.922 66.4983C8.9652 66.6933 9.00797 66.8883 9.05065 67.0832C9.09616 67.2911 9.14166 67.4987 9.18776 67.7063C9.3768 66.8638 9.54124 66.0088 9.74838 65.1678C9.92798 64.4235 10.1491 63.6973 10.3698 62.9724C10.4772 62.6195 10.5845 62.2671 10.6869 61.9129ZM10.2557 71.7059C10.9182 71.6139 11.5072 71.1492 11.7194 70.4785C11.7182 70.4644 11.7247 70.4567 11.7299 70.435C11.7348 70.4293 11.7353 70.4198 11.7408 70.4088C11.7426 70.4054 11.7449 70.4017 11.7481 70.3981C11.7881 70.3506 11.817 70.304 11.8492 70.2522L11.8617 70.2322L11.823 70.2781C12.0333 69.9976 12.2154 69.7195 12.3798 69.4003C12.5413 69.0895 12.6135 68.7035 12.6805 68.3455C12.6919 68.2845 12.7031 68.2243 12.7146 68.1654C12.7836 67.8508 12.8508 67.5346 12.9179 67.2184C12.9849 66.9022 13.052 66.5861 13.121 66.2714C13.2842 65.6108 13.4668 64.9581 13.6682 64.3054C14.0317 65.1893 14.3839 66.0801 14.729 66.9742C14.7064 66.9985 14.6846 67.0233 14.6633 67.0485C14.2959 67.4843 14.0903 68.0695 13.954 68.6347C13.8071 69.2433 13.6526 69.8455 13.5057 70.4541C13.2935 71.2954 13.0531 72.1391 12.8051 72.9763C12.4282 74.2271 12.0655 75.4766 11.7175 76.7299C11.544 76.0863 11.3511 75.446 11.1583 74.8063L11.1516 74.7842L11.1453 74.763L11.1391 74.7428L11.0681 74.5068L11.0125 74.3214C10.9603 74.1469 10.9085 73.9724 10.8574 73.7978C10.8471 73.7561 10.836 73.7131 10.8204 73.6705L10.8574 73.7978C10.8626 73.8185 10.8675 73.8388 10.8726 73.8586C10.8756 73.8701 10.8786 73.8813 10.8818 73.8924C10.6774 73.1619 10.4674 72.4339 10.2557 71.7059ZM16.0108 74.6194C16.2538 73.8009 16.4855 72.9833 16.7104 72.1613L17.2453 73.5299C17.4965 74.1731 17.7469 74.8167 17.994 75.4618C17.9296 75.4992 17.8674 75.5402 17.8077 75.5842C17.7067 75.6586 17.6127 75.7419 17.5263 75.8316C17.4686 75.9 17.4151 75.972 17.3669 76.0465C17.3234 76.1135 17.2842 76.1824 17.2499 76.2525C17.2136 76.3266 17.1838 76.393 17.1616 76.4658C17.0048 76.9154 16.9156 77.3964 16.8272 77.8732C16.8149 77.9395 16.8026 78.0058 16.7902 78.0718C16.7814 78.118 16.7726 78.1641 16.7637 78.2101L16.7628 78.2146C16.7038 78.5162 16.6448 78.8177 16.5921 79.1117L16.2105 81.3797L16.1094 82.0444C15.9014 83.4104 15.6937 84.7742 15.524 86.1504C15.3855 87.2577 15.1915 88.3517 14.9974 89.4456L14.9341 89.8029C14.9068 89.9575 14.8796 90.1122 14.8527 90.2669C14.8276 90.407 14.8028 90.5473 14.7783 90.6878L14.7434 90.5671C14.5606 89.8375 14.392 89.1068 14.2502 88.3595C14.2219 88.1581 14.1951 87.9563 14.1691 87.7544C14.1531 87.6293 14.1373 87.5042 14.1218 87.379C14.105 87.2438 14.0885 87.1084 14.0719 86.973C13.9714 86.1537 13.8707 85.3325 13.7241 84.5153C13.5462 83.5244 13.2443 82.5537 12.9454 81.5922L12.9449 81.5905L12.9434 81.5857L12.9431 81.5847L12.9417 81.5804C12.8792 81.3794 12.8168 81.1788 12.7557 80.9785C12.7151 80.8288 12.6757 80.6789 12.6374 80.5291C13.4881 80.6976 14.4418 80.1946 14.6794 79.3173C15.0993 77.7486 15.5333 76.1788 16.0108 74.6194ZM16.169 96.7559L16.1753 96.7966L16.2632 96.7332C16.2321 96.7417 16.2007 96.7492 16.169 96.7559ZM17.1583 96.1616C17.4953 95.9769 17.844 95.8104 18.1918 95.6444C18.5799 95.4591 18.9668 95.2744 19.3349 95.0656C19.7032 94.8335 20.0599 94.5945 20.4108 94.3481C20.3409 94.1037 20.3223 93.8422 20.3651 93.5798C20.4447 93.0976 20.5037 92.6242 20.5539 92.1302C20.7762 89.741 20.9997 87.3659 21.2795 84.986C21.2823 84.9618 21.2849 84.9376 21.2874 84.9134L21.2928 84.8595C21.2531 84.7731 21.2166 84.6875 21.1831 84.6038C21.008 84.1795 20.8627 83.7482 20.7172 83.3161L20.668 83.17C20.6441 83.0993 20.6201 83.0285 20.5958 82.9577C20.3917 82.365 20.2009 81.7684 20.0102 81.1726L19.8946 80.8116C19.8194 81.2553 19.7467 81.699 19.6747 82.142C19.4263 83.7245 19.1843 85.2992 18.9934 86.891C18.8649 87.9508 18.6774 88.9935 18.4888 90.0421C18.4387 90.3203 18.3886 90.5988 18.3395 90.8782C18.2647 91.311 18.1916 91.7441 18.1185 92.1771L18.1161 92.1916L18.1152 92.1973C17.9389 93.2425 17.7628 94.287 17.5613 95.3231C17.5 95.6413 17.3573 95.9278 17.1583 96.1616ZM24.6774 86.3855L24.7223 85.9879C24.7517 85.9646 24.7808 85.9413 24.8096 85.9178C24.8337 85.8982 24.8577 85.8785 24.8815 85.8588L24.9043 85.8397L24.947 85.8036C24.9792 85.7763 25.0111 85.7486 25.0429 85.7206C25.0772 85.6905 25.1112 85.66 25.1452 85.629C25.1956 85.5827 25.2464 85.5369 25.2975 85.4913C25.3482 85.4461 25.3992 85.4013 25.4504 85.3569C25.5834 85.2418 25.718 85.1297 25.8529 85.0222C25.9003 84.9844 25.9504 84.9489 26.0029 84.9128C26.0387 84.888 26.0758 84.863 26.1139 84.8367C26.1274 84.8284 26.1393 84.822 26.1512 84.8157L26.1613 84.8103L26.1741 84.8033L26.1883 84.7949C26.265 84.7549 26.3418 84.7154 26.4187 84.6759C26.4227 84.8164 26.4263 84.957 26.4298 85.0975C26.4331 85.2332 26.4366 85.3688 26.4404 85.5044C26.4144 86.6988 26.3819 87.901 26.2996 89.1002C26.2834 89.3332 26.3184 89.559 26.3943 89.7679C26.3605 89.7965 26.3266 89.8249 26.2927 89.8531C25.9351 90.1271 25.5669 90.3896 25.1982 90.6525L25.1959 90.6542L24.9868 90.8034C24.904 90.8626 24.8213 90.922 24.7388 90.9816L24.6265 91.0629C24.4811 91.1686 24.3365 91.2752 24.1933 91.3837C24.2405 90.8738 24.2827 90.3629 24.3248 89.8527C24.3674 89.3359 24.41 88.8198 24.4577 88.3061L24.4873 88.0455L24.5669 87.3515C24.6039 87.0307 24.6408 86.7099 24.6774 86.3855ZM29.9301 87.2444L29.9311 87.2438C30.1888 87.0651 30.4435 86.8795 30.6987 86.6935L30.7702 86.6415C30.8639 86.5733 30.9576 86.5052 31.0516 86.4373C31.0856 86.0878 31.1177 85.7376 31.1498 85.3872L31.1505 85.3813C31.242 84.3837 31.3337 83.3843 31.4696 82.3935C31.4751 82.351 31.4804 82.308 31.4858 82.2643C31.2088 82.4043 30.9297 82.5395 30.6485 82.6692C30.4624 82.7548 30.2763 82.8403 30.0901 82.9256L30.0883 82.9264L29.882 83.0211C29.9113 83.302 29.919 83.5852 29.926 83.852C29.9285 83.9515 29.9316 84.0512 29.935 84.151C29.9384 84.2499 29.942 84.3489 29.9458 84.4481L29.9539 84.6696L29.9592 84.8256C29.9678 85.0928 29.9737 85.3607 29.971 85.6295C29.96 86.167 29.9476 86.7061 29.9301 87.2444ZM35.2667 80.8991C35.5584 80.5816 35.7291 80.1729 35.7222 79.7163C35.8828 79.6057 36.0426 79.494 36.2017 79.3814L36.3387 79.2841L36.4305 79.2185L36.5382 79.1411L36.5433 79.2942C36.5474 79.4236 36.5508 79.5529 36.554 79.6824C36.5567 79.9538 36.556 80.2223 36.5535 80.4908C36.5519 80.6718 36.5495 80.8529 36.5468 81.0349L36.5418 81.3724C36.5288 81.879 36.7284 82.3537 37.0632 82.6946C36.9365 82.7735 36.8093 82.8517 36.6815 82.9289C36.1014 83.2766 35.5251 83.6373 34.9483 83.9983L34.8379 84.0673L34.9487 82.9984C35.0385 82.3024 35.1282 81.6063 35.2614 80.9208C35.2614 80.9208 35.2613 80.9192 35.2614 80.9167C35.2614 80.9167 35.2616 80.9123 35.2621 80.9097C35.2626 80.9074 35.2633 80.9051 35.2643 80.903L35.2667 80.8991ZM40.0872 80.6899C40.6483 80.3224 41.2246 79.9756 41.7992 79.6298L41.8008 79.6288C42.09 79.4548 42.3787 79.281 42.6648 79.1051C43.198 78.7829 43.7223 78.4402 44.2313 78.0846C43.4767 77.6852 42.7341 77.2716 41.9873 76.8556C41.7852 76.7431 41.5829 76.6304 41.3799 76.5178C41.3642 76.5085 41.3486 76.4995 41.333 76.4908C41.3222 76.4848 41.3115 76.4788 41.3007 76.473C41.2774 76.4603 41.2543 76.4482 41.2314 76.4362C41.1779 76.4082 41.1255 76.3812 41.0748 76.3522C41.0519 76.3328 41.0302 76.3276 41.0007 76.3159C41.0161 76.3288 41.0454 76.3405 41.0683 76.3598C40.8924 76.3141 40.7252 76.2424 40.5688 76.1419C40.4754 76.2103 40.3821 76.279 40.2891 76.3479C40.2349 76.388 40.1807 76.4281 40.1267 76.4684L40.0176 76.5489L39.8931 76.641C39.9283 76.8547 39.9507 77.0696 39.9684 77.2767C39.9782 77.4203 39.9905 77.5644 40.0028 77.7091C40.0275 77.9981 40.0523 78.2893 40.0583 78.582C40.0723 78.9854 40.0813 79.3868 40.0856 79.7882C40.0873 79.9469 40.0883 80.1056 40.0884 80.2644C40.0886 80.4061 40.0882 80.5479 40.0872 80.6899ZM37.2505 40.2862C37.1734 38.547 36.9988 36.8302 36.7525 35.1055C36.3493 32.6205 35.9459 30.1355 35.3619 27.6944C34.684 25.3179 33.8676 22.9817 32.9344 20.6909C32.4262 19.6042 31.8794 18.5507 31.3282 17.489L31.327 17.4868L31.1746 17.1931C31.0655 16.9825 30.9568 16.7717 30.8482 16.5612L30.8463 16.5577C30.3213 15.5398 29.798 14.5251 29.2376 13.533C28.5739 12.4895 27.8639 11.4855 27.1128 10.4992C26.2253 9.41089 25.3196 8.35964 24.4063 7.30199C23.9344 6.76021 23.4677 6.19685 23.0087 5.63981C22.9537 5.57293 22.899 5.50543 22.8442 5.43763L22.7085 5.26918L22.6852 5.24019C22.445 4.94151 22.2027 4.64015 21.9481 4.35339C21.7483 4.5904 21.5485 4.82742 21.341 5.05798C20.9338 5.52555 20.5329 5.98548 20.0887 6.43494C19.8394 6.68894 19.5765 6.92769 19.3134 7.16659C19.0873 7.37198 18.8609 7.57751 18.6431 7.79293C18.5752 7.86697 18.5071 7.94095 18.4388 8.01486L18.311 8.15314C18.1791 8.29544 18.0468 8.43765 17.9144 8.57991L17.9115 8.58301C17.3352 9.20243 16.7574 9.8234 16.2092 10.4628C15.9034 10.82 15.5919 11.1726 15.2807 11.5247L15.2745 11.5319L15.2733 11.5333C14.7003 12.1818 14.1282 12.8291 13.594 13.5029C13.4248 13.7493 13.2573 13.997 13.0896 14.245C12.744 14.7558 12.3976 15.2679 12.0344 15.7718C11.9319 15.9109 11.8281 16.0492 11.7233 16.1873C11.5093 16.4694 11.2914 16.7499 11.0732 17.0309L11.0718 17.0326L11.067 17.0388C10.8243 17.3513 10.581 17.6645 10.342 17.9811C9.28645 19.4193 8.17621 20.7985 7.05182 22.1787L5.69825 23.7843C6.17284 23.8574 6.64992 23.9588 7.10234 24.1047C8.88031 24.6488 10.5788 25.4266 12.2269 26.2798C12.3696 26.3548 12.5126 26.4293 12.6559 26.5037L13.0203 26.6924L13.0235 26.6941C13.587 26.9856 14.152 27.2778 14.7085 27.5871C15.5726 28.067 16.3981 28.5928 17.213 29.1621C18.8997 30.3494 20.2209 32.0077 21.5068 33.6219L21.5182 33.6362L21.7133 33.881C21.7914 33.9788 21.8695 34.0764 21.9475 34.1736L22.0695 34.325L22.2056 34.4944C22.3021 34.6145 22.3984 34.7349 22.4947 34.8554L22.6424 35.0405L22.8695 35.3258C23.0247 35.521 23.18 35.7166 23.3355 35.9127L23.7274 36.4065L23.8201 36.5227C24.3309 37.1633 24.8515 37.816 25.3173 38.4924C26.0321 39.5527 26.7187 40.6155 27.2306 41.7925C27.6818 42.8399 27.9533 43.9451 28.0787 45.0842C28.16 45.8721 28.1209 46.6631 28.0818 47.4542C28.0191 48.8008 27.7258 50.1883 27.2154 51.4453C26.9219 52.1658 26.6132 52.8734 26.1475 53.4879C25.8534 53.8678 25.5135 54.209 25.1417 54.5103C24.743 54.8282 24.3193 55.0203 23.8321 55.1328C23.3912 55.2401 22.9144 55.1919 22.4556 55.1454C22.4007 55.1399 22.3461 55.1344 22.2918 55.1292C21.8402 55.0754 21.3949 55.0139 20.9549 54.9308C20.3528 54.8162 19.756 54.6536 19.1624 54.492C18.8672 54.4115 18.5728 54.3314 18.2789 54.2574C18.3583 54.2719 18.4311 54.2941 18.5028 54.3022C17.9988 54.1859 17.49 54.0863 16.9814 53.9869C16.1531 53.8248 15.325 53.6628 14.518 53.4282C13.5884 53.1545 12.697 52.7764 11.8138 52.4017L11.7456 52.3727C11.8799 52.6167 12.0142 52.8608 12.1627 53.1036L12.1645 53.1071C13.0675 54.7177 13.971 56.3291 14.7584 57.9992C15.6061 59.7863 16.405 61.5847 17.1629 63.4007C17.8601 65.0871 18.4945 66.786 19.1289 68.4848C19.524 69.5326 19.9366 70.5711 20.3489 71.609L20.3499 71.6115L20.3527 71.6187C20.9051 73.0092 21.4571 74.3988 21.9668 75.8082C22.413 77.0476 22.8387 78.2959 23.2567 79.5376C23.3596 79.8542 23.4594 80.172 23.5594 80.49C23.6042 80.6328 23.6492 80.7757 23.6943 80.9185C23.812 81.2903 23.9316 81.6617 24.0581 82.0312C24.5285 81.7214 25.0178 81.4669 25.5417 81.2023C26.03 80.9577 26.5208 80.7238 27.0127 80.4942C27.1909 80.4111 27.3692 80.3284 27.5476 80.2461L28.0133 80.0316C28.2379 79.9282 28.4625 79.8249 28.6871 79.7208C29.8617 79.1807 30.9945 78.5663 32.1096 77.9107C33.2405 77.1898 34.3395 76.4291 35.4285 75.6338C35.8699 75.3087 36.3053 74.9738 36.7405 74.6389L36.7442 74.6363C37.3283 74.187 37.912 73.7379 38.5095 73.3133C38.7322 73.155 38.9547 72.9954 39.1775 72.8358C40.0664 72.1988 40.9594 71.5587 41.88 70.9753C42.5457 70.5424 43.2279 70.1366 43.9254 69.7437C44.2505 69.5618 44.5779 69.3898 44.9049 69.2181L44.9113 69.2148L44.9131 69.2139C45.3054 69.0079 45.697 68.8023 46.0831 68.5805C46.9195 68.0693 47.6988 67.4707 48.4846 66.8644C48.3776 66.8386 48.2688 66.8112 48.1607 66.7829C48.0882 66.7639 48.0161 66.7445 47.9451 66.7249L47.896 66.7112L47.8313 66.6929C46.98 66.4461 46.148 66.1764 45.3317 65.8414C45.1438 65.7642 44.9557 65.6856 44.7675 65.6061C44.5476 65.5133 44.3275 65.4194 44.1076 65.3254L43.6243 65.1194L43.4066 65.0273C43.3181 64.99 43.2297 64.9529 43.1413 64.9161L43.0237 64.8672L42.8805 64.8082C41.5952 64.258 40.285 63.7476 38.9814 63.2399L38.9769 63.2382L38.5582 63.075C38.4045 63.0151 38.251 62.9551 38.0976 62.895C37.4309 62.6297 36.7815 62.3329 36.1311 62.0356C36.0076 61.9792 35.884 61.9227 35.7603 61.8664C35.684 61.8324 35.6082 61.7973 35.5328 61.7614C35.4516 61.7226 35.371 61.6828 35.2907 61.6422C35.2553 61.6243 35.2201 61.6063 35.1848 61.5882L35.1105 61.5497L35.0724 61.5298C34.9894 61.4863 34.9068 61.4423 34.8242 61.3979C34.7512 61.3587 34.6783 61.3193 34.6055 61.2799L34.6045 61.2793L34.5988 61.2762L34.5977 61.2755C34.3487 61.141 34.0994 61.0063 33.8453 60.8798C33.45 60.8212 33.0798 60.6399 32.7973 60.3233C32.1419 59.607 32.2371 58.59 32.8451 57.9005C32.8136 57.932 32.7807 57.9624 32.7479 57.9927C32.9489 57.7698 33.1575 57.5533 33.398 57.3767C33.4457 57.3402 33.4953 57.3066 33.546 57.2755C33.5775 57.2561 33.6095 57.2377 33.6419 57.2201C33.7172 57.1791 33.7945 57.1426 33.872 57.1092C34.2128 56.6118 34.5102 56.1039 34.8063 55.5819C35.0316 55.144 35.2352 54.7009 35.4299 54.2372C35.6682 53.5356 35.8642 52.8376 36.0514 52.1191C36.5046 50.1076 36.7492 48.0642 36.9862 46.0144C36.9716 46.0937 36.9712 46.1718 36.9555 46.237C37.114 44.2648 37.2366 42.2886 37.2505 40.2862Z" fill="black"/>
<path d="M21.1668 38.8258L21.2496 38.93L21.261 38.9443C21.2389 38.9195 21.2165 38.8916 21.194 38.8621C21.185 38.8502 21.1759 38.838 21.1668 38.8258Z" fill="black"/>
</svg>
