<svg width="336" height="119" viewBox="0 0 336 119" fill="none" xmlns="http://www.w3.org/2000/svg">
<path d="M18.4013 10.4731L19.3838 10.6595L19.5702 9.67699L18.5877 9.49061L18.4013 10.4731ZM9.36251 8.75839L8.38004 8.57201L8.19366 9.55448L9.17613 9.74086L9.36251 8.75839ZM10.8536 0.898564L11.0399 -0.0839139L10.0575 -0.270294L9.87108 0.712184L10.8536 0.898564ZM37.5769 5.9681L38.5594 6.15448L38.7458 5.172L37.7633 4.98562L37.5769 5.9681ZM36.0859 13.8279L35.8995 14.8104L36.882 14.9968L37.0684 14.0143L36.0859 13.8279ZM27.0471 12.1132L27.2335 11.1307L26.251 10.9444L26.0646 11.9268L27.0471 12.1132ZM18.1009 59.2722L17.9145 60.2546L18.897 60.441L19.0833 59.4585L18.1009 59.2722ZM9.45507 57.632L8.47259 57.4456L8.28621 58.4281L9.26869 58.6145L9.45507 57.632ZM18.5877 9.49061L9.54889 7.77591L9.17613 9.74086L18.2149 11.4556L18.5877 9.49061ZM10.345 8.94477L11.836 1.08494L9.87108 0.712184L8.38004 8.57201L10.345 8.94477ZM10.6672 1.88104L37.3906 6.95058L37.7633 4.98562L11.0399 -0.0839139L10.6672 1.88104ZM36.5945 5.78172L35.1034 13.6415L37.0684 14.0143L38.5594 6.15448L36.5945 5.78172ZM36.2723 12.8454L27.2335 11.1307L26.8607 13.0957L35.8995 14.8104L36.2723 12.8454ZM26.0646 11.9268L17.1184 59.0858L19.0833 59.4585L28.0296 12.2996L26.0646 11.9268ZM18.2873 58.2897L9.64145 56.6495L9.26869 58.6145L17.9145 60.2546L18.2873 58.2897ZM10.4375 57.8184L19.3838 10.6595L17.4188 10.2867L8.47259 57.4456L10.4375 57.8184ZM41.7629 6.7622L41.9493 5.77972L40.9668 5.59334L40.7804 6.57582L41.7629 6.7622ZM63.7242 14.1854L62.8906 14.7379L62.8977 14.7483L63.7242 14.1854ZM56.6275 37.43L56.4333 36.4491L55.7709 36.5802L55.645 37.2437L56.6275 37.43ZM56.5977 37.5872L55.6152 37.4008L55.4765 38.1318L56.1369 38.4747L56.5977 37.5872ZM60.2686 42.2735L59.2928 42.4924L59.2953 42.5034L59.298 42.5143L60.2686 42.2735ZM57.7212 63.8569L56.7246 63.7744L56.7242 63.7802L57.7212 63.8569ZM57.9704 66.8356L57.784 67.8181L59.2959 68.1048L58.9439 66.6069L57.9704 66.8356ZM49.1674 65.1656L48.1789 65.3168L48.2859 66.0162L48.9811 66.1481L49.1674 65.1656ZM51.3137 42.6918L50.4271 43.1543L50.4344 43.1684L50.4421 43.1821L51.3137 42.6918ZM44.4446 39.8416L44.6309 38.8592L43.6485 38.6728L43.4621 39.6552L44.4446 39.8416ZM39.9714 63.4211L39.7851 64.4036L40.7675 64.59L40.9539 63.6075L39.9714 63.4211ZM31.3256 61.7809L30.3432 61.5946L30.1568 62.577L31.1393 62.7634L31.3256 61.7809ZM53.1843 31.9727L52.6214 31.1462L52.6089 31.1547L52.5966 31.1636L53.1843 31.9727ZM55.8952 18.9701L55.0016 19.4188L55.0097 19.435L55.0184 19.4508L55.8952 18.9701ZM48.9177 16.2622L49.1041 15.2797L48.1216 15.0933L47.9352 16.0758L48.9177 16.2622ZM45.9356 31.9818L44.9531 31.7954L44.7667 32.7779L45.7492 32.9643L45.9356 31.9818ZM41.5765 7.74467L54.388 10.1751L54.7608 8.21011L41.9493 5.77972L41.5765 7.74467ZM54.388 10.1751C58.7133 10.9956 61.4559 12.5729 62.8906 14.7378L64.5578 13.633C62.7006 10.8307 59.3433 9.07944 54.7608 8.21011L54.388 10.1751ZM62.8977 14.7483C64.345 16.8734 64.7924 19.929 64.0029 24.0909L65.9678 24.4637C66.8085 20.0322 66.4151 16.3599 64.5507 13.6225L62.8977 14.7483ZM64.0029 24.0909L63.3617 27.4706L65.3267 27.8434L65.9678 24.4637L64.0029 24.0909ZM63.3617 27.4706C62.8387 30.2279 61.972 32.3021 60.8176 33.7642C59.6786 35.2066 58.2295 36.0935 56.4333 36.4491L56.8217 38.411C59.0865 37.9627 60.954 36.8188 62.3873 35.0036C63.8051 33.208 64.7663 30.7977 65.3267 27.8434L63.3617 27.4706ZM55.645 37.2437L55.6152 37.4008L57.5802 37.7736L57.61 37.6164L55.645 37.2437ZM56.1369 38.4747C57.8625 39.3708 58.8894 40.6942 59.2928 42.4924L61.2443 42.0546C60.7065 39.6572 59.2862 37.8565 57.0585 36.6997L56.1369 38.4747ZM59.298 42.5143C59.7729 44.4284 59.7483 46.9477 59.1461 50.1218L61.1111 50.4946C61.7415 47.1713 61.8102 44.3341 61.2391 42.0327L59.298 42.5143ZM59.1461 50.1218L57.3122 59.7894L59.2771 60.1622L61.1111 50.4946L59.1461 50.1218ZM57.3122 59.7894C57.0107 61.3788 56.8127 62.7103 56.7246 63.7744L58.7178 63.9394C58.7979 62.9726 58.9822 61.7168 59.2771 60.1622L57.3122 59.7894ZM56.7242 63.7802C56.6415 64.8542 56.7352 65.9503 56.9969 67.0643L58.9439 66.6069C58.7251 65.6754 58.6527 64.7858 58.7183 63.9337L56.7242 63.7802ZM58.1568 65.8531L49.3538 64.1831L48.9811 66.1481L57.784 67.8181L58.1568 65.8531ZM50.1559 65.0144C50.019 64.1196 49.9744 63.3115 50.0143 62.5861L48.0173 62.4763C47.9686 63.3626 48.025 64.3108 48.1789 65.3168L50.1559 65.0144ZM50.0143 62.5861C50.0545 61.8548 50.2579 60.4904 50.6462 58.4434L48.6813 58.0707C48.2942 60.1108 48.0657 61.5959 48.0173 62.4763L50.0143 62.5861ZM50.6462 58.4434L52.5547 48.3829L50.5898 48.0101L48.6813 58.0707L50.6462 58.4434ZM52.5547 48.3829C53.0405 45.8224 53.0178 43.6816 52.1853 42.2016L50.4421 43.1821C50.9086 44.0113 51.0583 45.5403 50.5898 48.0101L52.5547 48.3829ZM52.2003 42.2293C51.3965 40.6885 49.7368 39.8278 47.6177 39.4257L47.2449 41.3907C49.1081 41.7442 50.0366 42.4058 50.4271 43.1543L52.2003 42.2293ZM47.6177 39.4257L44.6309 38.8592L44.2582 40.8241L47.2449 41.3907L47.6177 39.4257ZM43.4621 39.6552L38.989 63.2347L40.9539 63.6075L45.427 40.028L43.4621 39.6552ZM40.1578 62.4386L31.512 60.7985L31.1393 62.7634L39.7851 64.4036L40.1578 62.4386ZM32.3081 61.9673L42.7454 6.94858L40.7804 6.57582L30.3432 61.5946L32.3081 61.9673ZM48.8931 33.5607C50.7788 33.9184 52.4622 33.7332 53.772 32.7817L52.5966 31.1636C51.8917 31.6756 50.8385 31.8941 49.2659 31.5957L48.8931 33.5607ZM53.7472 32.7992C55.1335 31.855 55.9369 30.1253 56.3529 27.9324L54.3879 27.5597C54.0087 29.5587 53.3547 30.6467 52.6214 31.1462L53.7472 32.7992ZM56.3529 27.9324L57.158 23.6881L55.1931 23.3154L54.3879 27.5597L56.3529 27.9324ZM57.158 23.6881C57.5505 21.619 57.5044 19.8251 56.7721 18.4894L55.0184 19.4508C55.4153 20.1749 55.556 21.4022 55.1931 23.3154L57.158 23.6881ZM56.7889 18.5213C56.0911 17.1317 54.7428 16.3494 53.034 16.0252L52.6612 17.9902C53.9915 18.2425 54.675 18.7685 55.0016 19.4188L56.7889 18.5213ZM53.034 16.0252L49.1041 15.2797L48.7313 17.2446L52.6612 17.9902L53.034 16.0252ZM47.9352 16.0758L44.9531 31.7954L46.9181 32.1682L49.9002 16.4485L47.9352 16.0758ZM45.7492 32.9643L48.8931 33.5607L49.2659 31.5957L46.122 30.9993L45.7492 32.9643ZM73.4632 12.7759L73.6496 11.7934L72.6671 11.607L72.4807 12.5895L73.4632 12.7759ZM82.109 14.416L83.0915 14.6024L83.2778 13.6199L82.2954 13.4335L82.109 14.416ZM71.6717 69.4348L71.4853 70.4172L72.4678 70.6036L72.6542 69.6211L71.6717 69.4348ZM63.0259 67.7946L62.0434 67.6082L61.857 68.5907L62.8395 68.7771L63.0259 67.7946ZM73.2768 13.7583L81.9226 15.3985L82.2954 13.4335L73.6496 11.7934L73.2768 13.7583ZM81.1265 14.2296L70.6892 69.2484L72.6542 69.6211L83.0915 14.6024L81.1265 14.2296ZM71.8581 68.4523L63.2123 66.8121L62.8395 68.7771L71.4853 70.4172L71.8581 68.4523ZM64.0084 67.981L74.4456 12.9622L72.4807 12.5895L62.0434 67.6082L64.0084 67.981ZM86.3048 15.212L86.4911 14.2295L85.3487 14.0128L85.3055 15.1748L86.3048 15.212ZM95.0292 16.867L96.0276 16.9226L96.0764 16.0478L95.2156 15.8845L95.0292 16.867ZM92.5919 60.6194L91.5934 60.5638L91.5447 61.4386L92.4055 61.6019L92.5919 60.6194ZM92.7491 60.6492L92.5627 61.6317L93.4235 61.795L93.6985 60.9631L92.7491 60.6492ZM106.505 19.0439L106.691 18.0615L105.83 17.8982L105.555 18.73L106.505 19.0439ZM114.443 20.5499L115.386 20.8813L115.772 19.7841L114.629 19.5674L114.443 20.5499ZM95.6742 73.9881L95.4879 74.9706L96.3328 75.1309L96.6177 74.3195L95.6742 73.9881ZM84.1989 71.8112L83.1996 71.774L83.1676 72.6334L84.0125 72.7937L84.1989 71.8112ZM86.1184 16.1944L94.8428 17.8495L95.2156 15.8845L86.4911 14.2295L86.1184 16.1944ZM94.0307 16.8114L91.5934 60.5638L93.5903 60.675L96.0276 16.9226L94.0307 16.8114ZM92.4055 61.6019L92.5627 61.6317L92.9355 59.6667L92.7783 59.6369L92.4055 61.6019ZM93.6985 60.9631L107.454 19.3578L105.555 18.73L91.7996 60.3353L93.6985 60.9631ZM106.318 20.0264L114.257 21.5324L114.629 19.5674L106.691 18.0615L106.318 20.0264ZM113.499 20.2185L94.7307 73.6568L96.6177 74.3195L115.386 20.8813L113.499 20.2185ZM95.8606 73.0057L84.3853 70.8287L84.0125 72.7937L95.4879 74.9706L95.8606 73.0057ZM85.1982 71.8484L87.3041 15.2491L85.3055 15.1748L83.1996 71.774L85.1982 71.8484ZM118.596 21.3377L118.782 20.3552L117.8 20.1688L117.613 21.1513L118.596 21.3377ZM127.242 22.9778L128.224 23.1642L128.41 22.1817L127.428 21.9954L127.242 22.9778ZM116.804 77.9966L116.618 78.9791L117.6 79.1655L117.787 78.183L116.804 77.9966ZM108.158 76.3564L107.176 76.1701L106.99 77.1525L107.972 77.3389L108.158 76.3564ZM118.409 22.3202L127.055 23.9603L127.428 21.9954L118.782 20.3552L118.409 22.3202ZM126.259 22.7915L115.822 77.8102L117.787 78.183L128.224 23.1642L126.259 22.7915ZM116.991 77.0141L108.345 75.374L107.972 77.3389L116.618 78.9791L116.991 77.0141ZM109.141 76.5428L119.578 21.5241L117.613 21.1513L107.176 76.1701L109.141 76.5428ZM140.398 25.4736L140.584 24.4911L139.748 24.3326L139.458 25.1317L140.398 25.4736ZM152.109 27.6952L153.108 27.7213L153.13 26.8712L152.295 26.7128L152.109 27.6952ZM150.632 84.4138L150.445 85.3963L151.601 85.6154L151.631 84.4398L150.632 84.4138ZM141.986 82.7736L140.987 82.7291L140.948 83.5946L141.799 83.7561L141.986 82.7736ZM142.486 71.5503L143.485 71.5948L141.504 71.3639L142.486 71.5503ZM142.457 71.7075L142.27 72.6899L143.253 72.8763L143.439 71.8938L142.457 71.7075ZM132.632 69.8437L132.818 68.8612L131.969 68.7L131.687 69.5173L132.632 69.8437ZM129.017 80.3134L128.831 81.2959L129.68 81.457L129.962 80.6398L129.017 80.3134ZM121 78.7926L120.06 78.4507L119.658 79.5558L120.814 79.775L121 78.7926ZM142.851 64.0468L142.665 65.0293L143.796 65.2439L143.85 64.0936L142.851 64.0468ZM144.159 36.1212L145.158 36.168L145.198 35.3006L144.345 35.1387L144.159 36.1212ZM144.002 36.0914L144.188 35.1089L143.333 34.9466L143.054 35.7718L144.002 36.0914ZM135.07 62.5707L134.122 62.2511L133.755 63.3391L134.884 63.5531L135.07 62.5707ZM140.211 26.4561L151.922 28.6777L152.295 26.7128L140.584 24.4911L140.211 26.4561ZM151.109 27.6692L149.632 84.3877L151.631 84.4398L153.108 27.7213L151.109 27.6692ZM150.818 83.4313L142.172 81.7912L141.799 83.7561L150.445 85.3963L150.818 83.4313ZM142.985 82.8182L143.485 71.5948L141.487 71.5057L140.987 82.7291L142.985 82.8182ZM141.504 71.3639L141.474 71.5211L143.439 71.8938L143.469 71.7366L141.504 71.3639ZM142.643 70.725L132.818 68.8612L132.445 70.8261L142.27 72.6899L142.643 70.725ZM131.687 69.5173L128.072 79.9871L129.962 80.6398L133.577 70.17L131.687 69.5173ZM129.203 79.3309L121.186 77.8101L120.814 79.775L128.831 81.2959L129.203 79.3309ZM121.94 79.1344L141.337 25.8155L139.458 25.1317L120.06 78.4507L121.94 79.1344ZM143.85 64.0936L145.158 36.168L143.16 36.0744L141.852 64L143.85 64.0936ZM144.345 35.1387L144.188 35.1089L143.815 37.0739L143.973 37.1037L144.345 35.1387ZM143.054 35.7718L134.122 62.2511L136.018 62.8903L144.949 36.411L143.054 35.7718ZM134.884 63.5531L142.665 65.0293L143.038 63.0643L135.256 61.5882L134.884 63.5531ZM170.608 85.3535L169.757 85.8784L169.763 85.8876L170.608 85.3535ZM179.987 35.9152L180.578 36.7219L180.587 36.7153L179.987 35.9152ZM199.165 39.5534L198.314 40.0782L198.32 40.0875L199.165 39.5534ZM199.633 55.1133L199.447 56.0957L200.429 56.2821L200.616 55.2996L199.633 55.1133ZM191.459 53.5626L190.476 53.3762L190.29 54.3587L191.273 54.5451L191.459 53.5626ZM188.79 67.6317L189.772 67.818L189.959 66.8356L188.976 66.6492L188.79 67.6317ZM184.467 66.8116L183.485 66.6252L183.298 67.6077L184.281 67.7941L184.467 66.8116ZM185.958 58.9518L186.144 57.9693L185.162 57.7829L184.976 58.7654L185.958 58.9518ZM198.455 61.3225L199.438 61.5089L199.624 60.5264L198.642 60.3401L198.455 61.3225ZM189.786 88.9916L190.377 89.7983L190.386 89.7917L189.786 88.9916ZM179.713 89.727C175.707 88.9672 173.018 87.2955 171.454 84.8194L169.763 85.8876C171.705 88.9623 174.962 90.8614 179.34 91.692L179.713 89.727ZM171.46 84.8287C169.888 82.2803 169.427 78.9164 170.243 74.6173L168.278 74.2445C167.404 78.8532 167.841 82.771 169.757 85.8783L171.46 84.8287ZM170.243 74.6173L175.73 45.6931L173.765 45.3204L168.278 74.2445L170.243 74.6173ZM175.73 45.6931C176.546 41.3924 178.201 38.4635 180.578 36.7218L179.396 35.1086C176.477 37.2478 174.639 40.7133 173.765 45.3204L175.73 45.6931ZM180.587 36.7153C182.96 34.936 186.076 34.3426 190.075 35.1013L190.448 33.1363C186.064 32.3045 182.33 32.9088 179.387 35.1151L180.587 36.7153ZM190.075 35.1013C194.075 35.8599 196.757 37.5533 198.314 40.0782L200.016 39.0286C198.086 35.8978 194.833 33.9681 190.448 33.1363L190.075 35.1013ZM198.32 40.0875C199.893 42.5786 200.361 45.9103 199.545 50.211L201.51 50.5838C202.384 45.9767 201.943 42.079 200.01 39.0193L198.32 40.0875ZM199.545 50.211L198.651 54.9269L200.616 55.2996L201.51 50.5838L199.545 50.211ZM199.819 54.1308L191.645 52.5801L191.273 54.5451L199.447 56.0957L199.819 54.1308ZM192.441 53.749L193.44 48.4829L191.475 48.1101L190.476 53.3762L192.441 53.749ZM193.44 48.4829C193.804 46.5645 193.72 44.8686 192.986 43.5345C192.229 42.159 190.892 41.3633 189.193 41.0409L188.82 43.0058C190.107 43.25 190.84 43.7831 191.233 44.4986C191.65 45.2557 191.797 46.413 191.475 48.1101L193.44 48.4829ZM189.193 41.0409C187.493 40.7185 185.959 40.9695 184.751 41.9723C183.579 42.9449 182.879 44.4919 182.515 46.4103L184.48 46.7831C184.802 45.086 185.363 44.0631 186.028 43.5112C186.656 42.9895 187.533 42.7616 188.82 43.0058L189.193 41.0409ZM182.515 46.4103L176.805 76.5135L178.769 76.8862L184.48 46.7831L182.515 46.4103ZM176.805 76.5135C176.445 78.4083 176.534 80.0872 177.274 81.4091C178.035 82.7696 179.372 83.5554 181.067 83.8769L181.44 81.9119C180.148 81.6668 179.413 81.1369 179.019 80.4325C178.604 79.6896 178.453 78.5545 178.769 76.8862L176.805 76.5135ZM181.067 83.8769C182.762 84.1984 184.293 83.9568 185.5 82.9696C186.672 82.0104 187.37 80.4809 187.73 78.586L185.765 78.2132C185.448 79.8815 184.892 80.8826 184.234 81.4217C183.609 81.9328 182.732 82.157 181.44 81.9119L181.067 83.8769ZM187.73 78.586L189.772 67.818L187.807 67.4453L185.765 78.2132L187.73 78.586ZM188.976 66.6492L184.653 65.8291L184.281 67.7941L188.604 68.6141L188.976 66.6492ZM185.45 66.998L186.941 59.1382L184.976 58.7654L183.485 66.6252L185.45 66.998ZM185.772 59.9343L198.269 62.305L198.642 60.3401L186.144 57.9693L185.772 59.9343ZM197.473 61.1361L194.058 79.1351L196.023 79.5079L199.438 61.5089L197.473 61.1361ZM194.058 79.1351C193.243 83.4342 191.582 86.3956 189.186 88.1916L190.386 89.7917C193.307 87.6019 195.149 84.1166 196.023 79.5079L194.058 79.1351ZM189.195 88.185C186.833 89.9162 183.718 90.4869 179.713 89.727L179.34 91.692C183.718 92.5225 187.444 91.948 190.377 89.7983L189.195 88.185ZM215.235 39.6705L215.421 38.688L214.586 38.5295L214.295 39.3286L215.235 39.6705ZM226.946 41.8922L227.945 41.9182L227.968 41.0682L227.132 40.9097L226.946 41.8922ZM225.469 98.6107L225.282 99.5932L226.438 99.8124L226.468 98.6367L225.469 98.6107ZM216.823 96.9705L215.824 96.926L215.785 97.7915L216.637 97.953L216.823 96.9705ZM217.324 85.7472L218.323 85.7917L216.341 85.5608L217.324 85.7472ZM217.294 85.9044L217.107 86.8869L218.09 87.0732L218.276 86.0908L217.294 85.9044ZM207.469 84.0406L207.655 83.0581L206.806 82.897L206.524 83.7142L207.469 84.0406ZM203.854 94.5103L203.668 95.4928L204.517 95.654L204.799 94.8367L203.854 94.5103ZM195.837 92.9895L194.897 92.6476L194.495 93.7528L195.651 93.9719L195.837 92.9895ZM217.688 78.2437L217.502 79.2262L218.633 79.4408L218.687 78.2905L217.688 78.2437ZM218.996 50.3181L219.995 50.3649L220.036 49.4975L219.182 49.3356L218.996 50.3181ZM218.839 50.2883L219.025 49.3058L218.17 49.1435L217.891 49.9687L218.839 50.2883ZM209.907 76.7676L208.96 76.448L208.593 77.536L209.721 77.7501L209.907 76.7676ZM215.048 40.653L226.759 42.8746L227.132 40.9097L215.421 38.688L215.048 40.653ZM225.946 41.8661L224.469 98.5847L226.468 98.6367L227.945 41.9182L225.946 41.8661ZM225.655 97.6282L217.009 95.9881L216.637 97.953L225.282 99.5932L225.655 97.6282ZM217.822 97.0151L218.323 85.7917L216.325 85.7026L215.824 96.926L217.822 97.0151ZM216.341 85.5608L216.311 85.718L218.276 86.0908L218.306 85.9336L216.341 85.5608ZM217.48 84.9219L207.655 83.0581L207.283 85.0231L217.107 86.8869L217.48 84.9219ZM206.524 83.7142L202.909 94.184L204.799 94.8367L208.414 84.3669L206.524 83.7142ZM204.041 93.5279L196.024 92.007L195.651 93.9719L203.668 95.4928L204.041 93.5279ZM196.777 93.3313L216.174 40.0124L214.295 39.3286L194.897 92.6476L196.777 93.3313ZM218.687 78.2905L219.995 50.3649L217.997 50.2714L216.69 78.1969L218.687 78.2905ZM219.182 49.3356L219.025 49.3058L218.653 51.2708L218.81 51.3006L219.182 49.3356ZM217.891 49.9687L208.96 76.448L210.855 77.0872L219.786 50.6079L217.891 49.9687ZM209.721 77.7501L217.502 79.2262L217.875 77.2612L210.094 75.7851L209.721 77.7501ZM240.101 44.3877L240.287 43.4052L239.304 43.2188L239.118 44.2013L240.101 44.3877ZM252.441 46.7286L253.439 46.7772L253.482 45.9083L252.627 45.7461L252.441 46.7286ZM250.472 87.15L249.473 87.1014L249.431 87.9704L250.286 88.1325L250.472 87.15ZM250.629 87.1799L250.443 88.1623L251.298 88.3245L251.577 87.5004L250.629 87.1799ZM263.601 48.8459L263.788 47.8634L262.933 47.7012L262.654 48.5253L263.601 48.8459ZM275.941 51.1868L276.924 51.3732L277.11 50.3907L276.128 50.2043L275.941 51.1868ZM265.504 106.206L265.318 107.188L266.3 107.374L266.487 106.392L265.504 106.206ZM257.33 104.655L256.347 104.468L256.161 105.451L257.144 105.637L257.33 104.655ZM265.232 62.9978L266.215 63.1842L266.401 62.2017L265.419 62.0153L265.232 62.9978ZM265.075 62.968L265.262 61.9855L264.416 61.8252L264.132 62.6371L265.075 62.968ZM250.885 103.432L250.698 104.415L251.544 104.575L251.828 103.763L250.885 103.432ZM243.654 102.06L242.655 102.023L242.622 102.883L243.467 103.043L243.654 102.06ZM245.268 59.2106L246.268 59.2482L246.3 58.3885L245.455 58.2281L245.268 59.2106ZM245.111 59.1808L245.298 58.1983L244.315 58.0119L244.129 58.9944L245.111 59.1808ZM237.209 100.838L237.022 101.82L238.005 102.007L238.191 101.024L237.209 100.838ZM229.663 99.4064L228.681 99.22L228.494 100.203L229.477 100.389L229.663 99.4064ZM239.914 45.3701L252.254 47.7111L252.627 45.7461L240.287 43.4052L239.914 45.3701ZM251.442 46.68L249.473 87.1014L251.471 87.1987L253.439 46.7772L251.442 46.68ZM250.286 88.1325L250.443 88.1623L250.816 86.1974L250.659 86.1676L250.286 88.1325ZM251.577 87.5004L264.549 49.1664L262.654 48.5253L249.682 86.8593L251.577 87.5004ZM263.415 49.8284L275.755 52.1693L276.128 50.2043L263.788 47.8634L263.415 49.8284ZM274.959 51.0004L264.522 106.019L266.487 106.392L276.924 51.3732L274.959 51.0004ZM265.69 105.223L257.516 103.672L257.144 105.637L265.318 107.188L265.69 105.223ZM258.312 104.841L266.215 63.1842L264.25 62.8114L256.347 104.468L258.312 104.841ZM265.419 62.0153L265.262 61.9855L264.889 63.9505L265.046 63.9803L265.419 62.0153ZM264.132 62.6371L249.941 103.101L251.828 103.763L266.019 63.2989L264.132 62.6371ZM251.071 102.45L243.84 101.078L243.467 103.043L250.698 104.415L251.071 102.45ZM244.653 102.098L246.268 59.2482L244.269 59.1729L242.655 102.023L244.653 102.098ZM245.455 58.2281L245.298 58.1983L244.925 60.1632L245.082 60.1931L245.455 58.2281ZM244.129 58.9944L236.226 100.651L238.191 101.024L246.094 59.3671L244.129 58.9944ZM237.395 99.8553L229.85 98.4239L229.477 100.389L237.022 101.82L237.395 99.8553ZM230.646 99.5928L241.083 44.574L239.118 44.2013L228.681 99.22L230.646 99.5928ZM282.393 52.4107L282.58 51.4283L281.597 51.2419L281.411 52.2244L282.393 52.4107ZM305.973 56.8839L306.955 57.0702L307.142 56.0878L306.159 55.9014L305.973 56.8839ZM304.482 64.7437L304.295 65.7262L305.278 65.9125L305.464 64.9301L304.482 64.7437ZM289.548 61.9107L289.734 60.9282L288.752 60.7418L288.565 61.7243L289.548 61.9107ZM286.79 76.4514L285.807 76.265L285.621 77.2475L286.603 77.4339L286.79 76.4514ZM298.658 78.7029L299.64 78.8892L299.827 77.9068L298.844 77.7204L298.658 78.7029ZM297.167 86.5627L296.98 87.5452L297.963 87.7315L298.149 86.7491L297.167 86.5627ZM285.298 84.3112L285.485 83.3287L284.502 83.1423L284.316 84.1248L285.298 84.3112ZM282.093 101.21L281.11 101.023L280.924 102.006L281.906 102.192L282.093 101.21ZM297.026 104.043L298.009 104.229L298.195 103.247L297.213 103.06L297.026 104.043ZM295.535 111.903L295.349 112.885L296.331 113.071L296.518 112.089L295.535 111.903ZM271.956 107.429L270.973 107.243L270.787 108.226L271.77 108.412L271.956 107.429ZM282.207 53.3932L305.786 57.8663L306.159 55.9014L282.58 51.4283L282.207 53.3932ZM304.99 56.6975L303.499 64.5573L305.464 64.9301L306.955 57.0702L304.99 56.6975ZM304.668 63.7612L289.734 60.9282L289.362 62.8932L304.295 65.7262L304.668 63.7612ZM288.565 61.7243L285.807 76.265L287.772 76.6378L290.53 62.0971L288.565 61.7243ZM286.603 77.4339L298.471 79.6853L298.844 77.7204L286.976 75.4689L286.603 77.4339ZM297.675 78.5165L296.184 86.3763L298.149 86.7491L299.64 78.8892L297.675 78.5165ZM297.353 85.5802L285.485 83.3287L285.112 85.2937L296.98 87.5452L297.353 85.5802ZM284.316 84.1248L281.11 101.023L283.075 101.396L286.281 84.4976L284.316 84.1248ZM281.906 102.192L296.84 105.025L297.213 103.06L282.279 100.227L281.906 102.192ZM296.044 103.856L294.553 111.716L296.518 112.089L298.009 104.229L296.044 103.856ZM295.722 110.92L272.142 106.447L271.77 108.412L295.349 112.885L295.722 110.92ZM272.938 107.616L283.376 52.5971L281.411 52.2244L270.973 107.243L272.938 107.616ZM302.914 110.452L302.056 110.967L302.062 110.976L302.914 110.452ZM302.241 96.4008L302.427 95.4183L301.445 95.2319L301.258 96.2144L302.241 96.4008ZM310.415 97.9514L311.398 98.1378L311.584 97.1553L310.601 96.969L310.415 97.9514ZM316.705 107.287L316.092 106.498L316.089 106.5L316.705 107.287ZM318.266 96.9165L317.324 97.254L317.329 97.2663L318.266 96.9165ZM313.657 89.4466L312.867 90.06L312.871 90.0654L313.657 89.4466ZM307.8 79.5415L306.85 79.8525L306.853 79.8608L307.8 79.5415ZM312.528 61.0588L313.119 61.8655L313.128 61.8589L312.528 61.0588ZM331.47 64.6522L330.607 65.1563L330.612 65.1663L330.619 65.1762L331.47 64.6522ZM332.322 77.7607L332.136 78.7432L333.118 78.9295L333.305 77.9471L332.322 77.7607ZM324.148 76.21L323.165 76.0236L322.979 77.0061L323.961 77.1925L324.148 76.21ZM324.36 69.0846L323.483 69.5653L323.49 69.5784L323.497 69.5913L324.36 69.0846ZM316.582 77.4618L315.645 77.8116L315.649 77.8219L315.653 77.832L316.582 77.4618ZM321.284 84.8679L320.498 85.4867L320.499 85.487L321.284 84.8679ZM327.126 94.8516L326.17 95.1475L327.126 94.8516ZM322.107 114.012L321.516 113.205L321.507 113.212L322.107 114.012ZM311.939 114.811C307.932 114.051 305.276 112.385 303.765 109.928L302.062 110.976C303.953 114.051 307.19 115.946 311.567 116.776L311.939 114.811ZM303.771 109.938C302.247 107.399 301.81 104.036 302.627 99.7311L300.662 99.3583C299.789 103.962 300.198 107.87 302.056 110.967L303.771 109.938ZM302.627 99.7311L303.223 96.5871L301.258 96.2144L300.662 99.3583L302.627 99.7311ZM302.054 97.3832L310.229 98.9339L310.601 96.969L302.427 95.4183L302.054 97.3832ZM309.433 97.7651L308.717 101.538L310.682 101.911L311.398 98.1378L309.433 97.7651ZM308.717 101.538C308.357 103.433 308.447 105.111 309.186 106.433C309.948 107.794 311.284 108.58 312.979 108.901L313.352 106.936C312.06 106.691 311.326 106.161 310.932 105.457C310.516 104.714 310.365 103.579 310.682 101.911L308.717 101.538ZM312.979 108.901C314.634 109.215 316.136 109.004 317.322 108.075L316.089 106.5C315.49 106.969 314.631 107.179 313.352 106.936L312.979 108.901ZM317.319 108.077C318.556 107.116 319.286 105.489 319.672 103.453L317.707 103.08C317.358 104.922 316.765 105.975 316.092 106.498L317.319 108.077ZM319.672 103.453C320.138 100.994 319.995 98.6888 319.202 96.5666L317.329 97.2663C317.976 99.0001 318.115 100.929 317.707 103.08L319.672 103.453ZM319.207 96.579C318.442 94.4459 316.827 91.855 314.443 88.8279L312.871 90.0654C315.212 93.0374 316.669 95.4263 317.324 97.254L319.207 96.579ZM314.447 88.8333C311.51 85.0524 309.634 81.8531 308.748 79.2223L306.853 79.8608C307.842 82.797 309.87 86.2012 312.867 90.06L314.447 88.8333ZM308.751 79.2306C307.88 76.5693 307.723 73.7254 308.301 70.6795L306.336 70.3068C305.701 73.6536 305.865 76.8419 306.85 79.8525L308.751 79.2306ZM308.301 70.6795C309.096 66.491 310.738 63.6104 313.119 61.8654L311.937 60.2522C309.022 62.3882 307.192 65.7971 306.336 70.3068L308.301 70.6795ZM313.128 61.8589C315.501 60.0796 318.617 59.4862 322.617 60.2449L322.989 58.2799C318.605 57.4481 314.871 58.0524 311.928 60.2587L313.128 61.8589ZM322.617 60.2449C326.562 60.9932 329.154 62.6677 330.607 65.1563L332.334 64.1482C330.509 61.0208 327.323 59.1021 322.989 58.2799L322.617 60.2449ZM330.619 65.1762C332.145 67.658 332.589 70.9886 331.772 75.295L333.737 75.6677C334.61 71.0662 334.198 67.1774 332.322 64.1283L330.619 65.1762ZM331.772 75.295L331.34 77.5743L333.305 77.9471L333.737 75.6677L331.772 75.295ZM332.508 76.7782L324.334 75.2275L323.961 77.1925L332.136 78.7432L332.508 76.7782ZM325.13 76.3964L325.667 73.5668L323.702 73.1941L323.165 76.0236L325.13 76.3964ZM325.667 73.5668C326.041 71.5945 325.98 69.8673 325.222 68.5779L323.497 69.5913C323.889 70.257 324.044 71.3937 323.702 73.1941L325.667 73.5668ZM325.236 68.6039C324.496 67.2532 323.212 66.4649 321.577 66.1546L321.204 68.1196C322.398 68.3461 323.094 68.8561 323.483 69.5653L325.236 68.6039ZM321.577 66.1546C319.928 65.8418 318.434 66.0884 317.257 67.0711C316.119 68.0225 315.44 69.5319 315.086 71.3967L317.051 71.7695C317.363 70.1236 317.905 69.1366 318.54 68.606C319.137 68.1067 319.971 67.8857 321.204 68.1196L321.577 66.1546ZM315.086 71.3967C314.674 73.5704 314.862 75.7153 315.645 77.8116L317.519 77.112C316.862 75.3524 316.708 73.5782 317.051 71.7695L315.086 71.3967ZM315.653 77.832C316.479 79.9046 318.117 82.4632 320.498 85.4867L322.07 84.2492C319.726 81.2737 318.23 78.8948 317.511 77.0916L315.653 77.832ZM320.499 85.487C323.485 89.2747 325.347 92.4904 326.17 95.1475L328.081 94.5558C327.153 91.5609 325.122 88.1208 322.069 84.2489L320.499 85.487ZM326.17 95.1475C326.989 97.7903 327.103 100.764 326.472 104.092L328.437 104.464C329.118 100.876 329.013 97.5649 328.081 94.5558L326.17 95.1475ZM326.472 104.092C325.647 108.441 323.957 111.419 321.516 113.205L322.697 114.819C325.677 112.639 327.552 109.128 328.437 104.464L326.472 104.092ZM321.507 113.212C319.136 114.989 315.995 115.58 311.939 114.811L311.567 116.776C315.999 117.617 319.761 117.02 322.706 114.812L321.507 113.212Z" fill="black" fill-opacity="0.25"/>
</svg>
