<svg width="183" height="105" viewBox="0 0 183 105" fill="none" xmlns="http://www.w3.org/2000/svg">
<path fill-rule="evenodd" clip-rule="evenodd" d="M62.2927 15.1744C61.0575 14.8893 59.7098 15.4267 58.7526 16.3344C58.2095 16.8388 57.8648 17.4002 57.5998 18.0523C56.1132 19.5111 54.5975 20.9146 53.0779 22.3219C52.7537 22.622 52.4294 22.9224 52.1052 23.2234C47.2871 27.7338 42.469 32.2441 37.6361 36.7193C32.9275 41.0754 28.0036 45.1576 23.0667 49.2287C20.2729 51.5269 17.494 53.8603 14.754 56.227C12.4126 58.2584 10.136 60.3452 7.87256 62.4432C6.56005 63.6644 5.22343 64.8874 3.89796 66.0975C3.68379 66.2926 3.45987 66.4865 3.23353 66.6825C2.07085 67.6893 0.844399 68.7514 0.548483 70.3083C0.226409 71.9475 1.2395 73.4434 2.57685 74.2703C3.17486 74.642 3.80537 74.9555 4.43871 75.2704C4.8308 75.4654 5.22399 75.6609 5.61122 75.8711C6.14433 76.1707 6.67529 76.4817 7.20766 76.7934C8.52379 77.5641 9.84844 78.3397 11.235 78.9628C13.6332 80.0202 16.048 80.9791 18.498 81.9231C18.4257 81.8872 18.3539 81.8592 18.2845 81.8321C18.233 81.812 18.1828 81.7923 18.1345 81.7703C19.3349 82.2402 20.5533 82.6654 21.7718 83.0906C22.3813 83.3033 22.9911 83.5162 23.5983 83.7345C29.7595 85.9339 35.9615 88.0332 42.1931 90.045C43.6544 90.5162 45.118 90.9782 46.5816 91.4401C48.0452 91.9021 49.5098 92.3643 50.9711 92.8355C51.5291 93.0159 52.0922 93.1903 52.6567 93.3651C53.7656 93.7086 54.8797 94.0537 55.9711 94.4487L55.976 94.4504C57.5212 95.0052 59.0664 95.5601 60.5986 96.1038C61.0367 96.2878 61.4756 96.4686 61.9143 96.6494C62.9815 97.089 64.0487 97.5287 65.1 98.0117C65.5843 98.2336 66.0676 98.4578 66.551 98.682C68.3385 99.5112 70.1263 100.34 71.9568 101.053C73.8208 101.789 75.7052 102.475 77.658 102.95C78.1581 103.073 78.6641 103.196 79.1701 103.319L79.1725 103.32C79.6792 103.443 80.1859 103.566 80.6866 103.69C82.1313 104.023 83.6798 104.287 85.1708 104.277L85.1838 104.288L85.2079 104.286C85.5158 104.346 85.8219 104.382 86.1482 104.368C87.2127 104.332 88.2323 103.558 88.6696 102.626C89.0754 101.756 89.0249 100.79 88.6315 99.9357C88.5092 99.664 88.3358 99.4069 88.1691 99.1597L88.1306 99.1025C87.7275 98.4814 87.3168 97.8657 86.9063 97.2501C86.1812 96.1628 85.4564 95.0759 84.774 93.961C84.2488 92.9719 83.7479 91.981 83.2821 90.9751C83.1225 90.6362 82.9693 90.2928 82.8162 89.9493C82.5097 89.2621 82.2031 88.5747 81.8456 87.924C80.7322 85.9146 79.5874 83.9684 78.2775 82.0839C77.9157 81.5609 77.5506 81.0352 77.1855 80.5094C76.8205 79.9837 76.4554 79.4579 76.0936 78.9349C76.0472 78.8576 75.9932 78.7809 75.9379 78.7022C75.8938 78.6395 75.8488 78.5756 75.806 78.5091C78.2966 78.722 80.7834 78.8867 83.2813 78.8807C88.9799 78.8609 94.6934 78.7187 100.386 78.3112C106.96 77.8452 113.532 77.3552 120.063 76.4924C120.636 76.4171 121.208 76.342 121.781 76.2669C127.818 75.4759 133.879 74.6817 139.884 73.558C140.394 73.4643 140.904 73.3738 141.412 73.2834C142.655 73.0624 143.893 72.8424 145.121 72.5805C146.98 72.1646 148.84 71.7488 150.713 71.3441C151.72 71.1269 152.705 70.8695 153.69 70.6124C154.105 70.5038 154.52 70.3953 154.937 70.2899C155.247 70.2091 155.556 70.1293 155.866 70.0496C157.029 69.7498 158.188 69.4512 159.32 69.1018C159.828 68.9484 160.335 68.8006 160.841 68.6531C162.024 68.3082 163.202 67.965 164.368 67.5572C166.068 66.96 167.757 66.3759 169.446 65.7917L170.066 65.5775C171.457 65.0977 172.853 64.6159 174.225 64.0625C174.683 64.1835 175.157 64.206 175.647 64.1061C176.9 63.848 177.838 62.8026 178.036 61.5979C178.316 61.1388 178.481 60.6039 178.5 60.0566C178.509 59.8108 178.488 59.5624 178.44 59.3187C179.157 58.6432 179.675 57.7327 180.152 56.8945L180.212 56.7897C180.564 56.1671 180.905 55.5575 181.22 54.9257L181.225 54.9146C181.496 54.3628 181.767 53.811 182.013 53.2611C182.445 52.256 182.689 51.3388 182.327 50.2639C182.326 50.2518 182.323 50.243 182.319 50.2342C182.315 50.2254 182.312 50.2166 182.311 50.2046C182.309 49.8651 182.27 49.5163 182.23 49.1676C182.121 48.2181 182 47.2816 181.866 46.334C181.738 45.301 181.539 44.298 181.244 43.3027C181.08 42.758 180.896 42.215 180.711 41.672C180.618 41.4002 180.526 41.1284 180.436 40.8563C180.337 40.5553 180.245 40.2486 180.153 39.9406C179.996 39.4145 179.838 38.8846 179.638 38.3727L179.637 38.3699C179.351 37.6538 179.066 36.9377 178.756 36.2235C178.559 35.7471 178.39 35.2663 178.222 34.787C177.996 34.144 177.771 33.5037 177.479 32.8807C177.208 32.3152 176.928 31.7551 176.648 31.1945L176.647 31.1928C176.285 30.4685 175.923 29.7434 175.579 29.0054C175.4 28.6268 175.225 28.2439 175.05 27.8602L175.049 27.8581C174.612 26.9039 174.174 25.9447 173.671 25.0338C173.609 24.9243 173.548 24.8144 173.486 24.7045C173.156 24.1157 172.824 23.525 172.445 22.9729C172.338 22.8118 172.23 22.6563 172.122 22.5014C171.953 22.2574 171.784 22.0145 171.623 21.7529C171.283 21.1251 170.956 20.5082 170.663 19.8524C170.17 18.635 169.768 17.387 169.367 16.14C168.951 14.8473 168.535 13.5558 168.018 12.3006L167.96 12.1604C167.665 11.4413 167.364 10.7065 166.982 10.0424C166.561 9.29977 166.027 8.66316 165.455 8.01748C164.884 7.3722 164.348 6.712 163.813 6.05177C163.464 5.61874 163.149 5.16963 162.847 4.70863C162.693 4.42758 162.557 4.13915 162.421 3.85102C162.169 3.31719 161.917 2.78404 161.557 2.30087C161.286 1.93438 160.991 1.56973 160.606 1.28524C160.372 1.08561 160.129 0.923096 159.852 0.799671C158.999 0.431299 158.087 0.39526 157.199 0.672627C156.114 1.02907 155.383 2.01255 155.215 3.09419C155.186 3.09469 155.158 3.09493 155.13 3.09464C154.514 3.13182 153.992 3.27083 153.448 3.61762C152.985 3.89736 152.64 4.30105 152.421 4.7674C152.309 4.87307 152.183 4.96772 152.058 5.06234L152.056 5.0635C151.982 5.12403 151.907 5.17855 151.833 5.23306C151.758 5.28759 151.683 5.3421 151.609 5.40264L151.587 5.42862L151.367 5.60076C150.158 6.54492 148.938 7.49754 147.694 8.40913C146.503 9.28676 145.261 10.0415 143.997 10.8094C143.909 10.8631 143.82 10.9169 143.732 10.9708C142.416 11.7616 141.128 12.5865 139.839 13.4115C138.551 14.2365 137.262 15.0616 135.947 15.8523C134.807 16.4774 133.637 17.0321 132.428 17.5535C132.421 17.5615 132.409 17.5653 132.393 17.5706C132.383 17.5738 132.371 17.5776 132.357 17.5834C132.311 17.6113 132.241 17.6413 132.17 17.6712C132.188 17.6604 132.207 17.6489 132.226 17.6387C132.258 17.6253 132.29 17.6118 132.322 17.5983C132.286 17.6086 132.255 17.6228 132.226 17.6387C131.892 17.779 131.557 17.9186 131.221 18.0584C129.655 18.7112 128.083 19.3667 126.548 20.0988C125.757 20.4648 124.972 20.8452 124.186 21.226C123.239 21.6848 122.291 22.1441 121.331 22.579C120.166 23.0435 118.981 23.4179 117.796 23.7923C117.006 24.0419 116.216 24.2915 115.432 24.5678C114.679 24.828 113.942 25.1258 113.205 25.4232C112.198 25.83 111.193 26.236 110.152 26.5436C110.068 26.5624 109.985 26.5813 109.889 26.589C109.477 26.6345 109.066 26.6743 108.655 26.7141C107.481 26.8278 106.308 26.9414 105.132 27.1883C103.723 27.4711 102.336 27.8853 100.949 28.2997C99.9383 28.5626 98.9 28.7794 97.8449 28.9367C96.7954 29.0875 95.7412 29.2174 94.687 29.3473C93.6328 29.4773 92.5786 29.6072 91.529 29.758C91.5048 29.76 91.4565 29.7638 91.4215 29.7787C91.4085 29.7676 91.3973 29.7806 91.3973 29.7806C91.3862 29.7937 91.3732 29.7826 91.3732 29.7826L91.3862 29.7937C91.3732 29.7826 91.3491 29.7845 91.3491 29.7845C90.6787 29.8989 90.0196 30.0396 89.3604 30.1804C88.7012 30.3211 88.042 30.4619 87.3716 30.5762C86.8524 30.6583 86.3298 30.6975 85.8072 30.7366C85.546 30.7562 85.2849 30.7758 85.0241 30.8007C84.0135 30.9059 83.0046 31.0352 82.0107 31.1997C81.453 31.2847 80.9056 31.4061 80.3574 31.5277C79.9158 31.6256 79.4737 31.7237 79.0253 31.8029C78.9649 31.8077 78.9053 31.8132 78.8461 31.8187C78.7437 31.8282 78.6426 31.8376 78.5403 31.8432C76.643 31.8739 74.7466 32.0562 72.88 32.4771C72.1049 32.6483 71.328 32.7955 70.538 32.9316C70.4843 32.942 70.4273 32.9496 70.3702 32.9572C70.3132 32.9648 70.2562 32.9724 70.2024 32.9828C69.6757 33.0735 69.162 33.1752 68.6373 33.29L68.6377 33.2883C68.7135 33.0159 68.7893 32.7435 68.841 32.4731C68.9909 31.7453 69.0185 31.0031 69.033 30.2499C69.0439 29.6061 69.0937 28.9955 69.1547 28.3719C69.2371 27.7303 69.3455 27.0866 69.454 26.4416C69.7644 24.5978 70.0765 22.7435 69.79 20.8971C69.7027 20.3342 69.5585 19.7887 69.4147 19.2445C69.2799 18.7346 69.1454 18.2258 69.0582 17.7047C69.0494 17.6256 69.0408 17.5462 69.0322 17.4665C68.965 16.8441 68.8964 16.2092 68.6792 15.6243C68.0443 13.8435 66.3064 12.8546 64.4596 13.4392C63.6438 13.7108 63.0375 14.3416 62.4796 14.9685C62.4169 15.0371 62.3546 15.1057 62.2927 15.1744ZM78.5363 31.8434C78.5265 31.8437 78.5168 31.844 78.5071 31.8443C78.4435 31.8464 78.38 31.8484 78.3132 31.8477C78.3887 31.8492 78.4628 31.8473 78.5363 31.8434ZM78.7008 31.8409C78.6479 31.8404 78.5969 31.8415 78.5465 31.8431C78.5979 31.8422 78.6494 31.8415 78.7008 31.8409ZM70.9652 38.9458C71.0437 38.9349 71.1247 38.921 71.2058 38.907C71.1255 38.9196 71.0453 38.9325 70.9652 38.9458ZM74.1572 72.2098C74.496 72.2572 74.8353 72.3046 75.1733 72.361C76.2113 72.4597 77.2364 72.5473 78.2614 72.635C79.0355 72.7067 79.8242 72.7256 80.609 72.7444C80.9635 72.7529 81.3176 72.7613 81.6696 72.7747C83.2131 72.841 84.7577 72.8254 86.2981 72.8099C86.7249 72.8056 87.1518 72.8013 87.5778 72.7988C91.001 72.6823 94.4353 72.5526 97.8548 72.3879C100.814 72.2357 103.756 72.0002 106.708 71.7516C110.305 71.4513 113.897 71.0788 117.489 70.7063L117.506 70.7046C120.254 70.4174 123.004 70.0168 125.745 69.6175L126.449 69.515C127.199 69.4125 127.943 69.3044 128.686 69.1963C129.43 69.0882 130.173 68.9802 130.924 68.8776C132.057 68.6955 133.195 68.5166 134.335 68.3372L134.337 68.3369C135.318 68.1827 136.3 68.0281 137.286 67.8707C138.795 67.6335 140.295 67.3345 141.796 67.0352C142.487 66.8973 143.179 66.7594 143.872 66.6274C145.319 66.359 146.751 66.0283 148.185 65.6967C148.92 65.527 149.657 65.3568 150.396 65.1949C151.797 64.8909 153.188 64.5132 154.577 64.1361C155.208 63.9645 155.84 63.7929 156.472 63.6285C161.365 62.1326 166.253 60.5644 171.05 58.7609C170.975 58.5728 170.905 58.3843 170.836 58.1957C170.767 58.0072 170.698 57.8186 170.623 57.6306C170.198 56.3982 169.919 55.12 169.641 53.8417C169.48 53.0999 169.318 52.3573 169.128 51.6243C168.918 50.9497 168.686 50.301 168.417 49.6432C167.789 48.2138 167.031 46.8442 166.274 45.4754C166.038 45.0493 165.802 44.6219 165.57 44.1942C164.409 42.0309 163.503 39.7259 162.729 37.3981C161.951 35.0222 161.16 32.6351 160.358 30.261C159.909 28.9265 159.484 27.5867 159.059 26.2489C158.679 25.0528 158.299 23.8576 157.904 22.6697C157.435 21.242 156.875 19.8526 156.316 18.4632C156.176 18.1158 156.036 17.7682 155.897 17.4201C155.154 17.979 154.424 18.5603 153.701 19.1359C153.387 19.3853 153.075 19.6339 152.764 19.8788C150.83 21.3803 148.819 22.8151 146.694 24.0407C146.753 24.0117 146.808 23.98 146.863 23.9484C146.918 23.9167 146.973 23.885 147.032 23.8561C141.394 27.1706 135.592 30.2554 129.598 32.8828C129.072 33.1087 128.55 33.3431 128.027 33.5776C127.033 34.024 126.036 34.4715 125.009 34.8638C124.137 35.2005 123.263 35.5405 122.389 35.8804C121.515 36.2203 120.64 36.5602 119.769 36.8969C119.428 37.0319 119.076 37.1423 118.726 37.2522C118.484 37.328 118.244 37.4036 118.007 37.4869C117.204 37.7509 116.406 38.0205 115.602 38.2925L115.6 38.2931C115.281 38.4011 114.961 38.5094 114.638 38.618C113.505 38.9905 112.347 39.2948 111.193 39.598C110.758 39.7124 110.323 39.8268 109.89 39.9446C104.497 41.3995 98.9337 42.1652 93.4107 42.9254C92.777 43.0127 92.1438 43.0998 91.5116 43.1879C88.1431 43.6752 84.7396 44.0209 81.3598 44.3641L81.3181 44.3683C78.1898 44.6917 75.0634 45.0393 71.9407 45.4351C71.2791 45.5169 70.6168 45.6035 69.9539 45.6903L69.9514 45.6906C67.2688 46.0416 64.5738 46.3943 61.8549 46.437C60.5104 46.4598 59.1639 46.3008 58.0899 45.4285C57.677 45.0942 57.3783 44.6614 57.0821 44.2322C57.0164 44.137 56.9507 44.0418 56.8841 43.9481C56.1623 42.9263 55.9652 41.6319 55.8702 40.4022C55.7791 39.2234 55.7489 38.0329 55.7187 36.8458C55.7088 36.4547 55.6989 36.0636 55.6868 35.6737C55.6304 34.2039 55.7237 32.7221 55.8164 31.2505L55.8334 30.9796C55.8692 30.3673 55.9092 29.7585 55.949 29.1537L55.9495 29.1468C55.9792 28.6947 56.0088 28.2447 56.0364 27.7972C55.9122 27.9163 55.7875 28.0294 55.6628 28.1425C55.5382 28.2557 55.4135 28.3688 55.2893 28.4879C54.1752 29.5294 53.0703 30.5732 51.9654 31.617C50.8605 32.6607 49.7556 33.7045 48.6415 34.746C46.2445 37.0003 43.8458 39.2305 41.408 41.4273C38.6754 43.8904 35.9039 46.3202 33.1064 48.7278C31.756 49.9029 30.3638 51.032 28.9735 52.1595C28.2933 52.7112 27.6126 53.2633 26.9385 53.8194L26.6416 54.0651C24.2109 56.0774 21.7917 58.0803 19.41 60.136C17.1706 62.0744 14.9701 64.0461 12.7975 66.064C11.6859 67.1045 10.5613 68.1339 9.43682 69.1634L9.43473 69.1653L9.41229 69.1858C9.21624 69.3662 9.01734 69.5441 8.81713 69.7231C8.58962 69.9266 8.35997 70.132 8.13129 70.3438C8.25741 70.4065 8.38075 70.4724 8.50408 70.5384C8.62741 70.6043 8.75074 70.6703 8.87687 70.7329C9.43612 71.0492 9.99201 71.3695 10.5504 71.6912C11.0049 71.953 11.4615 72.216 11.9225 72.4784C13.3377 73.2142 14.777 73.948 16.2904 74.5425C16.2283 74.5232 16.1657 74.4979 16.1031 74.4726C16.0405 74.4473 15.9779 74.422 15.9158 74.4027L20.3782 76.1196C26.8157 78.4425 33.2958 80.6892 39.7834 82.8747C42.167 83.6789 44.5633 84.432 46.9554 85.1839L46.9594 85.1851C47.4529 85.3402 47.9462 85.4953 48.4391 85.6507C49.3319 85.9361 50.2241 86.2132 51.1138 86.4896C51.7354 86.6827 52.3571 86.8757 52.9756 87.0706C53.4889 87.2344 54.0018 87.3934 54.514 87.5521C55.6394 87.901 56.7616 88.2489 57.8755 88.6431C58.5984 88.9004 59.3185 89.161 60.0386 89.4216L60.0411 89.4225C60.7612 89.6831 61.4813 89.9437 62.2042 90.201C63.121 90.5279 64.0221 90.9175 64.9232 91.307C65.2235 91.4369 65.5238 91.5667 65.8247 91.6942C67.1471 92.2467 68.4519 92.8394 69.7571 93.4323C71.4577 94.2049 73.1589 94.9776 74.8998 95.6618C76.2481 96.1603 77.617 96.6087 79.0061 97.0069C79.079 97.0249 79.1544 97.0427 79.2312 97.0608C79.389 97.098 79.5524 97.1366 79.7108 97.181C79.529 96.868 79.36 96.5661 79.1911 96.2642C78.6365 95.194 78.1316 94.1197 77.6204 93.0322C77.5141 92.8062 77.4074 92.5792 77.3001 92.3519C76.6766 91.0311 76.0086 89.7624 75.2923 88.4975C73.3348 85.4518 71.3198 82.4471 69.1324 79.5654C68.5962 78.9047 68.0618 78.2682 67.47 77.6726C67.2951 77.5083 67.1046 77.3506 66.9161 77.1946C66.8226 77.1172 66.7295 77.0402 66.6391 76.963L66.2551 76.7025L64.6249 76.3236C63.5029 76.086 62.3437 75.6814 61.8407 74.5086C61.321 73.2765 61.4615 71.7976 62.5442 70.8981C63.6713 69.9465 64.9769 70.0481 66.3288 70.2794C67.091 70.4124 67.8273 70.681 68.508 71.0147C68.7395 71.06 68.972 71.1189 69.1993 71.1765L69.3537 71.2155C69.3475 71.2125 69.3414 71.2085 69.3352 71.2032C70.3887 71.4949 71.4494 71.7253 72.5213 71.9427C73.0621 72.0567 73.6094 72.1332 74.1572 72.2098Z" fill="black"/>
</svg>
